<svg width="20" height="13" viewBox="0 0 20 13" fill="none" xmlns="http://www.w3.org/2000/svg">
<g id="password_open">
<path id="Vector" d="M10 3.5C9.27668 3.5 8.58299 3.81607 8.07153 4.37868C7.56006 4.94129 7.27273 5.70435 7.27273 6.5C7.27273 7.29565 7.56006 8.05871 8.07153 8.62132C8.58299 9.18393 9.27668 9.5 10 9.5C10.7233 9.5 11.417 9.18393 11.9285 8.62132C12.4399 8.05871 12.7273 7.29565 12.7273 6.5C12.7273 5.70435 12.4399 4.94129 11.9285 4.37868C11.417 3.81607 10.7233 3.5 10 3.5ZM10 11.5C8.79447 11.5 7.63832 10.9732 6.78588 10.0355C5.93344 9.09785 5.45455 7.82608 5.45455 6.5C5.45455 5.17392 5.93344 3.90215 6.78588 2.96447C7.63832 2.02678 8.79447 1.5 10 1.5C11.2055 1.5 12.3617 2.02678 13.2141 2.96447C14.0666 3.90215 14.5455 5.17392 14.5455 6.5C14.5455 7.82608 14.0666 9.09785 13.2141 10.0355C12.3617 10.9732 11.2055 11.5 10 11.5ZM10 0C5.45455 0 2 2 0 6.5C2 11 5.45455 13 10 13C14.5455 13 18 11 20 6.5C18 2 14.5455 0 10 0Z" fill="white"/>
</g>
</svg>
