<svg width="20" height="8" viewBox="0 0 20 8" fill="none" xmlns="http://www.w3.org/2000/svg">
<g id="password_closed">
<path id="password_closed_2" fill-rule="evenodd" clip-rule="evenodd" d="M4.04066 3.30621C3.74837 3.06512 3.46541 2.80426 3.18953 2.5213L2.70581 2.0047L0.841537 3.99561L0 3.09692L2.70581 0.207275L3.12657 0.656677L4.0224 1.61353C4.39508 1.99561 4.78954 2.33734 5.1926 2.6297C5.57175 2.88885 5.95815 3.12347 6.34537 3.33032C6.84444 3.58875 7.35049 3.80652 7.85272 3.98016C8.49294 4.18683 9.13144 4.31372 9.72752 4.35968H10.1704C10.4386 4.32733 10.722 4.28729 11.0262 4.23859C11.558 4.15973 12.0744 4.02582 12.5741 3.83746C13.4092 3.51892 14.225 3.05536 15.0316 2.43793C15.7605 1.90277 16.4771 1.25153 17.1809 0.483582L17.6241 0L20 2.8158L19.1159 3.66663L17.581 1.84753C17.1252 2.31152 16.6634 2.73193 16.1974 3.10718L17.5191 5.08331L16.5507 5.82202L15.2229 3.83679C14.6947 4.2019 14.1565 4.5119 13.6079 4.7666L14.6344 6.86115L13.58 7.4505L12.4792 5.20435C12.0585 5.33472 11.63 5.43225 11.1963 5.49652C11.0626 5.51794 10.9315 5.5379 10.8031 5.5564L10.8224 7.9892L9.63234 8L9.61348 5.62335C9.088 5.57983 8.56285 5.48926 8.03418 5.35034L7.23257 7.47003L6.12904 6.99414L6.89558 4.9671C6.53482 4.82068 6.17674 4.65546 5.81964 4.47052C5.5544 4.32892 5.29239 4.17725 5.03052 4.01349L3.59212 6.13086L2.6288 5.38452L4.04066 3.30621Z" fill="white"/>
</g>
</svg>
