<svg width="24" height="24" viewBox="0 0 24 24" fill="none" xmlns="http://www.w3.org/2000/svg">
<path fill-rule="evenodd" clip-rule="evenodd" d="M10 16C6.68629 16 4 13.3137 4 10C4 6.68629 6.68629 4 10 4C13.3137 4 16 6.68629 16 10C16 11.2958 15.5892 12.4957 14.8907 13.4765L18.9667 17.5525C19.3572 17.943 19.3572 18.5762 18.9667 18.9667C18.5762 19.3572 17.943 19.3572 17.5525 18.9667L13.4765 14.8907C12.4957 15.5892 11.2958 16 10 16ZM10 14.6C12.5405 14.6 14.6 12.5405 14.6 10C14.6 7.45949 12.5405 5.4 10 5.4C7.45949 5.4 5.4 7.45949 5.4 10C5.4 12.5405 7.45949 14.6 10 14.6Z" fill="#72726A"/>
</svg>
