<svg width="19" height="18" viewBox="0 0 19 18" fill="none" xmlns="http://www.w3.org/2000/svg">
<path d="M11.7482 3.02312C11.7482 3.02312 11.4239 2.66404 10.9953 2.66404C10.9953 2.66404 10.0571 2.66404 9.42004 4.69109C9.42004 4.69109 8.87563 6.4633 8.87563 9.09266C8.87563 9.09266 8.87563 11.5714 9.38529 13.3205C9.38529 13.3205 9.89494 15.0927 10.6363 15.0927C10.6363 15.0927 11.1575 15.0927 11.5977 14.1197C11.5977 14.1197 12.0378 13.1467 12.2231 11.5599L13.6131 11.2124C13.6131 11.2124 13.254 14.1661 12.1421 16.0773C12.1421 16.0773 10.9953 18.0001 9.54745 18.0001C9.54745 18.0001 7.80999 18.0001 6.58218 15.3939C6.58218 15.3939 5.35437 12.7877 5.35437 9.09266C5.35437 9.09266 5.35437 5.39765 6.58218 2.76829C6.58218 2.76829 7.80999 0.150513 9.54745 0.150513C9.54745 0.150513 11.2849 0.150513 12.5243 2.81462L11.7482 3.02312Z" fill="white"/>
<path d="M16.636 6.5792C16.636 6.5792 14.2383 8.55991 10.4159 9.5213C10.4159 9.5213 6.58185 10.4711 3.53549 9.84563C3.53549 9.84563 0.48914 9.19698 0.0373991 7.3321C0.0373991 7.3321 -0.344843 5.77996 1.33471 4.06567C1.33471 4.06567 2.99109 2.36295 5.96794 1.22781L6.16486 1.99229C6.16486 1.99229 4.42739 2.73361 3.466 3.67184C3.466 3.67184 2.48143 4.6564 2.70151 5.50197C2.70151 5.50197 2.99109 6.5792 5.02971 6.90352C5.02971 6.90352 7.05675 7.21627 9.68612 6.56761C9.68612 6.56761 12.2923 5.91896 13.9603 4.67957C13.9603 4.67957 15.6051 3.4286 15.3271 2.33978C15.3271 2.33978 15.0954 1.40155 13.4275 0.996146L13.1726 0C13.1726 0 15.3387 0.0810817 16.775 0.799233C16.775 0.799233 18.246 1.51739 18.5472 2.73361C18.5472 2.73361 19.0221 4.58691 16.636 6.5792Z" fill="white"/>
</svg>
