<svg width="18" height="20" viewBox="0 0 18 20" fill="none" xmlns="http://www.w3.org/2000/svg">
<path d="M7.09365 8.39014C6.51101 8.39014 6.05103 8.89014 6.05103 9.50014C6.05103 10.1101 6.52123 10.6101 7.09365 10.6101C7.6763 10.6101 8.13628 10.1101 8.13628 9.50014C8.1465 8.89014 7.6763 8.39014 7.09365 8.39014ZM10.8246 8.39014C10.242 8.39014 9.78199 8.89014 9.78199 9.50014C9.78199 10.1101 10.2522 10.6101 10.8246 10.6101C11.4073 10.6101 11.8672 10.1101 11.8672 9.50014C11.8672 8.89014 11.4073 8.39014 10.8246 8.39014Z" fill="white"/>
<path d="M15.7927 0H2.09547C0.940408 0 0 0.92 0 2.06V15.58C0 16.72 0.940408 17.64 2.09547 17.64H13.687L13.1453 15.79L14.4537 16.98L15.6905 18.1L17.8882 20V2.06C17.8882 0.92 16.9478 0 15.7927 0ZM11.8471 13.06C11.8471 13.06 11.4791 12.63 11.1725 12.25C12.5115 11.88 13.0226 11.06 13.0226 11.06C12.6035 11.33 12.2049 11.52 11.8471 11.65C11.336 11.86 10.8454 12 10.3649 12.08C9.38364 12.26 8.48412 12.21 7.71748 12.07C7.13484 11.96 6.63397 11.8 6.21487 11.64C5.97977 11.55 5.72422 11.44 5.46868 11.3C5.43801 11.28 5.40735 11.27 5.37668 11.25C5.35624 11.24 5.34602 11.23 5.33579 11.22C5.1518 11.12 5.04958 11.05 5.04958 11.05C5.04958 11.05 5.54023 11.85 6.8384 12.23C6.53175 12.61 6.15354 13.06 6.15354 13.06C3.89452 12.99 3.03588 11.54 3.03588 11.54C3.03588 8.32 4.50783 5.71 4.50783 5.71C5.97977 4.63 7.38016 4.66 7.38016 4.66L7.48238 4.78C5.64245 5.3 4.79404 6.09 4.79404 6.09C4.79404 6.09 5.01892 5.97 5.39713 5.8C6.49086 5.33 7.35972 5.2 7.71748 5.17C7.77881 5.16 7.82992 5.15 7.89125 5.15C8.51478 5.07 9.22009 5.05 9.95606 5.13C10.9271 5.24 11.9698 5.52 13.0328 6.09C13.0328 6.09 12.2253 5.34 10.4876 4.82L10.6307 4.66C10.6307 4.66 12.0311 4.63 13.503 5.71C13.503 5.71 14.975 8.32 14.975 11.54C14.975 11.54 14.1061 12.99 11.8471 13.06Z" fill="white"/>
</svg>
