<svg width="21" height="20" viewBox="0 0 21 20" fill="none" xmlns="http://www.w3.org/2000/svg">
<path fill-rule="evenodd" clip-rule="evenodd" d="M10.499 0C4.70161 0 0 4.59042 0 10.2534C0 14.7834 3.00829 18.626 7.1807 19.9818C7.70604 20.0762 7.89748 19.7596 7.89748 19.4877C7.89748 19.2448 7.88845 18.5996 7.8833 17.7442C4.96267 18.3636 4.34645 16.3695 4.34645 16.3695C3.86881 15.185 3.18039 14.8696 3.18039 14.8696C2.22704 14.2339 3.25258 14.2465 3.25258 14.2465C4.30648 14.3189 4.86082 15.3033 4.86082 15.3033C5.79741 16.8699 7.31864 16.4174 7.91682 16.1549C8.01222 15.4928 8.28359 15.0408 8.58332 14.7846C6.25185 14.5259 3.80048 13.646 3.80048 9.71711C3.80048 8.59799 4.2098 7.68217 4.88146 6.96588C4.77317 6.70656 4.41283 5.66359 4.98458 4.25242C4.98458 4.25242 5.86574 3.97673 7.87169 5.30356C8.70901 5.07571 9.60757 4.96241 10.5003 4.95801C11.3924 4.96241 12.2903 5.07571 13.1289 5.30356C15.1336 3.97673 16.0135 4.25242 16.0135 4.25242C16.5865 5.66359 16.2262 6.70656 16.1185 6.96588C16.7915 7.68217 17.1976 8.59799 17.1976 9.71711C17.1976 13.6561 14.7423 14.5228 12.4038 14.7765C12.7802 15.0931 13.1161 15.7187 13.1161 16.6754C13.1161 18.0457 13.1032 19.1516 13.1032 19.4877C13.1032 19.7622 13.2927 20.0813 13.8251 19.9812C17.9943 18.6223 21 14.7821 21 10.2534C21 4.59042 16.2984 0 10.499 0Z" fill="white"/>
</svg>
