<svg width="13" height="20" viewBox="0 0 13 20" fill="none" xmlns="http://www.w3.org/2000/svg">
<path d="M6.24997 2.93059C7.39071 2.93059 8.31995 3.8587 8.31995 5.00056C8.31995 6.14129 7.39071 7.07053 6.24997 7.07053C5.70126 7.06964 5.17527 6.85126 4.78727 6.46326C4.39927 6.07526 4.18089 5.54927 4.18 5.00056C4.18 3.8587 5.10924 2.93059 6.24997 2.93059ZM6.24997 9.99999C7.57554 9.9988 8.84647 9.47169 9.78379 8.53437C10.7211 7.59706 11.2482 6.32612 11.2494 5.00056C11.2479 3.67498 10.7208 2.4041 9.78353 1.46667C8.84631 0.529239 7.57555 0.00178646 6.24997 0C4.92401 0.00119105 3.65267 0.528381 2.71496 1.46588C1.77726 2.40337 1.24978 3.67459 1.24829 5.00056C1.24948 6.32662 1.77686 7.59801 2.71463 8.53557C3.65241 9.47313 4.92391 10.0002 6.24997 10.0011V9.99999Z" fill="white"/>
<path d="M8.50336 14.2469C9.64599 13.993 10.7386 13.5512 11.7366 12.9396C12.4993 12.4716 12.7288 11.4884 12.2484 10.7459C12.0123 10.3861 11.6452 10.1325 11.2252 10.0388C10.8051 9.94515 10.3651 10.0188 9.99846 10.2442C8.86838 10.9305 7.5716 11.2934 6.24945 11.2934C4.9273 11.2934 3.63051 10.9305 2.50044 10.2442C2.134 10.0184 1.69399 9.94442 1.27386 10.0379C0.853743 10.1314 0.486617 10.385 0.250467 10.7448C0.136496 10.9214 0.0592044 11.1192 0.0231874 11.3263C-0.0128295 11.5334 -0.00683673 11.7457 0.0408096 11.9504C0.0884559 12.1552 0.176783 12.3482 0.30054 12.5182C0.424298 12.6881 0.580959 12.8314 0.76121 12.9396C1.75966 13.5511 2.85259 13.9929 3.99554 14.2469L0.882709 17.2843C0.731645 17.4302 0.611503 17.6049 0.529446 17.7982C0.447389 17.9915 0.4051 18.1993 0.4051 18.4093C0.4051 18.6193 0.447389 18.8271 0.529446 19.0204C0.611503 19.2137 0.731645 19.3884 0.882709 19.5343C1.2022 19.8437 1.61845 20 2.03582 20C2.45431 20 2.87168 19.8437 3.19118 19.5332L6.24889 16.5497L9.30884 19.5332C9.6183 19.8325 10.032 19.9998 10.4625 19.9998C10.8931 19.9998 11.3067 19.8325 11.6162 19.5332C11.7674 19.3874 11.8877 19.2126 11.9698 19.0194C12.052 18.8261 12.0943 18.6182 12.0943 18.4082C12.0943 18.1982 12.052 17.9903 11.9698 17.797C11.8877 17.6037 11.7674 17.429 11.6162 17.2832L8.50336 14.2457" fill="white"/>
</svg>
