<svg width="18" height="20" viewBox="0 0 18 20" fill="none" xmlns="http://www.w3.org/2000/svg">
<path fill-rule="evenodd" clip-rule="evenodd" d="M16.0208 5.08124C16.2768 3.52545 16.0191 2.46683 15.1365 1.50798C14.1647 0.45227 12.4092 0 10.1631 0H3.64328C3.18418 0 2.79331 0.318459 2.72178 0.750798L0.00695644 17.1642C-0.0466001 17.488 0.215898 17.7809 0.559787 17.7809H4.58475L4.30699 19.4605C4.26012 19.7438 4.48974 20 4.79064 20H8.18326C8.58482 20 8.92671 19.7214 8.98931 19.3433L9.02255 19.1789L9.66171 15.3149L9.70293 15.1014C9.76541 14.7233 10.1073 14.4447 10.5089 14.4447H11.0165C14.3032 14.4447 16.8767 13.1715 17.6287 9.48973C17.9429 7.95118 17.7805 6.66704 16.9495 5.76429C16.6982 5.49118 16.3855 5.26544 16.0208 5.08124Z" fill="#C8C6C6"/>
<path fill-rule="evenodd" clip-rule="evenodd" d="M16.0208 5.08124C16.2768 3.52544 16.0191 2.46683 15.1365 1.50798C14.1647 0.45227 12.4092 0 10.1631 0H3.64329C3.18418 0 2.79331 0.318459 2.72178 0.750798L0.00695644 17.1642C-0.0466001 17.488 0.215898 17.7809 0.559787 17.7809H4.58475L5.59587 11.6683L5.56451 11.8599C5.63604 11.4277 6.02362 11.1092 6.48261 11.1092H8.39561C12.1527 11.1092 15.0945 9.65399 15.9541 5.44527C15.9796 5.32064 16.0014 5.19993 16.0208 5.08124Z" fill="#EDECEC"/>
<path fill-rule="evenodd" clip-rule="evenodd" d="M6.68203 5.10195C6.72502 4.84183 6.90002 4.62897 7.13574 4.52125C7.24285 4.47231 7.36253 4.4451 7.48808 4.4451H12.5987C13.2042 4.4451 13.7687 4.48284 14.2848 4.56212C14.4324 4.58474 14.5759 4.61083 14.7153 4.64028C14.8547 4.66984 14.99 4.70276 15.1211 4.73937C15.1866 4.75751 15.251 4.77666 15.3144 4.79671C15.5677 4.87699 15.8037 4.97161 16.0208 5.08124C16.2768 3.52544 16.0191 2.46683 15.1365 1.50798C14.1647 0.45227 12.4092 0 10.1631 0H3.64329C3.18418 0 2.79331 0.318459 2.72178 0.750798L0.00695644 17.1642C-0.0466001 17.488 0.215898 17.7809 0.559787 17.7809H4.58475L6.68203 5.10195Z" fill="white"/>
</svg>
