<svg width="20" height="20" viewBox="0 0 20 20" fill="none" xmlns="http://www.w3.org/2000/svg">
<path fill-rule="evenodd" clip-rule="evenodd" d="M20 10C20 15.5228 15.5228 20 10 20C4.47715 20 0 15.5228 0 10C0 4.47715 4.47715 0 10 0C15.5228 0 20 4.47715 20 10ZM16.4061 9.21537C16.5678 9.44602 16.6593 9.71852 16.6696 10C16.6739 10.2755 16.6001 10.5466 16.4567 10.782C16.3134 11.0174 16.1064 11.2073 15.8596 11.33C15.8709 11.4764 15.8709 11.6235 15.8596 11.77C15.8596 14.01 13.2496 15.83 10.0296 15.83C6.8096 15.83 4.1996 14.01 4.1996 11.77C4.18834 11.6235 4.18834 11.4764 4.1996 11.33C4.00726 11.2416 3.83643 11.1125 3.69896 10.9515C3.56148 10.7906 3.46065 10.6017 3.40345 10.3979C3.34624 10.1941 3.33404 9.9803 3.36767 9.77132C3.40131 9.56234 3.47998 9.36317 3.59824 9.18762C3.7165 9.01207 3.87151 8.86433 4.05255 8.75464C4.23358 8.64495 4.4363 8.57594 4.64665 8.55239C4.857 8.52883 5.06996 8.5513 5.27077 8.61823C5.47158 8.68516 5.65544 8.79495 5.8096 8.94C6.96187 8.15852 8.31748 7.73099 9.7096 7.71L10.4496 4.24C10.4579 4.19983 10.4741 4.16171 10.4973 4.12784C10.5204 4.09398 10.5501 4.06504 10.5845 4.04272C10.6189 4.0204 10.6574 4.00513 10.6978 3.99779C10.7381 3.99046 10.7795 3.99121 10.8196 4L13.2696 4.49C13.3892 4.28444 13.5782 4.12825 13.8027 4.04948C14.0271 3.9707 14.2722 3.9745 14.4941 4.06018C14.716 4.14587 14.9001 4.30784 15.0133 4.517C15.1265 4.72617 15.1615 4.96885 15.1119 5.20147C15.0623 5.4341 14.9315 5.64143 14.7428 5.78626C14.5541 5.9311 14.32 6.00394 14.0825 5.99172C13.8449 5.9795 13.6195 5.88301 13.4467 5.71958C13.2739 5.55615 13.165 5.33648 13.1396 5.1L10.9996 4.65L10.3496 7.77C11.7248 7.7995 13.062 8.22671 14.1996 9C14.4028 8.80496 14.6581 8.67286 14.9347 8.61964C15.2113 8.56642 15.4974 8.59434 15.7585 8.70004C16.0195 8.80575 16.2445 8.98471 16.4061 9.21537ZM6.83813 10.4444C6.72825 10.6089 6.6696 10.8022 6.6696 11C6.6696 11.1313 6.69546 11.2614 6.74572 11.3827C6.79597 11.504 6.86963 11.6142 6.96249 11.7071C7.05535 11.8 7.16559 11.8736 7.28691 11.9239C7.40824 11.9741 7.53827 12 7.6696 12C7.86738 12 8.06072 11.9413 8.22517 11.8315C8.38962 11.7216 8.51779 11.5654 8.59348 11.3827C8.66916 11.2 8.68897 10.9989 8.65038 10.8049C8.6118 10.6109 8.51655 10.4327 8.3767 10.2929C8.23685 10.153 8.05867 10.0578 7.86469 10.0192C7.67071 9.98063 7.46964 10.0004 7.28691 10.0761C7.10419 10.1518 6.94801 10.28 6.83813 10.4444ZM10.0096 14.52C10.8972 14.5568 11.7701 14.2847 12.4796 13.75V13.79C12.5059 13.7644 12.5268 13.7339 12.5413 13.7002C12.5558 13.6664 12.5634 13.6302 12.5639 13.5935C12.5644 13.5569 12.5576 13.5204 12.544 13.4864C12.5304 13.4523 12.5102 13.4213 12.4846 13.395C12.459 13.3687 12.4285 13.3478 12.3947 13.3333C12.361 13.3188 12.3248 13.3112 12.2881 13.3107C12.2141 13.3098 12.1426 13.3383 12.0896 13.39C11.4827 13.8254 10.7454 14.0406 9.9996 14C9.25471 14.0333 8.52083 13.811 7.9196 13.37C7.86778 13.3275 7.80201 13.3057 7.73506 13.309C7.66811 13.3123 7.60478 13.3404 7.55739 13.3878C7.50999 13.4352 7.48192 13.4985 7.47863 13.5655C7.47534 13.6324 7.49707 13.6982 7.5396 13.75C8.24907 14.2847 9.12198 14.5568 10.0096 14.52ZM11.744 11.8715C11.9085 11.9813 12.1018 12.04 12.2996 12.04L12.2896 12.08C12.4252 12.0815 12.5597 12.0553 12.6849 12.0032C12.81 11.9511 12.9233 11.874 13.0178 11.7767C13.1122 11.6795 13.186 11.564 13.2344 11.4373C13.2828 11.3107 13.305 11.1755 13.2996 11.04C13.2996 10.8422 13.2409 10.6489 13.1311 10.4844C13.0212 10.32 12.865 10.1918 12.6823 10.1161C12.4996 10.0404 12.2985 10.0206 12.1045 10.0592C11.9105 10.0978 11.7323 10.193 11.5925 10.3329C11.4526 10.4727 11.3574 10.6509 11.3188 10.8449C11.2802 11.0389 11.3 11.24 11.3757 11.4227C11.4514 11.6054 11.5796 11.7616 11.744 11.8715Z" fill="white"/>
</svg>
