<svg width="20" height="20" viewBox="0 0 20 20" fill="none" xmlns="http://www.w3.org/2000/svg">
<path fill-rule="evenodd" clip-rule="evenodd" d="M9.98265 0C4.7206 0 0.409656 4.05043 0 9.1979L5.36902 11.4139C5.82392 11.1034 6.3735 10.9218 6.96481 10.9218C7.01775 10.9218 7.07047 10.9231 7.12274 10.9262L9.51061 7.47133C9.51061 7.45488 9.51017 7.43888 9.51017 7.42243C9.51017 5.34305 11.2048 3.65113 13.288 3.65113C15.371 3.65113 17.0659 5.34305 17.0659 7.42243C17.0659 9.50203 15.371 11.1939 13.288 11.1939C13.2592 11.1939 13.2309 11.1933 13.2023 11.1926L9.79704 13.6182C9.7988 13.6625 9.80033 13.7075 9.80033 13.7522C9.80033 15.3132 8.52831 16.583 6.96481 16.583C5.59219 16.583 4.44471 15.6049 4.18464 14.3098L0.344858 12.7251C1.53385 16.9227 5.39692 20 9.98265 20C15.5151 20 20 15.5226 20 10C20 4.47714 15.5151 0 9.98265 0Z" fill="white"/>
<path fill-rule="evenodd" clip-rule="evenodd" d="M6.12772 15.3784L4.84998 14.8515C5.07647 15.3222 5.46832 15.7161 5.98836 15.9326C7.11259 16.4003 8.40904 15.8675 8.87776 14.7445C9.10447 14.2008 9.10607 13.6013 8.88118 13.0566C8.65651 12.5118 8.2325 12.0869 7.68783 11.8601C7.14726 11.6356 6.56815 11.644 6.05929 11.8355L7.37923 12.3804C8.20855 12.7256 8.60063 13.6762 8.25508 14.5041C7.90976 15.332 6.95704 15.7236 6.12772 15.3784Z" fill="white"/>
<path fill-rule="evenodd" clip-rule="evenodd" d="M11.4482 7.32572C11.4482 6.24305 12.3275 5.36575 13.4118 5.36575C14.4963 5.36575 15.3754 6.24305 15.3754 7.32572C15.3754 8.40839 14.4963 9.28569 13.4118 9.28569C12.3275 9.28569 11.4482 8.40839 11.4482 7.32572ZM16.0213 7.33027C16.0213 5.89149 14.8487 4.7207 13.4074 4.7207C11.9662 4.7207 10.7936 5.89149 10.7936 7.33027C10.7936 8.76906 11.9662 9.93939 13.4074 9.93939C14.8487 9.93939 16.0213 8.76906 16.0213 7.33027Z" fill="white"/>
</svg>
