<svg width="18" height="18" viewBox="0 0 18 18" fill="none" xmlns="http://www.w3.org/2000/svg">
<path fill-rule="evenodd" clip-rule="evenodd" d="M18 14.4C18 16.3882 16.3883 18 14.4 18H3.6C1.61277 18 0 16.3882 0 14.4V3.60013C0 1.61178 1.61277 0 3.6 0H14.4C16.3883 0 18 1.61178 18 3.60013V14.4ZM14.6958 5.97088C14.7946 5.41658 14.7924 4.84674 14.4501 4.41579C13.9726 3.81141 12.9562 3.78926 12.2598 3.89582C11.6933 3.98253 9.77727 4.82784 9.12525 6.85178C10.2804 6.76401 10.8857 6.93503 10.7747 8.20688C10.7279 8.73903 10.4593 9.3221 10.1593 9.88091C9.81275 10.5252 9.16294 11.7904 8.31105 10.8784C7.54345 10.0575 7.60119 8.48791 7.42567 7.44272C7.32804 6.85619 7.22464 6.12531 7.03253 5.52208C6.86698 5.00337 6.48717 4.378 6.02285 4.24246C5.5241 4.09581 4.90757 4.32467 4.5455 4.53799C3.39253 5.21554 2.51387 6.17969 1.51648 6.97503V7.04946C1.71415 7.23832 1.76748 7.54822 2.05848 7.59043C2.74492 7.69152 3.39925 6.95056 3.85569 7.72144C4.13336 8.1925 4.22007 8.709 4.3978 9.21669C4.63547 9.89309 4.81876 10.6296 5.01318 11.4071C5.34197 12.7245 5.74624 14.6929 6.88482 15.1749C7.46566 15.4216 8.33887 15.0917 8.78082 14.8295C9.9783 14.1208 10.9113 13.0933 11.71 12.048C13.5361 9.57437 14.5436 6.77178 14.6958 5.97088Z" fill="white"/>
</svg>
