<svg width="26" height="20" viewBox="0 0 26 20" fill="none" xmlns="http://www.w3.org/2000/svg">
<path fill-rule="evenodd" clip-rule="evenodd" d="M18.8905 9.62847C18.5364 9.52456 18.2934 9.45328 18.4789 8.99699C18.8804 8.00487 18.922 7.14908 18.4866 6.53868C17.6704 5.39391 15.4368 5.45548 12.8764 6.50789C12.8764 6.50661 12.0725 6.85332 12.278 6.22697C12.6718 4.98398 12.6127 3.94311 11.9997 3.34187C10.6109 1.9772 6.91722 3.39354 3.74931 6.50239C1.37743 8.83151 0 11.3001 0 13.4348C0 17.5178 5.3328 19.9999 10.5501 19.9999C17.3889 19.9999 21.9384 16.0985 21.9384 13.0012C21.9384 11.1298 20.333 10.0679 18.8905 9.62847ZM10.5639 18.5367C6.40115 18.9396 2.8075 17.0926 2.53687 14.4089C2.26661 11.7258 5.42332 9.2233 9.58568 8.81942C13.749 8.4148 17.3426 10.2627 17.6129 12.9451C17.8826 15.6294 14.7272 18.1326 10.5639 18.5367Z" fill="#D22432"/>
<path fill-rule="evenodd" clip-rule="evenodd" d="M23.4327 2.15683C21.7815 0.359143 19.3452 -0.325849 17.0963 0.143456H17.0956C16.5758 0.252307 16.2437 0.755147 16.3555 1.26513C16.466 1.7753 16.9778 2.10167 17.498 1.99227C19.0977 1.65894 20.8286 2.14712 22.0034 3.42383C23.1762 4.70054 23.4947 6.44252 22.9924 7.96918L22.9926 7.96973C22.8287 8.46744 23.1057 8.99942 23.613 9.16013C24.1184 9.32084 24.6612 9.04889 24.8251 8.55302C24.8251 8.55229 24.8251 8.55045 24.8252 8.54935C25.5304 6.40092 25.0852 3.95269 23.4327 2.15683Z" fill="#EC9141"/>
<path fill-rule="evenodd" clip-rule="evenodd" d="M20.8958 4.40405C20.0921 3.52885 18.9054 3.19606 17.8096 3.42476C17.3617 3.5184 17.0763 3.95124 17.1724 4.39141C17.2684 4.82938 17.7087 5.11122 18.1553 5.01556V5.01648C18.6908 4.90506 19.2714 5.06705 19.6649 5.49403C20.0581 5.92247 20.1642 6.50594 19.9949 7.01776H19.9954C19.8551 7.44473 20.0932 7.90378 20.5289 8.04268C20.9649 8.17957 21.4318 7.94611 21.5724 7.5184C21.9167 6.47131 21.7015 5.27944 20.8958 4.40387" fill="#EC9141"/>
<path fill-rule="evenodd" clip-rule="evenodd" d="M10.9802 10.8845C8.99915 10.3782 6.75998 11.3476 5.89955 13.0615C5.02326 14.8093 5.87062 16.7496 7.87182 17.384C9.94525 18.0402 12.3886 17.0344 13.2386 15.148C14.0764 13.3036 13.0301 11.4045 10.9802 10.8845ZM9.46726 15.3483C9.06466 15.9789 8.20237 16.2552 7.55266 15.9642C6.91266 15.6783 6.72396 14.9453 7.12674 14.3303C7.52448 13.7181 8.35766 13.4449 9.00251 13.7104C9.65446 13.9833 9.86294 14.7109 9.46726 15.3483ZM10.7937 13.6765C10.6482 13.9213 10.3262 14.0386 10.0742 13.9367C9.82599 13.8367 9.74834 13.5632 9.88926 13.3228C10.0345 13.0839 10.3439 12.9673 10.5912 13.0633C10.8426 13.1539 10.9328 13.4306 10.7937 13.6765Z" fill="#0A0B09"/>
</svg>
