<svg width="18" height="18" viewBox="0 0 18 18" fill="none" xmlns="http://www.w3.org/2000/svg">
<path d="M3.0765 15.7748C4.65825 17.1608 6.73275 18 9 18C11.2695 18 13.3418 17.1608 14.9265 15.7748C16.3342 14.3408 11.6895 9.243 9 7.212C6.3135 9.243 1.66575 14.3408 3.0765 15.7748ZM11.4465 4.97025C13.3215 7.191 17.0595 12.705 16.0035 14.6542C17.2515 13.11 18 11.1458 18 9.003C18 6.498 16.9762 4.2315 15.3225 2.601C15.3225 2.601 15.3022 2.5845 15.261 2.5695C15.2137 2.553 15.147 2.53575 15.0502 2.53575C14.6062 2.53575 13.5615 2.86125 11.4465 4.97025ZM2.7405 2.5695C2.69775 2.5845 2.679 2.60025 2.676 2.601C1.02375 4.2315 0 6.498 0 9.003C0 11.1435 0.7485 13.1078 1.99575 14.6528C0.945 12.699 4.68 7.1895 6.55575 4.97025C4.44075 2.8605 3.39375 2.5365 2.95125 2.5365C2.853 2.5365 2.784 2.55225 2.7405 2.571V2.5695ZM9 2.66325C9 2.66325 6.79125 1.371 5.06625 1.3095C4.389 1.28475 3.97575 1.53075 3.9255 1.56375C5.53425 0.4845 7.24425 0 8.988 0H9C10.7505 0 12.4538 0.4845 14.0745 1.56375C14.0235 1.52925 13.6132 1.28475 12.9345 1.3095C11.2095 1.371 9 2.65875 9 2.65875V2.66325Z" fill="white"/>
</svg>
