<svg width="22" height="16" viewBox="0 0 22 16" fill="none" xmlns="http://www.w3.org/2000/svg">
<path fill-rule="evenodd" clip-rule="evenodd" d="M21.5416 2.49762C22 4.28082 22 7.99928 22 7.99928C22 7.99928 22 11.7192 21.5402 13.5009C21.415 13.9853 21.1695 14.427 20.8282 14.7817C20.487 15.1365 20.062 15.3919 19.5959 15.5223C17.8795 16 11 16 11 16C11 16 4.12051 16 2.40547 15.5223C1.93892 15.392 1.51355 15.1365 1.17205 14.7814C0.830552 14.4264 0.58493 13.9843 0.459829 13.4995C-5.14414e-08 11.7206 0 7.99928 0 7.99928C0 7.99928 -5.14414e-08 4.28082 0.459829 2.49762C0.585353 2.01335 0.831163 1.57185 1.17263 1.21735C1.5141 0.862841 1.93925 0.607783 2.40547 0.477719C4.12051 1.60328e-07 11 0 11 0C11 0 17.8795 1.60328e-07 19.5959 0.477719C20.0619 0.608002 20.4867 0.863158 20.828 1.21765C21.1692 1.57214 21.4148 2.01352 21.5402 2.49762H21.5416ZM8.69119 11.5599L14.408 8.13126L8.69119 4.70259V11.5599Z" fill="white"/>
</svg>
