<svg width="112" height="45" viewBox="0 0 112 45" fill="none" xmlns="http://www.w3.org/2000/svg">
<mask id="path-1-outside-1" maskUnits="userSpaceOnUse" x="0" y="0" width="112" height="45" fill="black">
<rect fill="white" width="112" height="45"/>
<path fill-rule="evenodd" clip-rule="evenodd" d="M3 1C1.89551 1 1 1.89551 1 3V35C1 36.1045 1.89551 37 3 37H51L57 43L63 37H109C110.104 37 111 36.1045 111 35V3C111 1.89551 110.104 1 109 1H3Z"/>
</mask>
<path fill-rule="evenodd" clip-rule="evenodd" d="M3 1C1.89551 1 1 1.89551 1 3V35C1 36.1045 1.89551 37 3 37H51L57 43L63 37H109C110.104 37 111 36.1045 111 35V3C111 1.89551 110.104 1 109 1H3Z" fill="black" fill-opacity="0.856261"/>
<path d="M51 37L51.7071 36.2929L51.4142 36H51V37ZM57 43L56.2929 43.7071L57 44.4142L57.7071 43.7071L57 43ZM63 37V36H62.5858L62.2929 36.2929L63 37ZM2 3C2 2.44779 2.44779 2 3 2V0C1.34322 0 0 1.34322 0 3H2ZM2 35V3H0V35H2ZM3 36C2.44779 36 2 35.5522 2 35H0C0 36.6568 1.34322 38 3 38V36ZM51 36H3V38H51V36ZM57.7071 42.2929L51.7071 36.2929L50.2929 37.7071L56.2929 43.7071L57.7071 42.2929ZM62.2929 36.2929L56.2929 42.2929L57.7071 43.7071L63.7071 37.7071L62.2929 36.2929ZM109 36H63V38H109V36ZM110 35C110 35.5522 109.552 36 109 36V38C110.657 38 112 36.6568 112 35H110ZM110 3V35H112V3H110ZM109 2C109.552 2 110 2.44779 110 3H112C112 1.34322 110.657 0 109 0V2ZM3 2H109V0H3V2Z" fill="white" fill-opacity="0.16" mask="url(#path-1-outside-1)"/>
</svg>
