<svg width="32" height="32" viewBox="0 0 32 32" fill="none" xmlns="http://www.w3.org/2000/svg">
<path d="M9.55265 15.6907C9.55265 14.6009 9.76114 13.5827 10.2834 12.8084C10.8046 12.0385 11.5154 11.4529 12.4315 11.0571C13.2696 10.6939 14.2805 10.4336 15.4977 10.2764C15.9084 10.2265 16.5855 10.1647 17.5194 10.0877V9.68648C17.5194 8.67801 17.4089 7.99702 17.2035 7.65327C16.8855 7.18699 16.3822 6.94842 15.6873 6.94842H15.4956C14.9902 6.99831 14.5522 7.16096 14.1836 7.44724C13.8151 7.74002 13.5782 8.1304 13.4729 8.63572C13.4097 8.96103 13.256 9.13995 13.0148 9.18875L10.3613 8.84717C10.1002 8.78211 9.96963 8.65198 9.96963 8.42426C9.96963 8.37438 9.977 8.32667 9.99279 8.26161C10.2529 6.86276 10.8931 5.82176 11.9092 5.1386C12.9369 4.47062 14.1204 4.08133 15.4788 4H16.0474C17.7848 4 19.161 4.47062 20.1413 5.39885C20.2835 5.5615 20.4256 5.72416 20.5678 5.91935C20.6942 6.09827 20.8037 6.25984 20.8658 6.40732C20.9448 6.55263 21.0237 6.76516 21.0711 7.02542C21.1343 7.30085 21.1817 7.48085 21.2133 7.57845C21.2449 7.69122 21.2786 7.90376 21.2933 8.24534C21.3038 8.58475 21.3144 8.77994 21.3144 8.845V14.5705C21.3144 14.9782 21.3775 15.3513 21.4881 15.6939C21.5987 16.0333 21.7092 16.2795 21.8198 16.4248L22.3568 17.1557C22.4516 17.3032 22.5 17.4333 22.5 17.5461C22.5 17.6762 22.4368 17.7911 22.3105 17.8865C21.0469 19.0251 20.3519 19.6432 20.2435 19.7408C20.0697 19.8872 19.8486 19.9035 19.5801 19.7896C19.3748 19.6096 19.1852 19.4296 19.0262 19.2518L18.6998 18.8755C18.6366 18.7953 18.525 18.6478 18.366 18.4201L18.0501 17.9484C17.1972 18.9091 16.3622 19.5099 15.523 19.7538C15.0028 19.9165 14.3721 20 13.5961 20C12.4273 20 11.448 19.6281 10.6899 18.8788C9.93172 18.1305 9.55265 17.0733 9.55265 15.6907ZM13.4529 15.1279C13.4529 15.7416 13.6003 16.234 13.9004 16.607C14.2005 16.9757 14.6111 17.1622 15.1166 17.1622C15.1639 17.1622 15.2282 17.1546 15.3219 17.1405C15.4167 17.1231 15.463 17.1156 15.4967 17.1156C16.1432 16.9421 16.6339 16.5159 16.9961 15.8382C17.1699 15.5345 17.2962 15.2092 17.3752 14.8514C17.4699 14.5044 17.5015 14.2116 17.5173 13.9839C17.5331 13.7724 17.5331 13.3983 17.5331 12.8941V12.3085C16.6486 12.3085 15.9705 12.3736 15.5114 12.5037C14.1689 12.8941 13.4529 13.7507 13.4529 15.117V15.1279Z" fill="#A0ABB8"/>
<path d="M3.42484 23.1798C3.25035 23.0794 3.12572 23.0873 3.04769 23.2014L3.05415 23.1936C3.02166 23.2329 3 23.2752 3 23.3214C3 23.3902 3.05419 23.465 3.16257 23.5378C4.90746 24.9541 6.85827 26.0517 9.04752 26.8326C11.2422 27.6106 13.5669 28.0001 16.0217 28.0001C17.6159 28.0001 19.2579 27.7994 20.916 27.4001C22.5905 26.9969 24.1035 26.4333 25.4517 25.7025C25.8917 25.4626 26.2645 25.2462 26.542 25.0593C26.7696 24.9177 26.8021 24.7583 26.672 24.5872C26.5257 24.4141 26.348 24.3728 26.103 24.4593C26.0391 24.4888 25.9351 24.5282 25.7855 24.5872L25.4441 24.7249C22.4323 25.7694 19.3803 26.2936 16.2894 26.2936C11.6551 26.2936 7.36549 25.255 3.42484 23.1798Z" fill="#A0ABB8"/>
<path d="M24.3029 23.3991C24.2411 23.4581 24.1923 23.5073 24.1598 23.5663L24.1479 23.5702V23.6292L24.1452 23.635C24.132 23.6633 24.1262 23.6755 24.1262 23.6912C24.1089 23.7207 24.1154 23.7374 24.1479 23.7669C24.1826 23.7964 24.2454 23.8102 24.343 23.8102C24.6681 23.7659 25.0333 23.7217 25.4268 23.6774C25.792 23.6479 26.1063 23.6322 26.3697 23.6322C27.1001 23.6322 27.5391 23.7217 27.6962 23.885C27.758 23.9577 27.7905 24.0758 27.7905 24.2233C27.7905 24.7121 27.5022 25.5806 26.917 26.8198C26.8704 26.9379 26.8888 27.0126 26.9863 27.0559C27.0188 27.0677 27.0514 27.0677 27.0839 27.0677C27.1456 27.0677 27.2183 27.0382 27.2974 26.9792C27.8306 26.5543 28.2489 26.0055 28.5502 25.3268C28.8483 24.6482 29 24.0581 29 23.5565V23.4089C29 23.2496 28.9707 23.1139 28.9025 23.0253C28.7702 22.866 28.3367 22.7598 27.6323 22.7008C27.4914 22.6713 27.3396 22.6595 27.1879 22.6713C26.6222 22.689 26.0369 22.7765 25.4409 22.9073C25.0767 22.9958 24.6952 23.1601 24.3029 23.3991Z" fill="#A0ABB8"/>
</svg>
