<svg width="32" height="32" viewBox="0 0 32 32" fill="none" xmlns="http://www.w3.org/2000/svg">
<path d="M15.9274 10.8958C14.9794 10.8958 13.5119 9.81789 11.9666 9.85685C9.9277 9.88282 8.05767 11.0386 7.00577 12.8697C4.88899 16.5448 6.46034 21.9731 8.52517 24.96C9.53811 26.4145 10.7329 28.0507 12.3172 27.9988C13.8366 27.9339 14.408 27.0118 16.2521 27.0118C18.0831 27.0118 18.6026 27.9988 20.2129 27.9598C21.8492 27.9339 22.8881 26.4794 23.888 25.0119C25.0438 23.3237 25.5243 21.6874 25.5503 21.5965C25.5113 21.5835 22.3686 20.3758 22.3297 16.7396C22.3037 13.7008 24.8101 12.2463 24.9269 12.1814C23.4984 10.0906 21.3038 9.85685 20.5376 9.8049C18.5377 9.64907 16.8624 10.8958 15.9274 10.8958V10.8958ZM19.3039 7.83098C20.148 6.81804 20.7064 5.40253 20.5505 4C19.3428 4.05195 17.8883 4.80515 17.0183 5.81809C16.2391 6.71415 15.5638 8.15564 15.7456 9.53219C17.0832 9.63608 18.4597 8.84391 19.3039 7.83098" fill="#A0ABB8"/>
</svg>
