<svg width="32" height="32" viewBox="0 0 32 32" fill="none" xmlns="http://www.w3.org/2000/svg">
<path d="M20.6098 10.6108C20.2312 10.45 20.2937 10.4855 20.2937 10.4855C20.2937 10.4855 20.2531 10.4409 20.8361 10.8993C21.7241 11.5977 22.3112 12.7266 22.6284 13.8245C23.0181 15.1776 22.7319 17.0545 21.4978 18.9228C18.8667 22.9069 14.618 25.2341 13.7716 23.8532C13.3423 23.1528 14.7489 21.7628 14.7489 21.7628L13.8989 22.2243C13.8989 22.2243 12.4116 23.9977 12.6836 25.0784C13.1479 26.9224 18.2614 25.6723 21.9621 19.6287C25.2853 14.2039 21.6079 11.0363 20.6098 10.6108Z" fill="#A0ABB8"/>
<path d="M20.5904 10.5617C20.2118 10.4004 20.1342 10.4131 20.1342 10.4131C20.1342 10.4131 20.1677 10.4004 20.7507 10.8589C21.6387 11.5572 22.2923 12.6775 22.609 13.7759C22.9992 15.1285 22.713 17.0059 21.4784 18.8747C18.8473 22.8588 14.5991 25.1855 13.7521 23.8051C13.3229 23.1042 14.729 21.7147 14.729 21.7147L13.879 22.1757C13.879 22.1757 12.3917 23.9491 12.6642 25.0299C13.128 26.8733 18.2414 25.6232 21.9427 19.5801C25.2654 14.1542 21.5885 10.9872 20.5904 10.5617Z" fill="#A0ABB8"/>
<path d="M19.4044 20.426C19.4044 20.426 19.4627 20.4133 18.7741 20.6882C17.7253 21.1076 16.4536 21.0518 15.3428 20.7764C13.9758 20.4382 12.4926 19.2515 11.4904 17.2493C9.35356 12.9802 9.46114 8.13902 11.0804 8.09642C11.9029 8.07512 12.4038 9.98754 12.4038 9.98754L12.4291 9.02144C12.4291 9.02144 11.636 6.84682 10.5638 6.54203C8.73398 6.02171 7.26038 11.0728 10.647 17.2975C13.6871 22.8861 18.2702 21.2876 19.138 20.636C19.4668 20.3895 19.4044 20.426 19.4044 20.426Z" fill="#A0ABB8"/>
<path d="M18.8553 20.6346C17.8059 21.0535 16.5084 21.0596 15.3986 20.7842C14.0316 20.446 12.5483 19.2592 11.5456 17.2571C9.40882 12.9875 9.5164 8.1463 11.1361 8.10421C11.9582 8.08291 12.4595 9.99533 12.4595 9.99533L12.4849 9.02923C12.4849 9.02923 11.6913 6.85512 10.6191 6.55033C8.78924 6.03001 7.31565 11.0811 10.7018 17.3057C13.7423 22.8944 18.3255 21.2954 19.1927 20.6442C19.517 20.4013 19.5484 20.3263 19.5494 20.3237C19.5479 20.3273 19.5159 20.3709 18.8553 20.6346Z" fill="#A0ABB8"/>
<path d="M18.3019 8.62858C11.9392 8.46579 11.0324 13.2319 11.1633 14.3085C11.213 14.7168 11.2125 14.6448 11.2125 14.6448C11.2125 14.6448 11.1943 14.7021 11.3008 13.9688C11.4617 12.8515 12.1467 11.7784 12.9398 10.9548C13.9167 9.94106 15.6866 9.25034 17.9229 9.38422C22.6908 9.66923 26.8314 12.1836 26.0586 13.6062C25.6659 14.3278 23.7579 13.8055 23.7579 13.8055L24.5825 14.3106C24.5825 14.3106 26.8629 14.7112 27.6636 13.9353C29.0291 12.6111 25.3893 8.81065 18.3019 8.62858Z" fill="#A0ABB8"/>
<path d="M18.2701 8.67302C11.9069 8.51023 11.0011 13.2763 11.1315 14.353C11.1802 14.7551 11.2294 14.8201 11.231 14.8221C11.2294 14.8195 11.2071 14.7704 11.3091 14.0654C11.4705 12.9477 12.1139 11.8218 12.9075 10.9988C13.8843 9.98499 15.6543 9.29426 17.8906 9.42764C22.6584 9.71316 26.7991 12.2271 26.0258 13.6496C25.6335 14.3717 23.7261 13.8494 23.7261 13.8494L24.5507 14.3545C24.5507 14.3545 26.8316 14.7551 27.6318 13.9792C28.9968 12.6556 25.3575 8.85407 18.2701 8.67302Z" fill="#A0ABB8"/>
<path d="M19.6907 8.74059C19.2517 7.90736 17.9182 5.48425 16.6019 4.19612C14.667 2.30246 13.606 3.11337 13.1853 3.56676C10.7704 6.16838 12.2582 13.35 13.7881 17.6723C14.015 18.3144 14.2626 18.9437 14.5234 19.5579C14.6366 19.5122 14.8035 19.4417 14.9816 19.356C15.178 19.2607 15.3277 19.1811 15.4175 19.1319C15.3602 18.9691 15.3023 18.8053 15.246 18.6389C13.8389 14.5118 12.6855 7.68118 15.041 6.03044C15.6951 5.57148 16.4502 6.10448 17.0357 6.66284C17.5731 7.17658 18.2577 8.17361 18.5804 8.66249L19.6907 8.74059ZM17.6893 24.3438L17.1986 24.683C18.2287 26.3262 19.2441 27.6412 20.0413 28.4663C20.5051 28.9466 20.8293 28.9526 20.8293 28.9526C20.4112 28.6113 19.1213 27.0504 17.6893 24.3438ZM15.8194 21.3567C15.7139 21.4404 15.5556 21.5601 15.4764 21.6199C15.8209 22.3071 16.1777 22.9654 16.5379 23.5876L16.5973 23.5526L17.1073 23.1936C16.7932 22.5434 16.4765 21.8415 16.1655 21.0864C16.0843 21.1493 15.9351 21.2654 15.8194 21.3567Z" fill="#A0ABB8"/>
<path d="M19.1494 8.66688C19.5244 8.69122 19.7289 8.7181 19.7304 8.7181C19.2768 7.859 17.9579 5.47494 16.6564 4.201C14.721 2.30734 13.6599 3.11877 13.2393 3.57215C10.8239 6.17327 12.3122 13.3559 13.8416 17.6772C14.0689 18.3193 14.3166 18.9501 14.5774 19.5658C14.6905 19.5202 14.8575 19.4497 15.0356 19.363C15.232 19.2676 15.3817 19.188 15.472 19.1388C15.4142 18.975 15.3563 18.8102 15.2995 18.6433C13.8918 14.5162 12.7389 7.68607 15.0945 6.03482C15.7491 5.57637 16.5041 6.10886 17.0887 6.66773C17.6164 7.17132 18.2842 8.13996 18.6151 8.63898C18.6333 8.64 18.85 8.64811 19.1494 8.66688ZM17.7423 24.339C17.7093 24.3634 17.6022 24.4415 17.4612 24.5383C17.4104 24.5733 17.2912 24.6514 17.2404 24.6844C18.2766 26.3447 19.2981 27.6745 20.0983 28.5041C20.5621 28.9839 20.9209 29.0001 20.9209 29.0001C20.5017 28.6578 19.1905 27.0725 17.7423 24.339ZM15.8632 21.3591C15.7257 21.4681 15.5405 21.6111 15.5268 21.6218C15.8658 22.3003 16.2169 22.951 16.5716 23.5671C16.6036 23.5504 16.6888 23.5048 16.8715 23.3973C17.0451 23.2953 17.1374 23.235 17.1714 23.2132C16.8517 22.5544 16.5305 21.8429 16.2149 21.0781C16.1997 21.0898 16.0165 21.2363 15.8632 21.3591Z" fill="#A0ABB8"/>
<path d="M28.9088 17.7311C27.862 14.3404 20.8944 12.0374 16.3843 11.2007C15.7144 11.0764 15.0456 10.975 14.3829 10.8938C14.3657 11.0145 14.3434 11.1946 14.3286 11.3913C14.3129 11.6089 14.3078 11.7783 14.3053 11.8807C14.4748 11.9117 14.6458 11.9446 14.8183 11.9786C19.0985 12.8235 25.5932 15.241 25.8464 18.1054C25.9165 18.9016 25.0777 19.2885 24.3008 19.5157C23.5873 19.7242 22.3812 19.8175 21.7956 19.853L21.174 20.7755C22.1173 20.8125 24.8823 20.8698 26.6553 20.3743C29.263 19.6466 29.091 18.3229 28.9088 17.7311ZM3.90334 11.2164C3.25585 11.3766 3.08789 11.6545 3.08789 11.6545C3.59584 11.4629 5.60681 11.1246 8.69 11.2428L8.65092 10.6453C6.69171 10.7143 5.0263 10.9369 3.90334 11.2164ZM12.1167 10.689C11.3677 10.6448 10.637 10.624 9.93474 10.6235L9.93322 10.6808L9.96164 11.3148C10.6766 11.3675 11.4378 11.4446 12.241 11.5526C12.2329 11.4948 12.203 11.2884 12.1771 11.1094C12.1553 10.9638 12.1269 10.764 12.1167 10.689Z" fill="#A0ABB8"/>
<path d="M23.8274 11.0334C23.4067 11.6526 22.9384 12.3023 22.4177 12.9752C22.4274 12.9793 22.6451 13.0645 22.8374 13.1406C22.9987 13.2045 23.2083 13.2892 23.2342 13.2998C23.6701 12.641 24.0735 11.9863 24.4414 11.3473L24.3911 11.3169L23.8274 11.0334ZM21.142 14.5438C21.0299 14.6752 20.9167 14.807 20.8005 14.9389C17.9284 18.2206 12.5861 22.6337 9.9774 21.4206C9.25278 21.0839 9.33651 20.1645 9.52832 19.3779C9.70948 18.6364 10.2545 17.507 10.5092 16.9999L10.0271 15.9993C9.54963 16.7529 8.0735 19.1715 7.60767 20.9865C6.9343 23.6074 8.16788 24.1207 8.77123 24.2581C12.2325 25.0477 17.7118 20.1685 20.6924 16.6834C21.1349 16.1657 21.5571 15.6372 21.959 15.1042C21.8631 15.0297 21.718 14.9201 21.5546 14.8091C21.3739 14.6863 21.2298 14.5971 21.142 14.5438ZM26.9471 4.94824C26.8603 5.48074 26.152 7.37592 24.5246 9.9674L25.064 10.223C25.9713 8.5109 26.6026 6.97528 26.9197 5.87326C27.1039 5.23224 26.9471 4.94824 26.9471 4.94824Z" fill="#A0ABB8"/>
<path d="M23.8007 10.9874C23.3897 11.593 22.9335 12.2274 22.4281 12.8826C22.4631 12.8958 22.6726 12.9759 22.8467 13.0439C22.9969 13.1027 23.1983 13.1894 23.243 13.2087C23.6627 12.5738 24.0524 11.9434 24.4101 11.3267C24.3634 11.2993 24.2325 11.2222 24.1148 11.1538C23.9854 11.0787 23.8458 11.0092 23.8007 10.9874ZM26.9432 4.84546C26.856 5.37948 26.1379 7.3061 24.4938 9.92598C24.5339 9.94424 24.6511 9.99698 24.8008 10.0685C24.8567 10.0949 24.9871 10.1628 25.0419 10.1907C25.9629 8.46289 26.6053 6.91307 26.9234 5.80497C27.1082 5.16394 26.9432 4.84546 26.9432 4.84546ZM21.1209 14.4933C21.0083 14.6246 20.8946 14.7565 20.7789 14.8889C17.9068 18.1706 12.5645 22.5832 9.95576 21.3706C9.23063 21.0334 9.31487 20.1134 9.50668 19.3278C9.68479 18.5981 10.2156 17.492 10.4754 16.9737C10.4637 16.9509 10.3653 16.7602 10.2359 16.497C10.1004 16.2206 10.0106 16.0238 9.98874 15.9746C9.4945 16.7566 8.04577 19.1412 7.58501 20.936C6.91215 23.5579 8.14523 24.0706 8.74857 24.208C12.2108 24.9982 17.6901 20.1185 20.6703 16.6334C21.1128 16.1161 21.535 15.5872 21.9384 15.0542C21.842 14.9791 21.6979 14.8701 21.5355 14.7595C21.3533 14.6363 21.2087 14.546 21.1209 14.4933Z" fill="#A0ABB8"/>
<path d="M28.8757 17.7761C27.8294 14.3849 20.8618 12.0815 16.3512 11.2452C15.6824 11.1209 15.0136 11.02 14.3498 10.9384C14.3326 11.0586 14.3103 11.2391 14.2961 11.4359C14.2803 11.6534 14.2747 11.8233 14.2727 11.9258C14.4422 11.9572 14.6132 11.9892 14.7857 12.0237C19.0655 12.8691 25.5607 15.2861 25.8139 18.1504C25.8844 18.9461 25.0451 19.3331 24.2682 19.5603C23.57 19.7641 22.3993 19.8585 21.8011 19.8955L21.8021 19.897C21.8021 19.897 21.6706 20.0933 21.4961 20.3524C21.2977 20.6481 21.1744 20.8185 21.1744 20.8185L21.1703 20.8215C22.1405 20.858 24.867 20.9087 26.6227 20.4188C29.2304 19.6911 29.0584 18.367 28.8757 17.7761ZM12.0953 10.731C11.3534 10.6863 10.6293 10.664 9.93261 10.662C9.93058 10.7117 9.92702 10.8369 9.93007 11.0079C9.93362 11.2092 9.9392 11.3208 9.94123 11.3629C10.6572 11.4156 11.4184 11.4922 12.2201 11.5992C12.2181 11.5865 12.1785 11.339 12.1486 11.1351C12.1095 10.8684 12.0973 10.7502 12.0953 10.731ZM8.62748 10.6813C6.6505 10.7462 4.96936 10.9663 3.84133 11.2467C3.19384 11.408 3 11.7102 3 11.7102C3.50896 11.518 5.55545 11.1737 8.67315 11.2913C8.66909 11.2487 8.65691 11.124 8.64372 10.9571C8.63915 10.8953 8.63103 10.7441 8.62748 10.6813Z" fill="#A0ABB8"/>
</svg>
