<svg width="32" height="32" viewBox="0 0 32 32" fill="none" xmlns="http://www.w3.org/2000/svg">
<path d="M19.1706 8.86268C19.1706 8.86268 18.7518 8.40386 18.1983 8.40386C18.1983 8.40386 16.9868 8.40386 16.1641 10.994C16.1641 10.994 15.4611 13.2584 15.4611 16.6182C15.4611 16.6182 15.4611 19.7855 16.1193 22.0204C16.1193 22.0204 16.7774 24.2849 17.7347 24.2849C17.7347 24.2849 18.4077 24.2849 18.9761 23.0416C18.9761 23.0416 19.5445 21.7984 19.7838 19.7707L21.5787 19.3267C21.5787 19.3267 21.115 23.1008 19.6791 25.5429C19.6791 25.5429 18.1983 27.9998 16.3287 27.9998C16.3287 27.9998 14.085 27.9998 12.4996 24.6697C12.4996 24.6697 10.9141 21.3395 10.9141 16.6182C10.9141 16.6182 10.9141 11.8968 12.4996 8.53706C12.4996 8.53706 14.085 5.19214 16.3287 5.19214C16.3287 5.19214 18.5723 5.19214 20.1727 8.59627L19.1706 8.86268Z" fill="#A0ABB8"/>
<path d="M25.4823 13.4067C25.4823 13.4067 22.3861 15.9376 17.4502 17.1661C17.4502 17.1661 12.4992 18.3797 8.56544 17.5805C8.56544 17.5805 4.63163 16.7516 4.04829 14.3687C4.04829 14.3687 3.5547 12.3855 5.72353 10.195C5.72353 10.195 7.86244 8.01931 11.7065 6.56886L11.9608 7.5457C11.9608 7.5457 9.71716 8.49293 8.4757 9.69177C8.4757 9.69177 7.20431 10.9498 7.48851 12.0303C7.48851 12.0303 7.86244 13.4067 10.495 13.8211C10.495 13.8211 13.1125 14.2207 16.5078 13.3919C16.5078 13.3919 19.8733 12.5631 22.0271 10.9794C22.0271 10.9794 24.1511 9.38096 23.7921 7.98971C23.7921 7.98971 23.493 6.79087 21.3391 6.27285L21.01 5C21.01 5 23.8071 5.1036 25.6618 6.02124C25.6618 6.02124 27.5614 6.93887 27.9503 8.49293C27.9503 8.49293 28.5635 10.861 25.4823 13.4067Z" fill="#A0ABB8"/>
</svg>
