<svg width="32" height="32" viewBox="0 0 32 32" fill="none" xmlns="http://www.w3.org/2000/svg">
<path fill-rule="evenodd" clip-rule="evenodd" d="M3.02194 15.0747C3.09304 10.6958 7.00402 6.86104 11.2581 7.00713C13.2965 6.90964 15.2127 7.82262 16.7739 9.10502C16.1075 9.88435 15.4175 10.635 14.6804 11.3371C12.8036 10.0021 10.1345 9.62052 8.25774 11.1627C5.57295 13.074 5.4507 17.5868 8.03319 19.6442C10.5446 21.99 15.2914 20.8254 15.9853 17.2336C14.4123 17.2093 12.8351 17.2336 11.2621 17.181C11.2581 16.215 11.2542 15.2491 11.2581 14.2835C13.8878 14.2754 16.5175 14.2711 19.1512 14.2916C19.3088 16.5642 19.0171 18.9829 17.6608 20.8618C15.6067 23.8365 11.483 24.705 8.26561 23.4307C5.03673 22.1645 2.74989 18.654 3.02194 15.0747Z" fill="#A0ABB8"/>
<path fill-rule="evenodd" clip-rule="evenodd" d="M24.2811 11.8442C25.0619 11.8442 25.8423 11.8442 26.627 11.8442C26.6309 12.6519 26.6349 13.4637 26.6427 14.271C27.4274 14.2794 28.216 14.2794 29.0004 14.2875C29.0004 15.0909 29.0004 15.8986 29.0004 16.7022C28.216 16.7103 27.4313 16.7143 26.6427 16.7224C26.6349 17.5339 26.6309 18.3416 26.627 19.1492C25.8423 19.1492 25.0619 19.1492 24.2772 19.1492C24.2693 18.3416 24.2693 17.5339 24.2615 16.7265C23.4768 16.7184 22.6885 16.7103 21.9038 16.7022C21.9038 15.8986 21.9038 15.0949 21.9038 14.2875C22.6885 14.2794 23.4729 14.2754 24.2615 14.271C24.2654 13.4596 24.2733 12.6519 24.2811 11.8442Z" fill="#A0ABB8"/>
</svg>
