<svg width="32" height="32" viewBox="0 0 32 32" fill="none" xmlns="http://www.w3.org/2000/svg">
<path d="M12.6344 12.5379L13.3739 14.6667H11.8949L12.6344 12.5379Z" fill="#A0ABB8"/>
<path fill-rule="evenodd" clip-rule="evenodd" d="M3 14.253C3 8.59048 8.59639 4 15.5 4C22.4036 4 28 8.59048 28 14.253C28 19.9157 22.4036 24.5061 15.5 24.5061C14.7423 24.5061 14.0004 24.4509 13.2798 24.3448C12.5585 24.8735 8.39135 27.9187 7.99808 27.9758C7.99808 27.9758 7.83678 28.0411 7.69964 27.9571C7.5625 27.8731 7.58738 27.6527 7.58738 27.6527C7.62873 27.3595 8.66767 23.6272 8.85913 22.9402C5.33966 21.1263 3 17.914 3 14.253ZM7.51362 16.5928C7.51362 16.9879 7.84567 17.3092 8.25397 17.3092C8.66228 17.3092 8.99433 16.9879 8.99433 16.5928V12.1358H10.1495C10.55 12.1358 10.876 11.8062 10.876 11.4012C10.876 10.9962 10.5502 10.6666 10.1495 10.6666H6.35843C5.9579 10.6666 5.6319 10.9962 5.6319 11.4012C5.6319 11.8062 5.95778 12.1358 6.35843 12.1358H7.51362V16.5928ZM14.1298 16.9681C14.201 17.1724 14.4371 17.2995 14.7459 17.2995C14.9082 17.2996 15.0687 17.2643 15.2165 17.1961C15.4206 17.1009 15.6168 16.8385 15.3914 16.1292L13.6213 11.408C13.4963 11.048 13.1173 10.6778 12.6338 10.6668C12.1516 10.6779 11.7726 11.048 11.6479 11.4072L9.87695 16.1306C9.65213 16.8382 9.84832 17.1005 10.0524 17.1959C10.2001 17.2643 10.3606 17.2996 10.523 17.2995C10.8318 17.2995 11.0678 17.1726 11.1388 16.9686L11.5056 15.9955L13.7632 15.9956L14.1298 16.9681ZM15.8734 16.5121C15.8734 16.8912 16.1916 17.1998 16.5829 17.1998H18.9582C19.3495 17.1998 19.6677 16.8912 19.6677 16.5121C19.6677 16.133 19.3495 15.8244 18.9582 15.8244H17.385V11.4168C17.385 11.0031 17.0459 10.6666 16.6292 10.6666C16.2125 10.6666 15.8734 11.0031 15.8734 11.4168V16.5121ZM19.9557 16.5492C19.9557 16.963 20.2878 17.2995 20.6961 17.2995C20.8924 17.2992 21.0807 17.22 21.2195 17.0793C21.3583 16.9386 21.4364 16.7478 21.4367 16.5489V14.912L21.6936 14.6517L23.4298 16.9829C23.4986 17.0759 23.5879 17.1514 23.6906 17.2031C23.7933 17.2549 23.9065 17.2816 24.0212 17.2811C24.182 17.2815 24.3385 17.2283 24.4665 17.1297C24.5443 17.0706 24.6098 16.9964 24.6591 16.9115C24.7084 16.8265 24.7406 16.7325 24.7538 16.6349C24.7676 16.5373 24.7622 16.438 24.7378 16.3425C24.7134 16.2471 24.6705 16.1576 24.6116 16.0791L22.7893 13.6326L24.4764 11.9232C24.5924 11.8056 24.6505 11.6434 24.6398 11.4665C24.6292 11.2911 24.5518 11.1221 24.4221 10.9908C24.2831 10.8501 24.0975 10.7693 23.9126 10.7693C23.7542 10.7693 23.6082 10.8285 23.502 10.9362L21.4364 13.0293V11.4168C21.4364 11.0031 21.1044 10.6666 20.6961 10.6666C20.2878 10.6666 19.9557 11.0031 19.9557 11.4168V16.5492Z" fill="#A0ABB8"/>
</svg>
