<svg width="32" height="32" viewBox="0 0 32 32" fill="none" xmlns="http://www.w3.org/2000/svg">
<path fill-rule="evenodd" clip-rule="evenodd" d="M26.297 4H5.7721C4.81405 4 4 4.7735 4 5.727V26.2725C4 27.226 4.81405 28 5.7721 28H26.297C27.2565 28 28 27.226 28 26.2725V5.727C28 4.7735 27.2565 4 26.297 4ZM13.7007 12.6667H16.8845V14.2997C17.3434 13.3607 18.5194 12.5167 20.2861 12.5167C23.6726 12.5167 24.4764 14.3857 24.4764 17.8152V24.1667H21.0478V18.5962C21.0478 16.6432 20.5888 15.5417 19.4216 15.5417C17.8028 15.5417 17.1294 16.7292 17.1294 18.5962V24.1667H13.7007V12.6667ZM7.82313 24.1667H11.2517V12.6667H7.82313V24.1667ZM11.7415 8.91667C11.7415 10.1592 10.7546 11.1667 9.53744 11.1667C8.32028 11.1667 7.33333 10.1592 7.33333 8.91667C7.33333 7.67417 8.32028 6.66667 9.53744 6.66667C10.7546 6.66667 11.7415 7.67417 11.7415 8.91667Z" fill="#A0ABB8"/>
</svg>
