<svg width="32" height="32" viewBox="0 0 32 32" fill="none" xmlns="http://www.w3.org/2000/svg">
<path fill-rule="evenodd" clip-rule="evenodd" d="M19.6095 15.9999C19.6095 17.9903 17.9902 19.6095 16 19.6095C14.0096 19.6095 12.3904 17.9903 12.3904 15.9999C12.3904 14.0096 14.0096 12.3905 16 12.3905C17.9902 12.3905 19.6095 14.0096 19.6095 15.9999ZM16 4C9.38312 4 4 9.38314 4 15.9999C4 22.6168 9.38312 28 16 28C18.4241 28 20.7615 27.2783 22.7593 25.9128L22.794 25.8891L21.1774 24.0096L21.1499 24.0273C19.6118 25.0168 17.831 25.5397 16 25.5397C10.7397 25.5397 6.46028 21.2602 6.46028 15.9999C6.46028 10.7397 10.7397 6.46022 16 6.46022C21.2602 6.46022 25.5397 10.7397 25.5397 15.9999C25.5397 16.6816 25.4641 17.3717 25.3151 18.0507C25.0132 19.2887 24.1466 19.668 23.4954 19.6177C22.8409 19.5649 22.0748 19.0982 22.0698 17.9566V15.9999C22.0698 12.653 19.3469 9.93016 16 9.93016C12.6531 9.93016 9.93015 12.653 9.93015 15.9999C9.93015 19.3469 12.6531 22.0698 16 22.0698C17.6256 22.0698 19.1508 21.4339 20.3003 20.278C20.9687 21.3182 22.0586 21.9706 23.2983 22.0701C23.4047 22.0786 23.5133 22.083 23.6211 22.083C24.494 22.083 25.3591 21.7912 26.0567 21.2616C26.7761 20.7155 27.313 19.9255 27.6096 18.977C27.6575 18.8238 27.7442 18.4727 27.7447 18.4704L27.7472 18.4578C27.922 17.6961 28 16.9373 28 15.9999C28 9.38314 22.6168 4 16 4Z" fill="#A0ABB8"/>
</svg>
