<svg width="20" height="4" viewBox="0 0 20 4" fill="none" xmlns="http://www.w3.org/2000/svg">
<path fill-rule="evenodd" clip-rule="evenodd" d="M2 0C2.39556 0 2.78225 0.117304 3.11115 0.337067C3.44004 0.556829 3.69637 0.869167 3.84775 1.23462C3.99912 1.60007 4.03875 2.00221 3.96158 2.39017C3.88441 2.77813 3.69392 3.13451 3.41422 3.41422C3.13451 3.69392 2.77813 3.88441 2.39017 3.96158C2.00221 4.03875 1.60007 3.99912 1.23462 3.84775C0.869167 3.69637 0.556829 3.44004 0.337067 3.11115C0.117304 2.78225 0 2.39556 0 2C0 1.46957 0.210712 0.960858 0.585785 0.585785C0.960858 0.210712 1.46957 0 2 0ZM10 0C10.3956 0 10.7822 0.117304 11.1111 0.337067C11.44 0.556829 11.6964 0.869167 11.8477 1.23462C11.9991 1.60007 12.0387 2.00221 11.9616 2.39017C11.8844 2.77813 11.6939 3.13451 11.4142 3.41422C11.1345 3.69392 10.7781 3.88441 10.3902 3.96158C10.0022 4.03875 9.60007 3.99912 9.23462 3.84775C8.86917 3.69637 8.55683 3.44004 8.33707 3.11115C8.1173 2.78225 8 2.39556 8 2C8 1.46957 8.21071 0.960858 8.58578 0.585785C8.96086 0.210712 9.46957 0 10 0ZM18 0C18.3956 0 18.7822 0.117304 19.1111 0.337067C19.44 0.556829 19.6964 0.869167 19.8477 1.23462C19.9991 1.60007 20.0387 2.00221 19.9616 2.39017C19.8844 2.77813 19.6939 3.13451 19.4142 3.41422C19.1345 3.69392 18.7781 3.88441 18.3902 3.96158C18.0022 4.03875 17.6001 3.99912 17.2346 3.84775C16.8692 3.69637 16.5568 3.44004 16.3371 3.11115C16.1173 2.78225 16 2.39556 16 2C16 1.46957 16.2107 0.960858 16.5858 0.585785C16.9609 0.210712 17.4696 0 18 0Z" fill="#A0ABB8"/>
</svg>
