<svg width="32" height="32" viewBox="0 0 32 32" fill="none" xmlns="http://www.w3.org/2000/svg">
<path fill-rule="evenodd" clip-rule="evenodd" d="M17.1466 24.2662C17.0177 24.1372 16.9508 23.8709 16.885 23.6091C16.7977 23.2614 16.7123 22.9215 16.4863 22.9215C16.1211 22.9072 15.9396 23.1363 15.771 23.3491C15.657 23.493 15.5488 23.6295 15.3938 23.6779C15.2418 23.2654 15.4345 22.7228 15.572 22.3353C15.6627 22.08 15.7294 21.892 15.6579 21.853C15.5663 21.8031 15.4344 21.8536 15.2732 21.9153C15.1174 21.975 14.9341 22.0451 14.7335 22.0451C14.747 21.5709 15.2977 21.1567 15.778 20.9646C15.9246 20.867 16.0254 20.7719 16.1123 20.69L16.1123 20.69L16.1123 20.69L16.1123 20.69C16.215 20.5932 16.2981 20.5148 16.4143 20.4724C16.5704 20.4003 16.9906 20.3763 16.9906 20.3763C16.9906 20.3763 17.4588 20.2923 17.4828 20.0281C17.4978 19.8634 17.4801 19.7874 17.4559 19.6836L17.4559 19.6836L17.4559 19.6836C17.4413 19.621 17.4243 19.5483 17.4108 19.4399C17.3978 19.3361 17.5 19.0052 17.6394 18.5536L17.6394 18.5536C17.8873 17.7507 18.2531 16.5661 18.2992 15.598C18.2992 15.2027 18.1309 14.8448 17.9822 14.5284C17.8644 14.2779 17.7589 14.0535 17.7589 13.8571C17.7589 13.4129 18.2512 12.7526 18.2512 12.7526C18.2512 12.7526 18.6954 11.8162 19.7759 11.8642C19.7809 11.8644 19.7897 11.8655 19.8016 11.8669L19.8016 11.8669C19.9621 11.8863 20.6987 11.9752 20.6763 11.0478C20.6523 10.0513 19.4037 9.37898 17.891 9.37898C16.3782 9.37898 15.73 10.1113 15.7179 10.8077C15.7119 11.1581 15.8153 11.3079 15.9165 11.4544C16.0164 11.5989 16.1141 11.7403 16.1021 12.0683C16.1021 13.1848 15.1057 13.8932 13.9651 13.8571C13.3288 13.8371 12.6805 13.8211 12.6565 14.5175C12.6564 14.997 13.2886 15.3046 13.9214 15.6126C14.5404 15.9139 15.16 16.2155 15.1897 16.6785C15.173 16.9629 15.1407 17.0867 15.1145 17.1871C15.0844 17.3028 15.0623 17.3874 15.0816 17.651C15.1176 18.1432 15.4658 18.7075 15.4658 18.7075C15.4658 18.7075 15.4658 18.9356 15.0816 18.9596C14.8954 18.9713 14.7265 18.8354 14.5661 18.7063C14.3957 18.5692 14.2349 18.4398 14.0731 18.5034C14.1115 18.6491 14.1854 18.7899 14.2638 18.9396C14.4311 19.2584 14.6193 19.6171 14.5294 20.1482C14.0835 20.0386 13.8512 19.6486 13.6456 19.3033C13.5135 19.0815 13.3924 18.8782 13.2327 18.7795C12.8606 19.0076 12.9926 19.9441 12.9926 19.9441C12.9926 19.9441 12.4884 19.776 12.4884 19.3438C12.4884 19.1439 12.5115 19.0313 12.5328 18.9277C12.5575 18.8072 12.5798 18.6988 12.5604 18.4794C12.5417 18.267 12.3213 18.1423 12.1126 18.0243C11.9203 17.9154 11.7378 17.8122 11.732 17.651C11.7266 17.4999 11.7697 17.3974 11.8199 17.2779C11.8814 17.1315 11.9535 16.9598 11.9601 16.6425C11.9601 16.2718 11.7102 16.1378 11.4685 16.0083C11.2484 15.8903 11.0351 15.776 11.0237 15.4899C11.0118 15.3297 11.0674 15.19 11.1252 15.0447C11.1844 14.8961 11.2458 14.7417 11.2398 14.5535C11.2278 14.1813 10.6395 13.4709 9.28282 13.4369C8.80258 13.4249 8.04624 13.9652 8.04622 14.5175C8.04622 14.7878 8.30233 15.0266 8.56378 15.2703C8.83636 15.5243 9.11475 15.7838 9.11474 16.0902C9.11473 16.3919 8.85703 16.5086 8.60063 16.6247C8.3468 16.7397 8.09425 16.8541 8.09425 17.1467C8.09423 17.3509 8.27435 17.747 8.79058 17.747C9.13877 17.723 9.17477 17.591 9.17477 17.591C9.17477 17.591 9.70304 17.9751 9.69102 18.6115C9.68541 18.9087 9.60905 19.2427 9.52683 19.6023C9.43305 20.0124 9.33164 20.456 9.31884 20.9166C9.30762 21.3201 9.48804 21.8649 9.67843 22.4399C9.89589 23.0965 10.1264 23.7925 10.0992 24.3622C10.0752 24.8665 9.619 27.7719 7.75809 27.1836C7.75809 27.0659 7.82275 26.8816 7.90134 26.6576C8.0231 26.3107 8.17829 25.8685 8.17829 25.4308C8.13077 24.2968 7.268 23.6122 6.5171 23.0163C5.94031 22.5586 5.42953 22.1533 5.40495 21.6369C5.3871 21.262 5.86445 21.0611 6.3521 20.8559C6.84829 20.6471 7.35514 20.4338 7.36189 20.0281C7.36589 19.7881 7.24185 19.4279 6.92968 19.4279C6.71735 19.4279 6.42013 19.711 6.10738 20.0089C5.76557 20.3345 5.40521 20.6778 5.11681 20.6885C4.79264 20.7005 4.55252 20.3163 4.56454 19.68C4.5721 19.2798 4.40873 18.8512 4.28344 18.5225C4.20948 18.3285 4.14879 18.1692 4.14434 18.0712C4.13838 17.9401 4.1916 17.7468 4.24818 17.5414C4.30556 17.333 4.3664 17.112 4.37245 16.9306C4.37957 16.717 4.24305 16.1738 4.1333 15.7371L4.1333 15.7371L4.1333 15.7371C4.05804 15.4377 3.99538 15.1884 4.00027 15.1298L4.00074 15.1241C4.01357 14.9688 4.06772 14.3138 4.64858 14.3494C4.99592 14.3707 5.34744 14.484 5.61666 14.5708L5.61667 14.5708C5.80342 14.631 5.95057 14.6785 6.02925 14.6735C6.22134 14.6615 6.72559 14.6255 6.72559 13.8571C6.72559 13.66 6.67803 13.5342 6.63172 13.4117C6.58495 13.288 6.53947 13.1677 6.5455 12.9807C6.55065 12.8209 6.65097 12.5859 6.76758 12.3127C6.92258 11.9495 7.10638 11.5189 7.13378 11.1078C7.16399 10.6548 6.7146 10.4392 6.36794 10.2729C6.16338 10.1747 5.99459 10.0938 5.98123 9.99128C5.96922 9.6191 6.18532 8.98279 7.02573 9.04282C7.46012 9.07385 7.95545 9.31015 8.41887 9.53124C8.85204 9.7379 9.25734 9.93125 9.55896 9.93125C9.92168 9.20581 9.33506 8.58535 8.82906 8.05016C8.5144 7.71734 8.23092 7.4175 8.22631 7.1459C8.21431 6.9298 8.59849 6.44957 9.27082 6.70169L9.32619 6.73318C9.70251 6.94663 9.84102 7.02519 10.7235 8.27445C10.7399 8.28757 10.7635 8.313 10.7937 8.34567C10.9851 8.55223 11.4446 9.04816 12.0562 8.55058C12.0871 8.51234 12.1164 8.47908 12.1435 8.44831C12.2951 8.27621 12.3778 8.18233 12.2963 7.73419C12.2509 7.48464 11.8519 6.99665 11.47 6.52967C11.0436 6.00811 10.6385 5.51275 10.7715 5.40506C11.0117 5.17695 11.624 4.98486 11.792 4.97285L11.8203 4.97072C11.9866 4.95784 12.218 4.93993 12.5244 5.20096C12.7101 5.33601 12.9047 5.62979 13.1149 5.94724C13.5029 6.53288 13.9441 7.19909 14.4813 7.09788C14.6974 6.17343 14.5894 5.44108 14.2652 4.6487C14.1065 4.26057 14.6374 3.98838 14.9135 4.00038C15.1897 4.01239 15.4207 4.13245 15.6459 4.51663C15.798 4.77611 15.8951 5.14894 15.9894 5.51089C16.1481 6.12029 16.2987 6.69886 16.6904 6.65367C16.9173 6.62748 17.3987 6.56963 17.0026 4.02439C17.5068 3.95862 20.8084 4.15646 21.1566 5.14093C21.3309 5.56662 21.284 6.05585 21.2423 6.49068C21.1864 7.07374 21.1399 7.559 21.6488 7.66215C22.0809 7.73931 22.9612 6.5649 23.2655 6.15887L23.2655 6.15886L23.2816 6.13742C23.3264 6.1654 23.3901 6.211 23.4648 6.26448C23.7106 6.44043 24.0755 6.70169 24.2781 6.70169C24.3502 6.70169 24.4385 6.68914 24.5341 6.67556C24.7885 6.63942 25.0946 6.59592 25.2866 6.76172C25.3241 6.84304 25.3062 6.93088 25.2822 7.04902C25.2601 7.15761 25.2328 7.2918 25.2386 7.47006C25.2441 7.64283 25.3972 7.79231 25.5595 7.95093C25.747 8.13402 25.9469 8.32929 25.9469 8.5866C25.9342 8.91677 25.6092 9.17643 25.3058 9.41884C25.0355 9.63479 24.7823 9.83706 24.7823 10.0633C24.7823 10.3755 24.9624 10.7957 25.5027 10.7717C25.7438 10.7609 25.8678 10.688 25.9994 10.6106C26.1627 10.5145 26.3379 10.4115 26.7633 10.4115C27.4116 10.3995 27.9519 11.1198 27.9519 12.6085C27.9109 12.6034 27.842 12.5881 27.7539 12.5685C27.2228 12.4504 25.9949 12.1774 25.9949 13.0528C25.9769 13.436 26.4696 13.6519 26.9919 13.8809C27.5168 14.111 28.0717 14.3543 28.168 14.7936C28.1875 15.1516 28.0835 15.4426 27.9823 15.7258C27.8968 15.9649 27.8133 16.1986 27.8078 16.4624C27.8012 16.777 28.0021 16.9985 28.186 17.2012C28.3389 17.3699 28.4801 17.5256 28.4801 17.711C28.4801 17.9798 28.3344 18.285 28.204 18.5581L28.204 18.5581L28.204 18.5581C28.1363 18.6998 28.0728 18.8328 28.0359 18.9476C28.0199 18.9975 28.0022 19.1048 27.9778 19.2536C27.8376 20.1071 27.4733 22.325 25.8989 22.8975C25.7516 22.9319 25.6264 22.9181 25.5109 22.9053C25.3441 22.8869 25.1977 22.8708 25.0344 23.0056C24.8647 23.1458 24.9172 23.4493 24.9662 23.7321C24.9969 23.9094 25.0262 24.0785 24.9984 24.1942C24.9264 24.4943 22.4412 26.5113 21.1806 26.9195C21.057 26.9356 20.9286 26.8868 20.7964 26.8365C20.6333 26.7745 20.4646 26.7103 20.2921 26.7634C20.0752 26.8301 19.8873 27.0881 19.7244 27.3119C19.6528 27.4102 19.5861 27.5018 19.5238 27.5678C19.3197 27.7839 18.0351 28 17.5788 28C17.1226 28 16.4263 27.916 16.4983 27.3757C17.0386 27.1716 17.807 26.8354 18.8154 26.1391C18.8925 26.1102 19.0448 26.1199 19.2198 26.1311C19.4812 26.1478 19.793 26.1677 19.98 26.0671C20.1333 25.9845 20.1881 25.8759 20.2569 25.7399C20.3281 25.5988 20.4142 25.4283 20.6403 25.2267C20.7813 25.101 21.0712 24.9184 21.4093 24.7056C22.1369 24.2476 23.0878 23.6491 23.2576 23.1737C23.2706 23.1372 23.2853 23.1019 23.3004 23.0657C23.3548 22.9352 23.4137 22.7938 23.4137 22.5494C23.4137 22.4512 23.3947 22.3377 23.3746 22.2177C23.3309 21.9559 23.2819 21.6633 23.4137 21.4328C23.5395 21.2127 23.9484 21.0492 24.2663 20.9221L24.2663 20.9221C24.4338 20.8551 24.5761 20.7982 24.6383 20.7485C24.8184 20.6044 25.7548 19.6439 25.7188 17.759L25.7189 17.7046C25.7204 17.1164 25.724 15.7361 24.3981 15.55C23.9779 15.526 23.1616 15.61 22.8014 16.7265C22.7461 16.9556 22.7271 17.2237 22.7087 17.485C22.6711 18.018 22.6355 18.5228 22.2971 18.6115C21.9979 18.6898 21.703 18.1469 21.3471 17.4917L21.3471 17.4917C21.1031 17.0427 20.8305 16.5409 20.5083 16.1503C20.4882 16.1503 20.4762 16.1463 20.4642 16.1423C20.4402 16.1343 20.4162 16.1262 20.3282 16.1503C20.1961 16.8826 20.6884 18.6475 20.8804 19.1877C20.911 19.2738 20.9432 19.3595 20.9749 19.4443C21.1425 19.8917 21.2998 20.3117 21.1686 20.6044C19.8881 20.2578 19.2562 20.6987 18.9508 20.9117C18.8754 20.9644 18.8199 21.0031 18.7794 21.0126C18.5753 21.0607 17.963 21.4328 17.963 21.4328C17.963 21.4328 18.0471 21.7089 17.927 21.9371C17.9004 22.0242 17.8378 22.0999 17.7646 22.1883C17.6472 22.3302 17.5025 22.5051 17.4348 22.8135C17.3353 23.2665 17.4348 24.0861 17.4348 24.0861C17.4348 24.0861 17.4348 24.2782 17.1466 24.2662ZM7.25386 17.735C7.25386 18.2257 6.82133 18.6475 6.3174 18.6475C5.81347 18.6475 5.42897 18.2257 5.42897 17.735C5.42897 17.2444 5.84918 16.9787 6.16133 16.7986C6.90569 16.8466 7.25386 17.2444 7.25386 17.735ZM11.4439 13.1368C11.7423 13.1368 11.744 12.6539 11.744 12.4285C11.696 12.1643 11.5639 11.552 11.0597 11.384C10.8436 11.6961 10.6395 12.203 10.6395 12.4285C10.6395 12.7766 11.1455 13.1368 11.4439 13.1368ZM24.704 13.8839L24.704 13.884C24.7568 14.1383 24.7854 14.2757 24.7343 14.7456C24.2301 14.7696 24.05 14.7696 23.6898 14.7696C23.0864 14.7696 22.6213 14.47 22.6213 13.8932C22.6213 13.2826 22.8922 12.8502 23.2302 12.3108C23.3308 12.1502 23.4374 11.9801 23.5445 11.7929C24.2769 12.5973 24.5422 13.0528 24.6743 13.7371C24.6847 13.7912 24.6947 13.8393 24.704 13.8839ZM19.5358 19.74C19.7999 19.5119 19.932 19.2718 19.932 18.9236C19.932 18.7377 19.7879 18.1552 19.6559 17.651C19.6093 17.3383 19.5806 17.0205 19.5536 16.7226C19.5022 16.1543 19.4573 15.658 19.3077 15.4059C18.8755 16.4864 18.7794 18.8915 18.7794 19.1037C18.7794 19.5359 19.2242 19.74 19.5358 19.74Z" fill="#A0ABB8"/>
</svg>
