<svg width="32" height="32" viewBox="0 0 32 32" fill="none" xmlns="http://www.w3.org/2000/svg">
<path d="M17.5566 4.09987C17.0474 4.03398 16.5282 4 16.0011 4C9.3731 4 4 9.37258 4 16.0001C4 21.0836 7.16122 25.4289 11.6252 27.1776C11.5204 26.2281 11.4256 24.7684 11.6669 23.7321C11.885 22.7955 13.0741 17.7672 13.0741 17.7672C13.0741 17.7672 12.7152 17.0484 12.7152 15.9856C12.7152 14.317 13.6824 13.0712 14.8867 13.0712C15.9106 13.0712 16.4052 13.8399 16.4052 14.7616C16.4052 15.4187 16.1382 16.2834 15.857 17.1939C15.6976 17.7101 15.5337 18.241 15.4113 18.7571C15.1285 19.9515 16.0103 20.9255 17.1884 20.9255C19.3214 20.9255 20.9611 18.6767 20.9611 15.4304C20.9611 12.5572 18.8964 10.5483 15.9481 10.5483C12.5334 10.5483 10.5291 13.1093 10.5291 15.756C10.5291 16.7874 10.9264 17.8933 11.4222 18.4946C11.5203 18.6134 11.5347 18.7175 11.5054 18.8388C11.4541 19.0525 11.3673 19.4048 11.2943 19.7014C11.2378 19.9308 11.1895 20.1269 11.1721 20.1997C11.1198 20.4193 10.9982 20.466 10.7708 20.3601C9.2719 19.6625 8.33477 17.4712 8.33477 15.7112C8.33477 11.9258 11.0854 8.4494 16.2644 8.4494C20.4276 8.4494 23.6629 11.4158 23.6629 15.3801C23.6629 19.5158 21.055 22.8442 17.4354 22.8442C16.2192 22.8442 15.076 22.2125 14.6847 21.4663C14.6847 21.4663 14.0829 23.7575 13.937 24.319C13.6661 25.3613 12.9347 26.6678 12.4454 27.4649C12.5113 27.4853 12.5774 27.5051 12.6437 27.5244C13.7084 27.8339 14.8342 28 15.9988 28C22.6269 28 28 22.6273 28 15.9999C28 9.90026 23.4487 4.86352 17.5566 4.09987Z" fill="#A0ABB8"/>
</svg>
