<svg width="32" height="32" viewBox="0 0 32 32" fill="none" xmlns="http://www.w3.org/2000/svg">
<path d="M16.0006 28.7013C13.7218 28.7013 11.63 27.9434 10.2832 26.8112C9.59923 27.0143 8.7243 27.341 8.17233 27.7464C7.69979 28.093 7.75867 28.4464 7.84385 28.589C8.21768 29.216 14.257 28.9894 16.0006 28.7942V28.7013Z" fill="#A0ABB8"/>
<path d="M15.9995 28.7013C18.2785 28.7013 20.3702 27.9434 21.7171 26.8112C22.4009 27.0143 23.2758 27.341 23.828 27.7464C24.3003 28.093 24.2414 28.4464 24.1563 28.589C23.7824 29.216 17.7431 28.9894 15.9995 28.7942V28.7013Z" fill="#A0ABB8"/>
<path fill-rule="evenodd" clip-rule="evenodd" d="M7.81143 13.9161C7.81143 13.9161 7.91742 14.0271 8.1116 14.0809C9.05518 14.3419 12.128 15.1018 15.9865 15.128H16.0143C19.7776 15.1026 22.7935 14.3787 23.8155 14.1011C24.059 14.0348 24.1893 13.9161 24.1893 13.9161C24.1903 13.882 24.2049 13.3073 24.2049 13.0107C24.2049 8.01767 21.8331 3.00025 16.0003 3C10.1676 3.00025 7.7959 8.01767 7.7959 13.0107C7.7959 13.3073 7.81043 13.882 7.81143 13.9161ZM16.0003 3.48765C18.756 3.48778 20.6609 4.66267 21.8939 6.41471C23.1415 8.18744 23.7198 10.582 23.7198 13.0107C23.7198 13.1746 23.7152 13.4287 23.711 13.6239C23.7039 13.6261 23.6965 13.6283 23.689 13.6303C22.6906 13.9015 19.7192 14.6151 16.0127 14.6403H15.9881C12.2532 14.6148 9.26491 13.8908 8.28977 13.6243C8.28559 13.4291 8.28097 13.1747 8.28097 13.0107C8.28097 10.582 8.85926 8.18743 10.1068 6.4147C11.3398 4.66267 13.2447 3.48778 16.0002 3.48765" fill="#A0ABB8"/>
<path fill-rule="evenodd" clip-rule="evenodd" d="M24.868 22.3513C25.4143 23.1603 26.3202 24.3985 26.7178 24.3508C26.9921 24.3176 27.3527 22.8453 26.2402 19.2875C26.007 18.5415 25.6885 17.6715 25.366 16.8358C25.366 16.8358 25.1806 16.8132 25.0867 16.8401C22.1933 17.6755 18.6863 18.2078 16.0139 18.1757H15.9861C13.3285 18.2073 9.84529 17.6812 6.96167 16.854C6.85143 16.8224 6.63395 16.8358 6.63395 16.8358C6.31149 17.6715 5.99304 18.5415 5.75977 19.2875C4.64732 22.8453 5.00786 24.3176 5.28222 24.3508C5.67984 24.3985 6.58571 23.1603 7.13204 22.3513C7.39471 21.9623 7.57428 21.6725 7.57428 21.6725C7.57428 21.927 7.59535 22.1939 7.63804 22.4689C8.06389 25.2121 10.6414 28.7585 15.923 28.7942C15.9488 28.794 16.0512 28.794 16.077 28.7942C21.3586 28.7585 23.9361 25.2121 24.362 22.4689C24.4047 22.1939 24.4257 21.927 24.4257 21.6725C24.4257 21.6725 24.6053 21.9623 24.868 22.3513ZM24.8375 21.4146L24.8417 21.4214L24.8553 21.4432C24.8674 21.4625 24.8854 21.4912 24.9087 21.5277C24.9553 21.601 25.0227 21.7059 25.1056 21.8318C25.2717 22.0842 25.4979 22.418 25.7409 22.748C25.9861 23.0812 26.2384 23.3967 26.457 23.6201C26.4698 23.6331 26.4822 23.6456 26.4943 23.6576C26.5091 23.5255 26.5178 23.3575 26.5141 23.1497C26.5005 22.3932 26.3246 21.1836 25.7775 19.4338C25.5805 18.8038 25.3201 18.0792 25.0464 17.3585C22.1513 18.1757 18.6844 18.6951 16.011 18.6634H15.9889C13.3153 18.6948 9.84814 18.1755 6.95359 17.3585C6.6799 18.0792 6.41948 18.8038 6.22252 19.4338C5.67538 21.1836 5.49948 22.3932 5.48593 23.1497C5.48221 23.3575 5.49086 23.5255 5.50568 23.6576C5.5178 23.6456 5.53024 23.6331 5.54297 23.6201C5.76162 23.3967 6.01389 23.0812 6.25914 22.748C6.50207 22.418 6.7283 22.0842 6.8944 21.8318C6.97725 21.7059 7.0447 21.601 7.09128 21.5277C7.11455 21.4912 7.13259 21.4625 7.1447 21.4432L7.15833 21.4214L7.16241 21.4149L8.05935 19.9672V21.6725C8.05935 24.2134 10.3966 28.2674 15.9227 28.3066C15.9551 28.3063 16.0449 28.3063 16.0773 28.3066C21.6034 28.2674 23.9407 24.2134 23.9407 21.6725V19.9672L24.8375 21.4146ZM5.23634 23.8753C5.23638 23.8752 5.23816 23.8744 5.24158 23.8732C5.23802 23.8749 5.23631 23.8755 5.23634 23.8753ZM26.7637 23.8753C26.7637 23.8755 26.762 23.8749 26.7584 23.8732C26.7618 23.8744 26.7636 23.8752 26.7637 23.8753Z" fill="#A0ABB8"/>
<path d="M20.991 11.985C20.7795 11.5197 18.6501 11.001 16.0138 11.001H15.9854C13.3491 11.001 11.2197 11.5197 11.0082 11.985C10.9987 12.0052 10.9927 12.0276 10.9927 12.0513C10.9927 12.0849 11.0042 12.115 11.0217 12.1409C11.2001 12.3989 13.5646 13.6745 15.9854 13.6745H16.0138C18.4346 13.6745 20.7991 12.3991 20.9772 12.1409C20.995 12.1153 21.0063 12.0846 21.0063 12.051C21.0063 12.0274 21.0005 12.0052 20.991 11.985Z" fill="#A0ABB8"/>
<path fill-rule="evenodd" clip-rule="evenodd" d="M12.4142 8.37653C12.4568 9.51522 13.1328 10.4111 13.9241 10.3755C14.7148 10.3404 15.3212 9.38798 15.2778 8.24854C15.235 7.10935 14.5592 6.21394 13.7687 6.24905C12.9775 6.28465 12.3714 7.23709 12.4142 8.37653ZM14.344 9.28666C14.6857 9.24308 14.934 8.84343 14.8979 8.39348C14.8621 7.94353 14.5552 7.61386 14.2122 7.65793C13.8712 7.70125 13.6231 8.10091 13.659 8.5511C13.6953 9.0013 14.0017 9.33048 14.344 9.28666Z" fill="#A0ABB8"/>
<path fill-rule="evenodd" clip-rule="evenodd" d="M18.0761 10.3755C18.8674 10.4111 19.5434 9.51522 19.5857 8.37653C19.6288 7.23709 19.0227 6.28465 18.2315 6.24905C17.441 6.21394 16.7652 7.10935 16.7224 8.24854C16.6791 9.38798 17.2854 10.3402 18.0761 10.3755ZM18.6028 8.00273C17.6169 7.76443 17.1406 8.41906 17.0707 8.54356C17.0271 8.62175 17.0574 8.73405 17.1313 8.78957C17.205 8.84485 17.2829 8.82892 17.3265 8.78235C17.9174 8.14841 18.5554 8.50335 18.6822 8.5739C18.6912 8.57889 18.6976 8.58245 18.7013 8.58415C18.787 8.62399 18.9418 8.62947 19.0167 8.42603C19.0546 8.32344 19.0443 8.24725 19.007 8.19371C18.9817 8.15761 18.8619 8.06548 18.6028 8.00273Z" fill="#A0ABB8"/>
<path d="M16.0141 17.4006H15.9843C14.0327 17.4209 11.6666 17.1998 9.37503 16.8135C9.17891 17.7849 9.06054 19.0059 9.16223 20.462C9.41916 24.1424 11.9749 26.4558 15.9197 26.4894H16.0801C20.0251 26.4558 22.5806 24.1424 22.8378 20.462C22.9395 19.0056 22.8209 17.7849 22.6247 16.8132C20.3329 17.1998 17.9662 17.4209 16.0141 17.4006Z" fill="#A0ABB8"/>
<path d="M10.8369 17.6786V21.5984C10.8369 21.5984 12.6437 21.9605 14.4539 21.7097V18.0942C13.3071 18.0297 12.0704 17.886 10.8369 17.6786Z" fill="#A0ABB8"/>
<path d="M24.1893 13.9159C24.1893 13.9159 20.6748 15.0185 16.0142 15.0499H15.9864C11.3334 15.0187 7.8234 13.9196 7.81138 13.9159L6.63428 16.8357C9.57853 17.7179 13.2273 18.2864 15.9864 18.2533H16.0142C18.7733 18.2864 22.4219 17.7179 25.3664 16.8357L24.1893 13.9159Z" fill="#A0ABB8"/>
</svg>
