<svg width="32" height="32" viewBox="0 0 32 32" fill="none" xmlns="http://www.w3.org/2000/svg">
<path fill-rule="evenodd" clip-rule="evenodd" d="M28 16C28 22.6274 22.6274 28 16 28C9.37258 28 4 22.6274 4 16C4 9.37258 9.37258 4 16 4C22.6274 4 28 9.37258 28 16ZM23.688 15.0586C23.882 15.3354 23.9918 15.6624 24.0041 16.0001C24.0092 16.3308 23.9207 16.6561 23.7486 16.9386C23.5766 17.221 23.3282 17.449 23.0321 17.5961C23.0456 17.7719 23.0456 17.9484 23.0321 18.1241C23.0321 20.8121 19.9001 22.9961 16.0361 22.9961C12.1721 22.9961 9.0401 20.8121 9.0401 18.1241C9.02659 17.9484 9.02659 17.7719 9.0401 17.5961C8.80929 17.4901 8.6043 17.3351 8.43933 17.142C8.27437 16.9489 8.15337 16.7222 8.08472 16.4776C8.01608 16.2331 8.00143 15.9765 8.04179 15.7257C8.08215 15.475 8.17656 15.236 8.31847 15.0253C8.46038 14.8146 8.6464 14.6373 8.86364 14.5057C9.08088 14.3741 9.32414 14.2913 9.57657 14.263C9.82899 14.2347 10.0845 14.2617 10.3255 14.342C10.5665 14.4223 10.7871 14.5541 10.9721 14.7281C12.3548 13.7904 13.9816 13.2773 15.6521 13.2521L16.5401 9.08814C16.5501 9.03994 16.5695 8.99419 16.5973 8.95356C16.6251 8.91292 16.6607 8.8782 16.7019 8.85141C16.7432 8.82462 16.7895 8.8063 16.8379 8.7975C16.8863 8.7887 16.936 8.7896 16.9841 8.80015L19.9241 9.38814C20.0677 9.14147 20.2945 8.95405 20.5638 8.85952C20.8331 8.76499 21.1273 8.76955 21.3935 8.87237C21.6598 8.97519 21.8807 9.16955 22.0165 9.42055C22.1524 9.67155 22.1944 9.96277 22.1349 10.2419C22.0754 10.5211 21.9183 10.7699 21.6919 10.9437C21.4655 11.1175 21.1846 11.2049 20.8996 11.1902C20.6145 11.1755 20.344 11.0598 20.1367 10.8636C19.9293 10.6675 19.7986 10.4039 19.7681 10.1201L17.2001 9.58014L16.4201 13.3241C18.0703 13.3595 19.675 13.8722 21.0401 14.8001C21.284 14.5661 21.5903 14.4076 21.9222 14.3437C22.2541 14.2799 22.5974 14.3134 22.9107 14.4402C23.224 14.567 23.494 14.7818 23.688 15.0586ZM12.2063 16.5335C12.0745 16.7308 12.0041 16.9628 12.0041 17.2001C12.0041 17.3577 12.0351 17.5138 12.0954 17.6594C12.1558 17.805 12.2441 17.9372 12.3556 18.0487C12.467 18.1601 12.5993 18.2485 12.7449 18.3088C12.8905 18.3691 13.0465 18.4001 13.2041 18.4001C13.4414 18.4001 13.6734 18.3298 13.8708 18.1979C14.0681 18.0661 14.2219 17.8786 14.3128 17.6594C14.4036 17.4401 14.4273 17.1988 14.381 16.966C14.3347 16.7333 14.2205 16.5194 14.0526 16.3516C13.8848 16.1838 13.671 16.0695 13.4382 16.0232C13.2054 15.9769 12.9642 16.0007 12.7449 16.0915C12.5256 16.1823 12.3382 16.3361 12.2063 16.5335ZM16.0121 21.4241C17.0772 21.4683 18.1247 21.1417 18.9761 20.5001V20.5481C19.0076 20.5174 19.0328 20.4808 19.0501 20.4403C19.0675 20.3999 19.0767 20.3564 19.0773 20.3124C19.0778 20.2684 19.0697 20.2247 19.0534 20.1838C19.0371 20.1429 19.0128 20.1057 18.9821 20.0741C18.9514 20.0426 18.9147 20.0175 18.8743 20.0001C18.8338 19.9828 18.7904 19.9735 18.7463 19.973C18.6575 19.9719 18.5718 20.0061 18.5081 20.0681C17.7798 20.5906 16.8951 20.8488 16.0001 20.8001C15.1062 20.8401 14.2256 20.5733 13.5041 20.0441C13.4419 19.9931 13.363 19.967 13.2827 19.971C13.2023 19.9749 13.1263 20.0086 13.0694 20.0655C13.0126 20.1224 12.9789 20.1984 12.9749 20.2787C12.971 20.359 12.9971 20.438 13.0481 20.5001C13.8995 21.1417 14.947 21.4683 16.0121 21.4241ZM18.0934 18.2459C18.2908 18.3778 18.5228 18.4481 18.7601 18.4481L18.7481 18.4961C18.9108 18.4979 19.0722 18.4665 19.2224 18.404C19.3726 18.3414 19.5086 18.249 19.6219 18.1322C19.7353 18.0155 19.8237 17.8769 19.8819 17.7249C19.94 17.573 19.9666 17.4107 19.9601 17.2481C19.9601 17.0108 19.8897 16.7788 19.7579 16.5815C19.626 16.3841 19.4386 16.2303 19.2193 16.1395C19 16.0487 18.7588 16.0249 18.526 16.0712C18.2932 16.1175 18.0794 16.2318 17.9116 16.3996C17.7438 16.5674 17.6295 16.7813 17.5832 17.014C17.5369 17.2468 17.5606 17.4881 17.6514 17.7074C17.7423 17.9266 17.8961 18.1141 18.0934 18.2459Z" fill="#A0ABB8"/>
</svg>
