<svg width="32" height="32" viewBox="0 0 32 32" fill="none" xmlns="http://www.w3.org/2000/svg">
<path fill-rule="evenodd" clip-rule="evenodd" d="M15.9792 4C9.66472 4 4.49159 8.86052 4 15.0375L10.4428 17.6967C10.9887 17.3241 11.6482 17.1062 12.3578 17.1062C12.4213 17.1062 12.4846 17.1078 12.5473 17.1115L15.4127 12.9656C15.4127 12.9459 15.4122 12.9267 15.4122 12.9069C15.4122 10.4117 17.4458 8.38136 19.9456 8.38136C22.4452 8.38136 24.479 10.4117 24.479 12.9069C24.479 15.4024 22.4452 17.4327 19.9456 17.4327C19.9111 17.4327 19.8771 17.4319 19.8428 17.4312L15.7564 20.3419C15.7586 20.395 15.7604 20.449 15.7604 20.5027C15.7604 22.3759 14.234 23.8997 12.3578 23.8997C10.7106 23.8997 9.33366 22.7258 9.02157 21.1718L4.41383 19.2702C5.84062 24.3072 10.4763 28 15.9792 28C22.6181 28 28 22.6272 28 16C28 9.37257 22.6181 4 15.9792 4Z" fill="#A0ABB8"/>
<path fill-rule="evenodd" clip-rule="evenodd" d="M11.5328 22.2082L10.0562 21.5993C10.3179 22.1432 10.7707 22.5984 11.3717 22.8486C12.6709 23.3891 14.1691 22.7734 14.7108 21.4756C14.9728 20.8473 14.9747 20.1545 14.7148 19.5251C14.4551 18.8954 13.9651 18.4044 13.3357 18.1423C12.711 17.8829 12.0417 17.8926 11.4537 18.1139L12.9791 18.7436C13.9375 19.1425 14.3906 20.241 13.9912 21.1978C13.5922 22.1545 12.4912 22.6071 11.5328 22.2082Z" fill="#A0ABB8"/>
<path fill-rule="evenodd" clip-rule="evenodd" d="M17.6813 12.9018C17.6813 11.6506 18.6974 10.6368 19.9505 10.6368C21.2039 10.6368 22.2197 11.6506 22.2197 12.9018C22.2197 14.153 21.2039 15.1668 19.9505 15.1668C18.6974 15.1668 17.6813 14.153 17.6813 12.9018ZM22.9662 12.9071C22.9662 11.2444 21.6111 9.89136 19.9455 9.89136C18.2799 9.89136 16.9248 11.2444 16.9248 12.9071C16.9248 14.5698 18.2799 15.9223 19.9455 15.9223C21.6111 15.9223 22.9662 14.5698 22.9662 12.9071Z" fill="#A0ABB8"/>
</svg>
