<svg width="32" height="32" viewBox="0 0 32 32" fill="none" xmlns="http://www.w3.org/2000/svg">
<path fill-rule="evenodd" clip-rule="evenodd" d="M26.0547 8.32361C27.1256 7.66122 27.9269 6.61903 28.3094 5.39128C27.3024 6.00903 26.2005 6.44428 25.0516 6.67821C24.2794 5.82583 23.2565 5.26075 22.1417 5.0707C21.027 4.88065 19.8827 5.07626 18.8865 5.62717C17.8903 6.17807 17.098 7.05345 16.6326 8.11738C16.1671 9.18132 16.0546 10.3743 16.3125 11.5111C14.2733 11.4053 12.2785 10.8575 10.4575 9.90332C8.63646 8.94916 7.02993 7.60994 5.74219 5.97258C5.08409 7.13897 4.88176 8.52101 5.17651 9.83639C5.47127 11.1518 6.24088 12.3012 7.32813 13.0499C6.51364 13.0239 5.717 12.7969 5.00469 12.3879V12.4541C5.00492 13.6779 5.41467 14.8641 6.16448 15.8114C6.91429 16.7587 7.95803 17.409 9.11875 17.6519C8.36312 17.8642 7.57053 17.8951 6.80156 17.7423C7.12916 18.7957 7.76724 19.7169 8.62651 20.3771C9.48578 21.0372 10.5232 21.4032 11.5938 21.4239C10.5299 22.2879 9.31152 22.9265 8.00849 23.3034C6.70546 23.6802 5.34331 23.7878 4 23.6199C6.34535 25.1769 9.0749 26.0032 11.8625 26C21.2969 26 26.4562 17.9231 26.4562 10.9185C26.4562 10.6892 26.45 10.4599 26.4406 10.2338C27.4449 9.48331 28.3115 8.55375 29 7.4888C28.0641 7.91744 27.0713 8.19883 26.0547 8.32361Z" fill="#A0ABB8"/>
</svg>
