<svg width="32" height="32" viewBox="0 0 32 32" fill="none" xmlns="http://www.w3.org/2000/svg">
<path fill-rule="evenodd" clip-rule="evenodd" d="M28 23.2C28 25.851 25.851 28 23.2 28H8.8C6.15036 28 4 25.851 4 23.2V8.80017C4 6.14904 6.15036 4 8.8 4H23.2C25.851 4 28 6.14904 28 8.80017V23.2ZM23.5388 12.0009C23.6693 11.2642 23.6664 10.5068 23.2141 9.93396C22.5831 9.13066 21.2399 9.10122 20.3196 9.24285C19.571 9.3581 17.0389 10.4816 16.1773 13.1717C17.7039 13.0551 18.5038 13.2824 18.357 14.9728C18.2953 15.6802 17.9402 16.4551 17.5438 17.1979C17.0858 18.0542 16.2271 19.7359 15.1013 18.5237C14.0869 17.4326 14.1632 15.3464 13.9313 13.9572C13.8023 13.1776 13.6656 12.2062 13.4117 11.4044C13.193 10.7149 12.691 9.88373 12.0775 9.70359C11.4184 9.50866 10.6036 9.81285 10.1251 10.0964C8.60148 10.9969 7.44032 12.2784 6.12227 13.3355V13.4345C6.38349 13.6855 6.45396 14.0974 6.83852 14.1535C7.74566 14.2879 8.61036 13.303 9.21355 14.3276C9.58048 14.9537 9.69507 15.6402 9.92994 16.315C10.244 17.2141 10.4862 18.193 10.7432 19.2264C11.1777 20.9775 11.7119 23.5937 13.2166 24.2343C13.9841 24.5623 15.1381 24.1237 15.7221 23.7753C17.3046 22.8333 18.5376 21.4676 19.5931 20.0783C22.0062 16.7904 23.3376 13.0654 23.5388 12.0009Z" fill="#A0ABB8"/>
</svg>
