<svg width="32" height="32" viewBox="0 0 32 32" fill="none" xmlns="http://www.w3.org/2000/svg">
<path fill-rule="evenodd" clip-rule="evenodd" d="M28.4034 9.08342C28.5841 8.4589 28.4034 8 27.5432 8H24.6988C23.9756 8 23.6421 8.39642 23.4613 8.83356C23.4613 8.83356 22.0148 12.4869 19.9657 14.86C19.3027 15.547 19.0014 15.7656 18.6397 15.7656C18.459 15.7656 18.1877 15.547 18.1877 14.9225V9.08342C18.1877 8.334 17.9873 8 17.3846 8H12.9148C12.4628 8 12.191 8.34782 12.191 8.67747C12.191 9.3879 13.2155 9.55174 13.3212 11.5502V15.8905C13.3212 16.8421 13.1553 17.0146 12.7937 17.0146C11.8294 17.0146 9.48383 13.3449 8.09268 9.14584C7.82004 8.32968 7.5466 8 6.81965 8H3.97524C3.16255 8 3 8.39642 3 8.83356C3 9.61421 3.96432 13.4862 7.49003 18.6071C9.84048 22.1043 13.1521 24 16.1656 24C17.9736 24 18.1973 23.5789 18.1973 22.8537V20.2105C18.1973 19.3684 18.3686 19.2004 18.9411 19.2004C19.363 19.2004 20.0862 19.4189 21.7738 21.1051C23.7024 23.1035 24.0203 24 25.1051 24H27.9495C28.7622 24 29.1686 23.5789 28.9342 22.748C28.6777 21.9199 27.7569 20.7183 26.535 19.294C25.872 18.4822 24.8776 17.6079 24.5763 17.1707C24.1544 16.6087 24.2749 16.3588 24.5763 15.8593C24.5763 15.8593 28.0418 10.8008 28.4034 9.08342Z" fill="#A0ABB8"/>
</svg>
