<svg width="32" height="32" viewBox="0 0 32 32" fill="none" xmlns="http://www.w3.org/2000/svg">
<path d="M8.102 25.033C10.211 26.881 12.977 28 16 28C19.026 28 21.789 26.881 23.902 25.033C25.779 23.121 19.586 16.324 16 13.616C12.418 16.324 6.221 23.121 8.102 25.033ZM19.262 10.627C21.762 13.588 26.746 20.94 25.338 23.539C27.002 21.48 28 18.861 28 16.004C28 12.664 26.635 9.642 24.43 7.468C24.43 7.468 24.403 7.446 24.348 7.426C24.285 7.404 24.196 7.381 24.067 7.381C23.475 7.381 22.082 7.815 19.262 10.627ZM7.654 7.426C7.597 7.446 7.572 7.467 7.568 7.468C5.365 9.642 4 12.664 4 16.004C4 18.858 4.998 21.477 6.661 23.537C5.26 20.932 10.24 13.586 12.741 10.627C9.921 7.814 8.525 7.382 7.935 7.382C7.804 7.382 7.712 7.403 7.654 7.428V7.426V7.426ZM16 7.551C16 7.551 13.055 5.828 10.755 5.746C9.852 5.713 9.301 6.041 9.234 6.085C11.379 4.646 13.659 4 15.984 4H16C18.334 4 20.605 4.646 22.766 6.085C22.698 6.039 22.151 5.713 21.246 5.746C18.946 5.828 16 7.545 16 7.545V7.551V7.551Z" fill="#A0ABB8"/>
</svg>
