<svg width="21" height="21" viewBox="0 0 21 21" fill="none" xmlns="http://www.w3.org/2000/svg">
<path fill-rule="evenodd" clip-rule="evenodd" d="M10.7608 0.00525L11.8475 0C12.0099 0.00201673 12.1675 0.0551958 12.2979 0.151969C12.4282 0.248742 12.5248 0.384177 12.5737 0.539L13.16 2.57775C13.531 2.7055 13.8863 2.842 14.2275 3.01175L16.0545 1.9915C16.1992 1.91432 16.3648 1.88526 16.5272 1.90855C16.6896 1.93183 16.8403 2.00625 16.9575 2.121L18.879 4.0425C18.9895 4.1603 19.0602 4.30977 19.0812 4.46988C19.1023 4.63 19.0725 4.79267 18.9962 4.935L17.976 6.78475C18.1475 7.1295 18.298 7.48125 18.4223 7.84L20.4382 8.40175C20.5935 8.44808 20.7302 8.54219 20.8288 8.6707C20.9275 8.79921 20.9831 8.95556 20.9878 9.1175L21 11.8597C20.9972 12.0237 20.9422 12.1824 20.8431 12.313C20.744 12.4436 20.6059 12.5392 20.4488 12.586L18.4223 13.16C18.298 13.5292 18.1493 13.8845 17.976 14.2275L19.0085 16.0773C19.0835 16.2207 19.1113 16.3842 19.0881 16.5444C19.0648 16.7047 18.9917 16.8535 18.879 16.9697L16.9575 18.8895C16.841 19.0019 16.6921 19.0747 16.5319 19.0977C16.3717 19.1206 16.2083 19.0925 16.065 19.0172L14.2153 17.9742C13.8749 18.1486 13.5222 18.2978 13.16 18.4205L12.6 20.4488C12.5529 20.606 12.4569 20.7442 12.326 20.8433C12.1952 20.9424 12.0361 20.9973 11.872 21L9.1315 20.9878C8.96751 20.9854 8.80854 20.9309 8.67764 20.8321C8.54673 20.7333 8.45071 20.5953 8.4035 20.4382L7.84 18.41C7.47879 18.2951 7.12616 18.1547 6.78475 17.99L4.921 18.9962C4.77791 19.0704 4.61515 19.0978 4.45566 19.0746C4.29617 19.0514 4.14799 18.9787 4.032 18.8668L2.10875 16.9452C1.99597 16.8266 1.92383 16.6752 1.90276 16.5129C1.88168 16.3506 1.91276 16.1857 1.9915 16.0422L3.024 14.2153C2.85471 13.8783 2.70968 13.5298 2.59 13.1722L0.55125 12.586C0.394143 12.5392 0.256024 12.4436 0.156911 12.313C0.0577973 12.1824 0.00283874 12.0237 0 11.8597L0.01225 9.14025C0.0142667 8.97788 0.0674458 8.82029 0.164219 8.6899C0.260992 8.5595 0.396427 8.46296 0.55125 8.414L2.59 7.82775C2.71075 7.4655 2.84725 7.11375 3.01175 6.77425L2.00375 4.93325C1.92944 4.78989 1.90196 4.62684 1.92519 4.46704C1.94842 4.30725 2.02119 4.15876 2.13325 4.0425L4.05475 2.121C4.17087 2.00871 4.31937 1.93578 4.47923 1.91254C4.63909 1.8893 4.80221 1.91692 4.9455 1.9915L6.77425 3.01175C7.12075 2.842 7.47425 2.70025 7.82775 2.57775L8.414 0.55125C8.46261 0.398236 8.55763 0.264141 8.68588 0.16756C8.81414 0.0709798 8.96926 0.0167005 9.12975 0.01225L10.7608 0.00525V0.00525ZM15.4753 10.3023C15.4776 9.67421 15.3556 9.05192 15.1163 8.47125C14.877 7.89057 14.5252 7.36298 14.0811 6.91889C13.637 6.4748 13.1094 6.12298 12.5288 5.8837C11.9481 5.64443 11.3258 5.52244 10.6977 5.52475C10.07 5.5229 9.44809 5.64524 8.86782 5.88472C8.28755 6.1242 7.76038 6.47609 7.31666 6.92013C6.87293 7.36418 6.52143 7.89161 6.28237 8.47206C6.04332 9.05251 5.92144 9.67451 5.92375 10.3023C5.9219 10.9298 6.04418 11.5516 6.28355 12.1318C6.52292 12.7119 6.87466 13.239 7.31852 13.6827C7.76238 14.1264 8.2896 14.478 8.86985 14.7171C9.45009 14.9563 10.0719 15.0783 10.6995 15.0762C11.3271 15.0783 11.9489 14.9563 12.5292 14.7171C13.1094 14.478 13.6366 14.1264 14.0805 13.6827C14.5243 13.239 14.8761 12.7119 15.1154 12.1318C15.3548 11.5516 15.4771 10.9298 15.4753 10.3023Z" fill="#DADADA"/>
</svg>
