<svg width="22" height="20" viewBox="0 0 22 20" fill="none" xmlns="http://www.w3.org/2000/svg">
<path d="M6.04455 10.2293C6.04455 9.27577 6.22096 8.38482 6.66289 7.70735C7.10392 7.03368 7.70533 6.52132 8.48048 6.17499C9.1897 5.85713 10.045 5.62941 11.075 5.49183C11.4225 5.44819 11.9954 5.3941 12.7857 5.32674V4.97567C12.7857 4.09326 12.6921 3.49739 12.5184 3.19661C12.2493 2.78861 11.8234 2.57987 11.2354 2.57987H11.0732C10.6456 2.62352 10.2749 2.76584 9.96306 3.01633C9.65122 3.27252 9.45075 3.6141 9.36165 4.05625C9.3082 4.3409 9.17811 4.49746 8.97408 4.54016L6.72882 4.24127C6.50786 4.18434 6.39738 4.07048 6.39738 3.87123C6.39738 3.82758 6.40361 3.78584 6.41698 3.72891C6.63705 2.50491 7.17876 1.59404 8.03855 0.996272C8.90815 0.411793 9.90961 0.0711623 11.059 0H11.5401C13.0102 0 14.1747 0.411793 15.0042 1.22399C15.1245 1.36632 15.2448 1.50864 15.3651 1.67943C15.472 1.83599 15.5646 1.97736 15.6172 2.1064C15.684 2.23355 15.7509 2.41952 15.7909 2.64724C15.8444 2.88824 15.8845 3.04575 15.9112 3.13114C15.938 3.22982 15.9665 3.41579 15.9789 3.71467C15.9879 4.01166 15.9968 4.18245 15.9968 4.23938V9.2492C15.9968 9.60596 16.0502 9.93236 16.1438 10.2322C16.2373 10.5292 16.3309 10.7446 16.4244 10.8717L16.8788 11.5112C16.959 11.6403 17 11.7541 17 11.8528C17 11.9667 16.9465 12.0672 16.8396 12.1507C15.7705 13.147 15.1824 13.6878 15.0906 13.7732C14.9436 13.9013 14.7565 13.9156 14.5293 13.8159C14.3556 13.6584 14.1952 13.5009 14.0607 13.3453L13.7845 13.0161C13.731 12.9458 13.6366 12.8168 13.502 12.6176L13.2347 12.2048C12.513 13.0455 11.8065 13.5711 11.0964 13.7846C10.6562 13.9269 10.1225 14 9.4659 14C8.47691 14 7.64831 13.6746 7.0068 13.0189C6.3653 12.3642 6.04455 11.4391 6.04455 10.2293ZM9.34473 9.7369C9.34473 10.2739 9.46946 10.7047 9.72339 11.0311C9.97732 11.3537 10.3248 11.5169 10.7525 11.5169C10.7926 11.5169 10.8469 11.5103 10.9262 11.4979C11.0064 11.4828 11.0456 11.4761 11.0741 11.4761C11.6212 11.3243 12.0364 10.9514 12.3429 10.3584C12.4899 10.0927 12.5968 9.80807 12.6636 9.49495C12.7438 9.19133 12.7705 8.93514 12.7839 8.73589C12.7973 8.55086 12.7973 8.22352 12.7973 7.78231V7.26994C12.0488 7.26994 11.4751 7.32687 11.0866 7.44073C9.95059 7.78231 9.34473 8.53189 9.34473 9.72741V9.7369Z" fill="white"/>
<path d="M0.359483 15.4809C0.211838 15.3869 0.106378 15.3943 0.0403501 15.5012L0.0458184 15.4939C0.0183259 15.5308 0 15.5704 0 15.6137C0 15.6783 0.0458524 15.7483 0.137557 15.8166C1.61401 17.1444 3.26469 18.1734 5.11713 18.9055C6.97416 19.6349 8.94123 20 11.0183 20C12.3673 20 13.7566 19.8119 15.1597 19.4375C16.5766 19.0595 17.8568 18.5311 18.9976 17.8461C19.3699 17.6211 19.6854 17.4182 19.9201 17.243C20.1127 17.1102 20.1402 16.9609 20.0302 16.8004C19.9064 16.6381 19.756 16.5994 19.5487 16.6806C19.4946 16.7082 19.4066 16.7451 19.28 16.8004L18.9912 16.9295C16.4427 17.9088 13.8603 18.4002 11.2449 18.4002C7.32355 18.4002 3.69387 17.4265 0.359483 15.4809Z" fill="#FF9900"/>
<path d="M18.0255 15.6866C17.9732 15.7419 17.932 15.788 17.9045 15.8433L17.8944 15.847V15.9023L17.8921 15.9077C17.8809 15.9342 17.876 15.9457 17.876 15.9604C17.8614 15.9881 17.8669 16.0038 17.8944 16.0314C17.9237 16.0591 17.9769 16.072 18.0594 16.072C18.3346 16.0305 18.6436 15.989 18.9765 15.9475C19.2855 15.9199 19.5515 15.9051 19.7743 15.9051C20.3924 15.9051 20.7638 15.989 20.8968 16.1421C20.9491 16.2103 20.9766 16.321 20.9766 16.4593C20.9766 16.9175 20.7326 17.7317 20.2374 18.8935C20.198 19.0042 20.2136 19.0742 20.2961 19.1148C20.3236 19.1259 20.3511 19.1259 20.3787 19.1259C20.4309 19.1259 20.4924 19.0982 20.5593 19.0429C21.0105 18.6446 21.3645 18.13 21.6194 17.4938C21.8716 16.8576 22 16.3044 22 15.8341V15.6958C22 15.5464 21.9752 15.4192 21.9175 15.3362C21.8056 15.1868 21.4388 15.0872 20.8427 15.0319C20.7235 15.0042 20.5951 14.9932 20.4667 15.0042C19.988 15.0208 19.4928 15.1029 18.9884 15.2255C18.6803 15.3085 18.3575 15.4625 18.0255 15.6866Z" fill="#FF9900"/>
</svg>
