<svg width="16" height="20" viewBox="0 0 16 20" fill="none" xmlns="http://www.w3.org/2000/svg">
<path d="M8.12461 5.6435C7.34876 5.6435 6.14778 4.76137 4.88304 4.79326C3.21444 4.81451 1.684 5.76041 0.823124 7.25897C-0.90925 10.2667 0.376745 14.7092 2.06661 17.1537C2.8956 18.344 3.87338 19.6832 5.17 19.6407C6.41349 19.5875 6.88112 18.8329 8.39031 18.8329C9.88886 18.8329 10.314 19.6407 11.6319 19.6088C12.971 19.5875 13.8212 18.3972 14.6396 17.1962C15.5855 15.8146 15.9787 14.4754 16 14.401C15.9681 14.3904 13.3961 13.402 13.3642 10.4261C13.343 7.93916 15.3942 6.74882 15.4899 6.69568C14.3208 4.98456 12.5246 4.79326 11.8976 4.75074C10.2608 4.62321 8.88983 5.6435 8.12461 5.6435V5.6435ZM10.8879 3.13528C11.5787 2.30629 12.0357 1.14783 11.9082 0C10.9198 0.0425123 9.72944 0.65894 9.01736 1.48793C8.37968 2.22126 7.82702 3.40098 7.97581 4.52756C9.0705 4.61258 10.1971 3.96427 10.8879 3.13528" fill="white"/>
</svg>
