<svg width="18" height="20" viewBox="0 0 18 20" fill="none" xmlns="http://www.w3.org/2000/svg">
<path fill-rule="evenodd" clip-rule="evenodd" d="M2.72493 10.5397C4.85114 10.0738 4.56663 7.48432 4.50328 6.90778L4.50283 6.90369C4.39778 6.02716 3.38769 4.49653 2.01707 4.61882C0.291425 4.77561 0.0395233 7.31797 0.0395233 7.31797C-0.19423 8.49518 0.59723 11.0078 2.72493 10.5397ZM6.68279 6.18002C7.85925 6.18002 8.81021 4.79721 8.81021 3.08903C8.81021 1.38057 7.85925 0 6.68279 0C5.50577 0 4.55233 1.38057 4.55233 3.08903C4.55233 4.79721 5.50549 6.18002 6.68279 6.18002ZM11.7549 6.38338C13.3293 6.59375 14.3389 4.88024 14.5407 3.58185C14.747 2.28515 13.7295 0.776956 12.6171 0.518064C11.4997 0.256087 10.1049 2.08039 9.97925 3.27051C9.82608 4.72625 10.1819 6.17778 11.7549 6.38338ZM17.9918 8.56474C17.9918 7.94374 17.4877 6.07175 15.6102 6.07175C13.7295 6.07175 13.4803 7.83828 13.4803 9.08645C13.4803 10.278 13.578 11.9393 15.9136 11.8877C18.0716 11.8389 18.0155 9.57342 17.9949 8.73827C17.9932 8.6703 17.9918 8.6118 17.9918 8.56474ZM15.6102 14.0161C15.6102 14.0161 13.1759 12.0955 11.7549 10.0185C9.82607 6.95614 7.08814 8.20347 6.17293 9.75851C5.48813 10.9285 4.51832 11.775 3.99122 12.235C3.81599 12.3879 3.68968 12.4982 3.63904 12.5634C3.60824 12.6019 3.52025 12.6687 3.39502 12.7637C2.68723 13.3009 0.78995 14.7409 1.30564 17.0796C1.91395 19.8303 4.04715 19.7784 4.04715 19.7784C4.04715 19.7784 5.61935 19.9349 7.44262 19.5193C9.26974 19.1044 10.8417 19.6214 10.8417 19.6214C10.8417 19.6214 15.1037 21.0791 16.2683 18.2742C17.4346 15.4718 15.6102 14.0161 15.6102 14.0161ZM7.0609 11.3385V13.1863H5.58468C5.58468 13.1863 4.10928 13.3112 3.59282 15.0168C3.42441 16.0813 3.70987 16.737 3.79603 16.9349C3.80203 16.9487 3.80706 16.9603 3.8109 16.9696C3.87058 17.1126 4.34744 17.9457 5.5448 18.1897H8.31492V11.3587L7.0609 11.3385ZM7.03835 17.0689H5.92266C5.92266 17.0689 5.14522 17.0274 4.90844 16.1147C4.78634 15.7099 4.92659 15.2429 4.98819 15.0592C5.04457 14.8752 5.30555 14.45 5.84373 14.2864H7.03835V17.0689ZM8.99368 16.949V13.3521L10.289 13.331V16.5631C10.3679 16.9075 10.7875 16.9695 10.7875 16.9695H12.101V13.3521H13.4768V18.1703H10.289C9.05143 17.8446 8.99368 16.949 8.99368 16.949Z" fill="white"/>
</svg>
