<svg width="22" height="22" viewBox="0 0 22 22" fill="none" xmlns="http://www.w3.org/2000/svg">
<path d="M15.0824 6.71046C14.7313 6.57249 14.7892 6.60296 14.7892 6.60296C14.7892 6.60296 14.7516 6.56466 15.2924 6.95812C16.116 7.55746 16.6605 8.52632 16.9547 9.46863C17.3162 10.6299 17.0507 12.2407 15.9061 13.8442C13.4658 17.2635 9.52501 19.2609 8.73996 18.0757C8.34179 17.4746 9.64644 16.2816 9.64644 16.2816L8.8581 16.6777C8.8581 16.6777 7.47862 18.1997 7.73089 19.1272C8.16153 20.7098 12.9043 19.6369 16.3367 14.4501C19.419 9.7942 16.0082 7.07564 15.0824 6.71046Z" fill="white"/>
<path d="M15.0826 6.72766C14.7315 6.58943 14.6595 6.6003 14.6595 6.6003C14.6595 6.6003 14.6906 6.58943 15.2314 6.98237C16.055 7.58092 16.6612 8.54111 16.9549 9.4826C17.3168 10.6419 17.0514 12.251 15.9063 13.8528C13.4659 17.2676 9.52561 19.2618 8.74008 18.0787C8.34191 17.4779 9.64609 16.2869 9.64609 16.2869L8.85775 16.6821C8.85775 16.6821 7.47826 18.2021 7.731 19.1284C8.16118 20.7084 12.904 19.637 16.3369 14.4574C19.4188 9.80687 16.0084 7.09235 15.0826 6.72766Z" fill="white"/>
<path d="M14.2958 14.6427C14.2958 14.6427 14.3493 14.6323 13.7177 14.8563C12.7557 15.198 11.5893 15.1526 10.5705 14.9282C9.31657 14.6526 7.9561 13.6857 7.03686 12.0543C5.07691 8.57587 5.17558 4.63133 6.66079 4.59662C7.41526 4.57926 7.87465 6.13749 7.87465 6.13749L7.89792 5.35032C7.89792 5.35032 7.17044 3.57846 6.18698 3.33012C4.50861 2.90616 3.15699 7.02177 6.26331 12.0936C9.05174 16.6472 13.2556 15.3447 14.0515 14.8137C14.3531 14.6129 14.2958 14.6427 14.2958 14.6427Z" fill="white"/>
<path d="M13.6684 14.8061C12.7134 15.1474 11.5326 15.1523 10.5227 14.928C9.27862 14.6523 7.9288 13.6854 7.0163 12.054C5.0717 8.57512 5.16959 4.63052 6.64363 4.59622C7.39174 4.57887 7.84799 6.13712 7.84799 6.13712L7.87108 5.34994C7.87108 5.34994 7.14884 3.57847 6.17307 3.33012C4.50785 2.90616 3.1668 7.02182 6.24834 12.0937C9.0154 16.6474 13.1863 15.3445 13.9755 14.8139C14.2706 14.616 14.2992 14.5548 14.3001 14.5527C14.2988 14.5556 14.2697 14.5912 13.6684 14.8061Z" fill="white"/>
<path d="M12.6876 4.40362C7.27021 4.25502 6.49814 8.60569 6.60961 9.5885C6.65195 9.96117 6.65152 9.89543 6.65152 9.89543C6.65152 9.89543 6.63596 9.94774 6.72669 9.27834C6.86365 8.25849 7.44691 7.27892 8.1222 6.52711C8.9539 5.6017 10.4609 4.97118 12.3649 5.09339C16.4244 5.35356 19.9499 7.6488 19.2919 8.94734C18.9575 9.6061 17.333 9.12927 17.333 9.12927L18.0351 9.59036C18.0351 9.59036 19.9767 9.95608 20.6585 9.24778C21.8211 8.03906 18.7221 4.56981 12.6876 4.40362Z" fill="white"/>
<path d="M12.6877 4.40354C7.26972 4.25803 6.49851 8.51822 6.60955 9.48059C6.65102 9.84007 6.69293 9.89809 6.69423 9.8999C6.69293 9.89764 6.67392 9.85366 6.76076 9.22357C6.89816 8.22448 7.446 7.21813 8.12173 6.48241C8.95344 5.57625 10.4604 4.95885 12.3645 5.07807C16.4241 5.33328 19.9496 7.58033 19.2912 8.85185C18.9572 9.49736 17.3331 9.03046 17.3331 9.03046L18.0352 9.48195C18.0352 9.48195 19.9773 9.84007 20.6586 9.1465C21.8208 7.96337 18.7222 4.56537 12.6877 4.40354Z" fill="white"/>
<path d="M14.4169 4.86629C14.038 4.15996 12.8866 2.10589 11.7501 1.01395C10.0795 -0.591306 9.1634 0.0961061 8.8002 0.480438C6.71518 2.68583 7.99975 8.77366 9.32069 12.4377C9.51653 12.982 9.73034 13.5155 9.95553 14.0361C10.0532 13.9974 10.1974 13.9376 10.3512 13.865C10.5207 13.7842 10.65 13.7167 10.7275 13.675C10.678 13.537 10.628 13.3981 10.5794 13.2571C9.3645 9.75856 8.36865 3.96823 10.4024 2.5689C10.9672 2.17984 11.6191 2.63166 12.1247 3.10498C12.5886 3.54047 13.1797 4.38566 13.4583 4.80008L14.4169 4.86629ZM12.689 18.0931L12.2653 18.3807C13.1547 19.7735 14.0314 20.8883 14.7197 21.5877C15.1201 21.9948 15.4001 22 15.4001 22C15.0391 21.7107 13.9254 20.3874 12.689 18.0931ZM11.0745 15.5609C10.9834 15.6319 10.8467 15.7333 10.7783 15.7841C11.0758 16.3666 11.3838 16.9246 11.6949 17.4521L11.7461 17.4224L12.1864 17.118C11.9152 16.5669 11.6419 15.9719 11.3733 15.3318C11.3032 15.3851 11.1744 15.4836 11.0745 15.5609Z" fill="white"/>
<path d="M13.877 4.79163C14.1994 4.81223 14.3753 4.83498 14.3766 4.83498C13.9865 4.10791 12.8527 2.09024 11.7336 1.01209C10.0697 -0.590545 9.15744 0.0961764 8.79577 0.479882C6.71911 2.68125 7.9987 8.76002 9.31363 12.4172C9.50908 12.9606 9.72198 13.4945 9.94623 14.0156C10.0435 13.977 10.187 13.9173 10.3402 13.8439C10.509 13.7632 10.6377 13.6958 10.7154 13.6542C10.6656 13.5156 10.6159 13.3761 10.567 13.2349C9.35682 9.74203 8.36561 3.96156 10.3908 2.56408C10.9536 2.17608 11.6028 2.62674 12.1053 3.09972C12.5591 3.52592 13.1332 4.34569 13.4176 4.76803C13.4334 4.76888 13.6196 4.77575 13.877 4.79163ZM12.6673 18.0552C12.6389 18.0758 12.5468 18.1419 12.4256 18.2239C12.3819 18.2535 12.2794 18.3196 12.2358 18.3475C13.1267 19.7527 14.0049 20.8781 14.6929 21.5802C15.0916 21.9863 15.4001 22 15.4001 22C15.0397 21.7103 13.9124 20.3686 12.6673 18.0552ZM11.0517 15.5332C10.9335 15.6255 10.7743 15.7465 10.7625 15.7556C11.0539 16.3298 11.3558 16.8805 11.6608 17.402C11.6883 17.3878 11.7616 17.3492 11.9186 17.2582C12.0678 17.1719 12.1472 17.1208 12.1765 17.1024C11.9016 16.5449 11.6254 15.9427 11.3541 15.2955C11.341 15.3053 11.1835 15.4294 11.0517 15.5332Z" fill="white"/>
<path d="M21.9223 12.747C21.0336 9.81456 15.118 7.8229 11.2888 7.09922C10.7201 6.99176 10.1523 6.90404 9.58965 6.83387C9.575 6.93825 9.55605 7.09396 9.54356 7.26413C9.5302 7.45229 9.52589 7.59878 9.52374 7.68738C9.66763 7.71413 9.81282 7.74264 9.9593 7.77202C13.5933 8.50272 19.1074 10.5935 19.3223 13.0707C19.3818 13.7593 18.6696 14.0939 18.0101 14.2904C17.4043 14.4707 16.3803 14.5514 15.8831 14.5821L15.3553 15.3799C16.1562 15.4119 18.5038 15.4615 20.0091 15.033C22.2231 14.4036 22.077 13.2589 21.9223 12.747ZM0.69233 7.11282C0.142602 7.25141 0 7.49176 0 7.49176C0.431252 7.32597 2.1386 7.03343 4.75627 7.13562L4.72309 6.61896C3.05969 6.67861 1.64574 6.87115 0.69233 7.11282ZM7.66561 6.65668C7.02971 6.61852 6.40933 6.60054 5.81307 6.6001L5.81178 6.64966L5.83591 7.1979C6.44293 7.24352 7.08917 7.31018 7.77116 7.4036C7.76426 7.3536 7.73884 7.1751 7.71687 7.02027C7.69835 6.8944 7.67422 6.72159 7.66561 6.65668Z" fill="white"/>
<path d="M17.1209 6.27699C16.7667 6.80378 16.3723 7.35646 15.934 7.92899C15.9421 7.93244 16.1254 8.00492 16.2873 8.06964C16.4232 8.124 16.5996 8.19605 16.6214 8.20511C16.9884 7.64467 17.3281 7.08767 17.6378 6.54405L17.5955 6.51817L17.1209 6.27699ZM14.8599 9.26344C14.7655 9.37519 14.6702 9.48736 14.5724 9.59954C12.1542 12.3914 7.65623 16.1458 5.45979 15.1138C4.84969 14.8273 4.92019 14.0451 5.08168 13.376C5.23421 12.7452 5.69306 11.7844 5.90754 11.3529L5.50166 10.5017C5.09963 11.1428 3.85679 13.2004 3.46458 14.7445C2.89764 16.9742 3.93625 17.4108 4.44424 17.5277C7.35844 18.1995 11.9718 14.0486 14.4814 11.0837C14.8539 10.6432 15.2094 10.1936 15.5478 9.74019C15.467 9.67677 15.3448 9.58357 15.2073 9.48909C15.0552 9.38468 14.9338 9.30874 14.8599 9.26344ZM19.7475 1.1001C19.6745 1.55311 19.078 3.16542 17.7079 5.3701L18.162 5.58754C18.926 4.13099 19.4574 2.82458 19.7245 1.88705C19.8796 1.34171 19.7475 1.1001 19.7475 1.1001Z" fill="white"/>
<path d="M17.1003 6.31112C16.7547 6.82486 16.371 7.36313 15.946 7.91904C15.9755 7.93023 16.1517 7.99821 16.2981 8.05587C16.4244 8.10578 16.5938 8.17935 16.6313 8.1957C16.9842 7.657 17.3119 7.12218 17.6128 6.59897C17.5735 6.57573 17.4634 6.51033 17.3644 6.45224C17.2556 6.38856 17.1383 6.32962 17.1003 6.31112ZM19.7429 1.1001C19.6695 1.55317 19.0657 3.18777 17.6832 5.41056C17.7169 5.42605 17.8155 5.4708 17.9414 5.53146C17.9883 5.55384 18.098 5.61149 18.144 5.63516C18.9185 4.16922 19.4587 2.85431 19.7263 1.91417C19.8816 1.37031 19.7429 1.1001 19.7429 1.1001ZM14.8468 9.28558C14.7521 9.39702 14.6565 9.50889 14.5592 9.62119C12.144 12.4055 7.65156 16.1493 5.45782 15.1205C4.84805 14.8344 4.91888 14.0539 5.08018 13.3874C5.22996 12.7682 5.6763 11.8298 5.89478 11.39C5.88497 11.3707 5.80218 11.2089 5.69337 10.9856C5.57944 10.7511 5.50391 10.5841 5.48556 10.5424C5.06994 11.2059 3.85167 13.229 3.46421 14.7517C2.89839 16.9763 3.93531 17.4113 4.44267 17.5279C7.35414 18.1982 11.9618 14.0582 14.4679 11.1013C14.84 10.6625 15.195 10.2137 15.5343 9.76146C15.4532 9.69778 15.332 9.60527 15.1954 9.51147C15.0423 9.40692 14.9206 9.33033 14.8468 9.28558Z" fill="white"/>
<path d="M21.9223 12.749C21.0358 9.8179 15.1327 7.82699 11.3113 7.10418C10.7447 6.99679 10.1781 6.90956 9.61573 6.83899C9.60112 6.94287 9.5822 7.09892 9.57016 7.26899C9.55684 7.45704 9.55211 7.60388 9.55039 7.69242C9.69398 7.7196 9.83886 7.74721 9.98502 7.77702C13.6109 8.50772 19.1137 10.5968 19.3282 13.0725C19.388 13.7603 18.6769 14.0947 18.0187 14.2911C17.4271 14.4673 16.4354 14.5488 15.9285 14.5808L15.9294 14.5821C15.9294 14.5821 15.818 14.7518 15.6701 14.9758C15.502 15.2313 15.3976 15.3786 15.3976 15.3786L15.3941 15.3812C16.2161 15.4128 18.526 15.4566 20.0135 15.0332C22.2228 14.4042 22.077 13.2597 21.9223 12.749ZM7.70566 6.65971C7.07713 6.62114 6.46365 6.60185 5.87339 6.6001C5.87167 6.64305 5.86866 6.75132 5.87124 6.89904C5.87425 7.07306 5.87898 7.16949 5.8807 7.20587C6.4873 7.25146 7.13216 7.31765 7.81141 7.41014C7.80969 7.39918 7.77616 7.18527 7.7508 7.00906C7.71769 6.7785 7.70738 6.67637 7.70566 6.65971ZM4.76767 6.61675C3.09275 6.67286 1.66847 6.8631 0.712786 7.1055C0.164225 7.24489 0 7.50613 0 7.50613C0.431197 7.34 2.16501 7.04238 4.80636 7.14407C4.80292 7.10725 4.79261 6.99942 4.78143 6.85521C4.77756 6.80173 4.77068 6.67111 4.76767 6.61675Z" fill="white"/>
</svg>
