<svg width="18" height="18" viewBox="0 0 18 18" fill="none" xmlns="http://www.w3.org/2000/svg">
<path d="M6.18374 0.492785C3.93651 1.25389 2.07148 2.85408 0.979503 4.95801C0.610657 5.67253 0.341617 6.43416 0.179893 7.22164C-0.223828 9.19548 0.0565494 11.2478 0.974985 13.0414C1.57897 14.2109 2.4293 15.2359 3.46755 16.0461C4.45634 16.8173 5.59236 17.3787 6.80604 17.6962C8.33636 18.0977 9.96494 18.0887 11.5054 17.7447C12.898 17.43 14.216 16.7769 15.2686 15.8284C16.3717 14.8199 17.1761 13.5281 17.594 12.094C18.0525 10.55 18.1124 8.90104 17.8255 7.31413H9.18566V10.8263H14.1923C14.0903 11.3899 13.8749 11.9271 13.5591 12.4051C13.2432 12.8832 12.8335 13.2923 12.3547 13.6076C11.7412 14.0051 11.0523 14.2719 10.3309 14.3915C9.60573 14.5206 8.86331 14.5191 8.13872 14.387C7.40536 14.2403 6.70974 13.9455 6.09452 13.5208C5.11698 12.8466 4.3803 11.8786 3.99159 10.7575C3.60082 9.63077 3.5963 8.37771 3.99159 7.25548C4.26958 6.45616 4.7252 5.73008 5.32427 5.13171C6.07423 4.37782 7.02791 3.85851 8.0687 3.63728C8.96283 3.4517 9.88892 3.4881 10.7657 3.7433C11.5054 3.96098 12.1876 4.36363 12.7455 4.8847L14.4339 3.23012C14.7298 2.93575 15.0404 2.6504 15.3273 2.34474C14.467 1.56122 13.4624 0.952151 12.3694 0.551434C10.3727 -0.161675 8.19366 -0.182335 6.18374 0.492785Z" fill="white"/>
<path d="M6.18376 0.492585C8.19344 -0.181899 10.3717 -0.163232 12.3694 0.545594C13.4649 0.941476 14.4678 1.56068 15.3273 2.34003C15.0405 2.64456 14.7299 2.92991 14.434 3.22541L12.7455 4.87999C12.1819 4.35248 11.504 3.96189 10.7646 3.73859C9.88864 3.48085 8.96239 3.44403 8.06872 3.63144C7.13556 3.83534 6.27052 4.27528 5.55658 4.90906C4.84264 5.54284 4.30375 6.34919 3.99161 7.25077C2.98758 6.48607 1.98581 5.72702 0.978394 4.96232C2.06897 2.85587 3.93484 1.25369 6.18376 0.492585Z" fill="#EA4335"/>
<path d="M0.184538 7.21691C0.3483 6.43304 0.613707 5.66834 0.985277 4.95215C1.98705 5.71684 2.98882 6.47703 3.99624 7.24172C3.60095 8.36846 3.60095 9.62152 3.99624 10.7438C2.99446 11.5084 1.99156 12.2731 0.989794 13.0322C0.0630733 11.2429 -0.221155 9.19025 0.184538 7.21691Z" fill="#FBBC05"/>
<path d="M9.18582 7.30957H17.8257C18.1198 8.89931 18.0405 10.5355 17.5941 12.0895C17.1759 13.5236 16.3711 14.8155 15.2676 15.8238L12.3504 13.6031C12.8289 13.2876 13.2384 12.8785 13.5541 12.4004C13.8697 11.9224 14.085 11.3853 14.1868 10.8218H9.18018C9.18582 9.65102 9.18582 8.4803 9.18582 7.30957Z" fill="#4285F4"/>
<path d="M0.97937 13.0367C1.98227 12.2777 2.98404 11.5141 3.98581 10.7483C4.37656 11.8686 5.11328 12.8361 6.08987 13.5116C6.702 13.9323 7.40335 14.2323 8.13407 14.3778C8.85462 14.5221 9.60002 14.503 10.3251 14.3823C11.0469 14.2628 11.7362 13.996 12.3501 13.5984L15.2684 15.8192C14.2158 16.7722 12.8978 17.4208 11.5053 17.7343C9.96481 18.0783 8.33623 18.0885 6.8059 17.6869C5.59146 17.3716 4.45505 16.8099 3.46742 16.0369C2.43086 15.228 1.58205 14.2045 0.97937 13.0367Z" fill="#34A853"/>
</svg>
