<svg width="20" height="20" viewBox="0 0 20 20" fill="none" xmlns="http://www.w3.org/2000/svg">
<path d="M9.99938 0C7.28353 0 6.94342 0.0125039 5.87684 0.0600188C4.814 0.108784 4.08628 0.277587 3.45108 0.525164C2.78366 0.776009 2.179 1.16944 1.67927 1.67802C1.17024 2.17762 0.776375 2.78229 0.525164 3.44983C0.277587 4.08628 0.108784 4.81275 0.0600188 5.87684C0.0125039 6.94342 0 7.28478 0 10.0006C0 12.7165 0.0125039 13.0566 0.0600188 14.1232C0.108784 15.1872 0.277587 15.9137 0.525164 16.5502C0.780244 17.2079 1.12285 17.7656 1.67802 18.322C2.23445 18.8771 2.79087 19.2198 3.44983 19.4748C4.08628 19.7224 4.81275 19.8912 5.87684 19.94C6.94342 19.9887 7.28353 20 9.99938 20C12.7152 20 13.0566 19.9875 14.1232 19.94C15.1872 19.8912 15.9137 19.7224 16.5502 19.4748C17.2176 19.224 17.8223 18.8306 18.322 18.322C18.8306 17.8223 19.224 17.2176 19.4748 16.5502C19.7224 15.9137 19.8912 15.1872 19.94 14.1232C19.9887 13.0566 20 12.7165 20 10.0006C20 7.28478 19.9875 6.94342 19.94 5.87684C19.8912 4.81275 19.7224 4.08628 19.4748 3.44983C19.224 2.78241 18.8306 2.17775 18.322 1.67802C17.8223 1.16944 17.2176 0.776009 16.5502 0.525164C15.9137 0.277587 15.1872 0.108784 14.1232 0.0600188C13.0566 0.0112535 12.7152 0 9.99938 0ZM9.99938 1.80181C12.6702 1.80181 12.9866 1.81182 14.0406 1.86058C15.0159 1.90435 15.5449 2.06815 15.8975 2.20444C16.3639 2.38575 16.6977 2.60206 17.0478 2.95217C17.3979 3.30228 17.6143 3.63614 17.7956 4.10253C17.9331 4.45514 18.0957 4.98406 18.1394 5.95936C18.1882 7.01344 18.1982 7.32979 18.1982 10.0006C18.1982 12.6702 18.1882 12.9866 18.1394 14.0406C18.0957 15.0159 17.9319 15.5449 17.7956 15.8975C17.6143 16.3651 17.3979 16.6977 17.0478 17.0478C16.6977 17.3979 16.3639 17.6143 15.8975 17.7956C15.5449 17.9331 15.0159 18.0957 14.0406 18.1394C12.9866 18.1882 12.6702 18.1982 9.99938 18.1982C7.32979 18.1982 7.01344 18.1882 5.95936 18.1394C4.98406 18.0957 4.45514 17.9331 4.10253 17.7956C3.66802 17.6354 3.27493 17.3799 2.95217 17.0478C2.6201 16.7251 2.36459 16.332 2.20444 15.8975C2.0669 15.5449 1.90435 15.0159 1.86058 14.0406C1.81182 12.9866 1.80181 12.6702 1.80181 10.0006C1.80181 7.32979 1.81182 7.01344 1.86058 5.95936C1.90435 4.98406 2.0669 4.45514 2.20444 4.10253C2.38575 3.63614 2.60206 3.30228 2.95217 2.95217C3.30228 2.60206 3.63489 2.38575 4.10253 2.20444C4.45514 2.0669 4.98406 1.90435 5.95936 1.86058C7.01344 1.81182 7.32979 1.80181 9.99938 1.80181Z" fill="white"/>
<path d="M9.99918 13.3328C9.55606 13.3414 9.11568 13.2615 8.7038 13.0979C8.29191 12.9342 7.91679 12.6901 7.60038 12.3797C7.28397 12.0694 7.03263 11.6991 6.86104 11.2904C6.68945 10.8818 6.60108 10.4431 6.60108 9.99986C6.60108 9.55666 6.68945 9.11791 6.86104 8.70927C7.03263 8.30063 7.28397 7.93031 7.60038 7.61997C7.91679 7.30963 8.29191 7.0655 8.7038 6.90186C9.11568 6.73822 9.55606 6.65836 9.99918 6.66694C10.8719 6.68384 11.7033 7.04242 12.3145 7.66562C12.9258 8.28883 13.2682 9.12693 13.2682 9.99986C13.2682 10.8728 12.9258 11.7109 12.3145 12.3341C11.7033 12.9573 10.8719 13.3159 9.99918 13.3328ZM9.99918 4.86513C9.31813 4.8545 8.64178 4.97946 8.00949 5.23273C7.3772 5.48601 6.80162 5.86253 6.31624 6.34039C5.83087 6.81825 5.44541 7.38789 5.1823 8.01615C4.91919 8.6444 4.78369 9.31873 4.78369 9.99986C4.78369 10.681 4.91919 11.3553 5.1823 11.9836C5.44541 12.6118 5.83087 13.1815 6.31624 13.6593C6.80162 14.1372 7.3772 14.5137 8.00949 14.767C8.64178 15.0203 9.31813 15.1452 9.99918 15.1346C11.3471 15.1136 12.6327 14.5633 13.5785 13.6027C14.5243 12.642 15.0544 11.348 15.0544 9.99986C15.0544 8.65175 14.5243 7.35771 13.5785 6.39705C12.6327 5.43639 11.3471 4.88616 9.99918 4.86513ZM16.5375 4.66131C16.5375 4.97967 16.411 5.28499 16.1859 5.51011C15.9608 5.73522 15.6555 5.86169 15.3371 5.86169C15.0187 5.86169 14.7134 5.73522 14.4883 5.51011C14.2632 5.28499 14.1367 4.97967 14.1367 4.66131C14.1367 4.34295 14.2632 4.03763 14.4883 3.81252C14.7134 3.58741 15.0187 3.46094 15.3371 3.46094C15.6555 3.46094 15.9608 3.58741 16.1859 3.81252C16.411 4.03763 16.5375 4.34295 16.5375 4.66131Z" fill="white"/>
</svg>
