<svg width="25" height="24" viewBox="0 0 25 24" fill="none" xmlns="http://www.w3.org/2000/svg">
<path d="M9.63438 8.53793L10.3739 10.6667H8.8949L9.63438 8.53793Z" fill="black"/>
<path fill-rule="evenodd" clip-rule="evenodd" d="M0 10.253C0 4.59048 5.59639 0 12.5 0C19.4036 0 25 4.59048 25 10.253C25 15.9157 19.4036 20.5061 12.5 20.5061C11.7423 20.5061 11.0004 20.4509 10.2798 20.3448C9.55853 20.8735 5.39135 23.9187 4.99808 23.9758C4.99808 23.9758 4.83678 24.0411 4.69964 23.9571C4.5625 23.8731 4.58738 23.6527 4.58738 23.6527C4.62873 23.3595 5.66767 19.6272 5.85913 18.9402C2.33966 17.1263 0 13.914 0 10.253ZM4.51362 12.5928C4.51362 12.9879 4.84567 13.3092 5.25397 13.3092C5.66228 13.3092 5.99433 12.9879 5.99433 12.5928V8.13581H7.14952C7.55005 8.13581 7.87605 7.80621 7.87605 7.40122C7.87605 6.99622 7.55017 6.66663 7.14952 6.66663H3.35843C2.9579 6.66663 2.6319 6.99622 2.6319 7.40122C2.6319 7.80621 2.95778 8.13581 3.35843 8.13581H4.51362V12.5928ZM11.1298 12.9681C11.201 13.1724 11.4371 13.2995 11.7459 13.2995C11.9082 13.2996 12.0687 13.2643 12.2165 13.1961C12.4206 13.1009 12.6168 12.8385 12.3914 12.1292L10.6213 7.40797C10.4963 7.04799 10.1173 6.67776 9.63377 6.66675C9.15155 6.67788 8.77261 7.04799 8.64786 7.40722L6.87695 12.1306C6.65213 12.8382 6.84832 13.1005 7.05241 13.1959C7.20011 13.2643 7.36063 13.2996 7.52303 13.2995C7.83175 13.2995 8.0678 13.1726 8.13875 12.9686L8.50559 11.9955L10.7632 11.9956L11.1298 12.9681ZM12.8734 12.5121C12.8734 12.8912 13.1916 13.1998 13.5829 13.1998H15.9582C16.3495 13.1998 16.6677 12.8912 16.6677 12.5121C16.6677 12.133 16.3495 11.8244 15.9582 11.8244H14.385V7.41685C14.385 7.0031 14.0459 6.66663 13.6292 6.66663C13.2125 6.66663 12.8734 7.0031 12.8734 7.41685V12.5121ZM16.9557 12.5492C16.9557 12.963 17.2878 13.2995 17.6961 13.2995C17.8924 13.2992 18.0807 13.22 18.2195 13.0793C18.3583 12.9386 18.4364 12.7478 18.4367 12.5489V10.912L18.6936 10.6517L20.4298 12.9829C20.4986 13.0759 20.5879 13.1514 20.6906 13.2031C20.7933 13.2549 20.9065 13.2816 21.0212 13.2811C21.182 13.2815 21.3385 13.2283 21.4665 13.1297C21.5443 13.0706 21.6098 12.9964 21.6591 12.9115C21.7084 12.8265 21.7406 12.7325 21.7538 12.6349C21.7676 12.5373 21.7622 12.438 21.7378 12.3425C21.7133 12.2471 21.6705 12.1576 21.6116 12.0791L19.7893 9.63263L21.4764 7.92325C21.5924 7.80559 21.6505 7.64342 21.6398 7.46649C21.6292 7.29106 21.5518 7.12214 21.4221 6.99085C21.2831 6.85006 21.0975 6.76928 20.9126 6.76928C20.7542 6.76928 20.6082 6.82855 20.502 6.93621L18.4364 9.02933V7.41685C18.4364 7.0031 18.1044 6.66663 17.6961 6.66663C17.2878 6.66663 16.9557 7.0031 16.9557 7.41685V12.5492Z" fill="black"/>
</svg>
