<svg width="18" height="18" viewBox="0 0 18 18" fill="none" xmlns="http://www.w3.org/2000/svg">
<path fill-rule="evenodd" clip-rule="evenodd" d="M16.7227 0H1.32907C0.610535 0 0 0.580125 0 1.29525V16.7044C0 17.4195 0.610535 18 1.32907 18H16.7227C17.4424 18 18 17.4195 18 16.7044V1.29525C18 0.580125 17.4424 0 16.7227 0ZM7.27556 6.5H9.66334V7.72475C10.0075 7.0205 10.8896 6.3875 12.2146 6.3875C14.7545 6.3875 15.3573 7.78925 15.3573 10.3614V15.125H12.7858V10.9471C12.7858 9.48237 12.4416 8.65625 11.5662 8.65625C10.3521 8.65625 9.84701 9.54687 9.84701 10.9471V15.125H7.27556V6.5ZM2.86735 15.125H5.43881V6.5H2.86735V15.125ZM5.80616 3.6875C5.80616 4.61937 5.06594 5.375 4.15308 5.375C3.24021 5.375 2.5 4.61937 2.5 3.6875C2.5 2.75563 3.24021 2 4.15308 2C5.06594 2 5.80616 2.75563 5.80616 3.6875Z" fill="white"/>
</svg>
