<svg width="18" height="18" viewBox="0 0 18 18" fill="none" xmlns="http://www.w3.org/2000/svg">
<path fill-rule="evenodd" clip-rule="evenodd" d="M11.7071 8.99994C11.7071 10.4927 10.4927 11.7072 8.99997 11.7072C7.50721 11.7072 6.29282 10.4927 6.29282 8.99994C6.29282 7.50723 7.50721 6.29284 8.99997 6.29284C10.4927 6.29284 11.7071 7.50723 11.7071 8.99994ZM8.99997 0C4.03734 0 0 4.03736 0 8.99994C0 13.9626 4.03734 18 8.99997 18C10.8181 18 12.5711 17.4587 14.0695 16.4346L14.0955 16.4168L12.883 15.0072L12.8624 15.0205C11.7089 15.7626 10.3733 16.1548 8.99997 16.1548C5.0548 16.1548 1.84521 12.9451 1.84521 8.99994C1.84521 5.05476 5.0548 1.84516 8.99997 1.84516C12.9451 1.84516 16.1548 5.05476 16.1548 8.99994C16.1548 9.51118 16.098 10.0288 15.9863 10.538C15.7599 11.4665 15.11 11.751 14.6216 11.7133C14.1307 11.6737 13.5561 11.3237 13.5523 10.4674V8.99994C13.5523 6.48977 11.5101 4.44762 8.99997 4.44762C6.4898 4.44762 4.44761 6.48977 4.44761 8.99994C4.44761 11.5102 6.4898 13.5524 8.99997 13.5524C10.2192 13.5524 11.3631 13.0754 12.2252 12.2085C12.7265 12.9887 13.544 13.4779 14.4737 13.5525C14.5535 13.559 14.6349 13.5622 14.7158 13.5622C15.3705 13.5622 16.0193 13.3434 16.5425 12.9462C17.082 12.5367 17.4848 11.9441 17.7072 11.2328C17.7431 11.1178 17.8082 10.8545 17.8085 10.8528L17.8104 10.8434C17.9415 10.2721 18 9.70298 18 8.99994C18 4.03736 13.9626 0 8.99997 0Z" fill="white"/>
</svg>
