<svg width="15" height="20" viewBox="0 0 15 20" fill="none" xmlns="http://www.w3.org/2000/svg">
<path d="M2.16409 20C0.995781 20 0 19.2667 0 17.6046C0 15.0386 2.20813 13.09 3.20998 12.539C3.20998 12.539 4.6117 13.3464 6.06589 13.8661C3.17654 12.038 1.33026 8.70724 1.33026 5.01042C1.33026 1.55552 3.15389 0 4.80036 0C6.12487 0 9.26499 1.45703 9.26499 7.04798C9.26499 13.064 6.12579 20 2.16409 20Z" fill="white"/>
<path d="M7.21399 18.0937C7.21399 18.9656 7.51857 19.3069 7.98422 19.3069C9.14956 19.3069 11.0062 16.587 10.9356 13.7313C12.7027 11.8672 14.8209 8.94713 14.8209 6.60831C14.8209 6.04215 14.6604 5.56543 13.9893 5.56543C12.9634 5.56543 11.4974 7.33361 10.5676 9.08942C9.67082 10.9084 8.83196 12.9832 7.71839 15.8307C7.45819 16.5449 7.21399 17.4099 7.21399 18.0937Z" fill="white"/>
</svg>
