<svg width="20" height="20" viewBox="0 0 20 20" fill="none" xmlns="http://www.w3.org/2000/svg">
<path d="M10 20C15.5228 20 20 15.5228 20 10C20 4.47708 15.5228 0 10 0C4.47717 0 0 4.47708 0 10C0 14.2368 2.63513 17.8584 6.35571 19.3152C6.26831 18.524 6.18933 17.3072 6.39038 16.4435C6.47266 16.0901 6.72083 15.0375 6.96777 13.9915C7.26624 12.7274 7.56299 11.4728 7.56299 11.4728C7.56299 11.4728 7.26392 10.8737 7.26392 9.98813C7.26392 8.59763 8.06982 7.55951 9.07336 7.55951C9.92651 7.55951 10.3386 8.20004 10.3386 8.96814C10.3386 9.51578 10.1161 10.2365 9.88184 10.9953C9.74902 11.4254 9.61243 11.8677 9.51038 12.2977C9.27478 13.293 10.0095 14.1047 10.9912 14.1047C12.7686 14.1047 14.1348 12.2307 14.1348 9.52545C14.1348 7.13113 12.4144 5.45709 9.95776 5.45709C7.11243 5.45709 5.44226 7.59125 5.44226 9.79678C5.44226 10.6563 5.77344 11.5779 6.18652 12.0789C6.26831 12.1779 6.28027 12.2646 6.25586 12.3657C6.21338 12.5424 6.14197 12.8326 6.0813 13.0785C6.03357 13.2723 5.99268 13.4385 5.97815 13.4998C5.93457 13.6829 5.83325 13.7217 5.64368 13.6335C4.39478 13.0522 3.61389 11.2261 3.61389 9.75949C3.61389 6.60501 5.90588 3.70804 10.2213 3.70804C13.6903 3.70804 16.3861 6.17999 16.3861 9.48358C16.3861 12.9299 14.2131 15.7036 11.197 15.7036C10.1837 15.7036 9.23108 15.1772 8.90503 14.5553C8.90503 14.5553 8.40356 16.4646 8.28198 16.9325C8.05627 17.8011 7.44678 18.8898 7.03906 19.5541C7.11316 19.577 7.1875 19.5994 7.26233 19.6207C8.13232 19.8677 9.05078 20 10 20Z" fill="white"/>
</svg>
