<svg width="18" height="20" viewBox="0 0 18 20" fill="none" xmlns="http://www.w3.org/2000/svg">
<path d="M8.50736 19.7703C6.74512 19.7703 5.12744 19.1872 4.08599 18.3163C3.55703 18.4726 2.88042 18.7239 2.45357 19.0357C2.08815 19.3023 2.13368 19.5741 2.19956 19.6839C2.48864 20.1662 7.15899 19.9919 8.50736 19.8417V19.7703Z" fill="#FAAB07"/>
<path d="M8.50635 19.7703C10.2688 19.7703 11.8863 19.1872 12.9279 18.3163C13.4567 18.4726 14.1333 18.7239 14.5603 19.0357C14.9255 19.3023 14.88 19.5741 14.8141 19.6839C14.525 20.1662 9.85471 19.9919 8.50635 19.8417V19.7703Z" fill="#FAAB07"/>
<path d="M8.51744 9.32924C11.4277 9.3097 13.76 8.75289 14.5503 8.53932C14.7386 8.48837 14.8394 8.397 14.8394 8.397C14.8402 8.37076 14.8514 7.92868 14.8514 7.70056C14.8514 3.85976 13.0173 0.00019153 8.50659 0C3.9961 0.000191235 2.16199 3.85976 2.16199 7.70056C2.16199 7.92868 2.17323 8.37076 2.174 8.397C2.174 8.397 2.25596 8.48243 2.40612 8.5238C3.13582 8.72454 5.51206 9.30912 8.49594 9.32924H8.51744Z" fill="black"/>
<path d="M16.4255 12.5291C16.2451 11.9553 15.9989 11.286 15.7495 10.6432C15.7495 10.6432 15.6061 10.6258 15.5335 10.6465C13.2959 11.2891 10.5839 11.6986 8.51729 11.6739H8.49578C6.44059 11.6982 3.74696 11.2935 1.517 10.6572C1.43175 10.6329 1.26357 10.6432 1.26357 10.6432C1.0142 11.286 0.767936 11.9553 0.587548 12.5291C-0.272738 15.2659 0.00608015 16.3985 0.218245 16.4239C0.673576 16.4783 1.99074 14.3637 1.99074 14.3637C1.99074 16.5124 3.95312 19.8117 8.44695 19.842C8.46691 19.8418 8.54616 19.8418 8.56611 19.842C13.0599 19.8117 15.0223 16.5124 15.0223 14.3637C15.0223 14.3637 16.3395 16.4783 16.7948 16.4239C17.007 16.3985 17.2858 15.2659 16.4255 12.5291Z" fill="black"/>
<path d="M6.90118 5.67438C6.28929 5.70178 5.76653 5.01261 5.73359 4.13669C5.70045 3.26019 6.16916 2.52755 6.78105 2.50016C7.39235 2.47315 7.91492 3.16193 7.94805 4.03824C7.98157 4.91473 7.51268 5.64738 6.90118 5.67438Z" fill="white"/>
<path d="M11.2792 4.13669C11.2464 5.01261 10.7237 5.70178 10.1118 5.67438C9.5003 5.64719 9.0314 4.91473 9.06492 4.03824C9.09806 3.16193 9.62062 2.47315 10.2319 2.50016C10.8438 2.52755 11.3125 3.26019 11.2792 4.13669Z" fill="white"/>
<path d="M12.3662 6.91151C12.2027 6.55352 10.5559 6.15454 8.51719 6.15454H8.49529C6.45657 6.15454 4.80982 6.55352 4.64629 6.91151C4.63893 6.92703 4.63428 6.94427 4.63428 6.96246C4.63428 6.98832 4.64319 7.0115 4.65675 7.03142C4.79471 7.22986 6.6232 8.21112 8.49529 8.21112H8.51719C10.3893 8.21112 12.2178 7.23005 12.3555 7.03142C12.3693 7.01169 12.378 6.98813 12.378 6.96227C12.378 6.94408 12.3736 6.92703 12.3662 6.91151Z" fill="#FAAB07"/>
<path d="M7.65416 4.14979C7.68206 4.4959 7.49004 4.80332 7.22576 4.83684C6.96108 4.87056 6.72412 4.61734 6.69602 4.27103C6.66831 3.92472 6.86013 3.6173 7.12384 3.58397C7.38909 3.55007 7.62645 3.80367 7.65416 4.14979Z" fill="black"/>
<path d="M9.3343 4.26518C9.38836 4.16941 9.7567 3.66584 10.5191 3.84915C10.7195 3.89742 10.8121 3.96829 10.8317 3.99606C10.8605 4.03724 10.8685 4.09585 10.8392 4.17477C10.7813 4.33126 10.6615 4.32704 10.5953 4.2964C10.5525 4.27667 10.0214 3.92672 9.53213 4.44886C9.49842 4.48468 9.43816 4.49694 9.38119 4.45442C9.32403 4.4117 9.30059 4.32532 9.3343 4.26518Z" fill="black"/>
<path d="M8.51718 11.5476H8.49567C7.09015 11.5645 5.38605 11.3804 3.73562 11.0588C3.59437 11.8675 3.50912 12.884 3.58236 14.0963C3.7674 17.1602 5.6081 19.0861 8.44917 19.1141H8.56465C11.4059 19.0861 13.2464 17.1602 13.4317 14.0963C13.5049 12.8838 13.4195 11.8675 13.2782 11.0586C11.6276 11.3804 9.92309 11.5645 8.51718 11.5476Z" fill="white"/>
<path d="M4.51392 11.2913V14.3065C4.51392 14.3065 5.91111 14.585 7.31101 14.3921V11.6109C6.42418 11.5613 5.46779 11.4508 4.51392 11.2913Z" fill="#EB1923"/>
<path d="M14.8392 8.39697C14.8392 8.39697 12.1214 9.24512 8.51727 9.26926H8.49576C4.89748 9.24531 2.18313 8.39985 2.17383 8.39697L1.26355 10.643C3.5404 11.3216 6.3621 11.7589 8.49576 11.7334H8.51727C10.6509 11.7589 13.4724 11.3216 15.7495 10.643L14.8392 8.39697Z" fill="#EB1923"/>
</svg>
