<svg width="20" height="16" viewBox="0 0 20 16" fill="none" xmlns="http://www.w3.org/2000/svg">
<path fill-rule="evenodd" clip-rule="evenodd" d="M17.6437 2.53228C18.5005 2.0276 19.1416 1.23355 19.4475 0.298115C18.6419 0.768786 17.7604 1.10041 16.8412 1.27864C16.2235 0.629206 15.4052 0.198669 14.5134 0.0538685C13.6216 -0.0909321 12.7061 0.0581056 11.9092 0.477842C11.1122 0.897579 10.4784 1.56453 10.1061 2.37515C9.73371 3.18577 9.6437 4.0947 9.85 4.96082C8.21868 4.88019 6.62281 4.46284 5.16599 3.73586C3.70917 3.00888 2.42395 1.98852 1.39375 0.74101C0.867273 1.62969 0.705405 2.68268 0.941211 3.68487C1.17702 4.68706 1.7927 5.56282 2.6625 6.13326C2.01091 6.11342 1.3736 5.94047 0.80375 5.62886V5.6793C0.803936 6.61177 1.13174 7.51549 1.73159 8.23726C2.33143 8.95903 3.16642 9.45445 4.095 9.63952C3.4905 9.80127 2.85642 9.82484 2.24125 9.70842C2.50333 10.511 3.01379 11.2129 3.70121 11.7158C4.38862 12.2188 5.2186 12.4977 6.075 12.5134C5.22388 13.1717 4.24922 13.6583 3.20679 13.9454C2.16437 14.2325 1.07464 14.3145 0 14.1866C1.87628 15.3729 4.05992 16.0024 6.29 16C13.8375 16 17.965 9.8462 17.965 4.50931C17.965 4.33462 17.96 4.15992 17.9525 3.98768C18.7559 3.41585 19.4492 2.70762 20 1.89623C19.2512 2.22281 18.457 2.43721 17.6437 2.53228Z" fill="white"/>
</svg>
