<svg width="25" height="15" viewBox="0 0 25 15" fill="none" xmlns="http://www.w3.org/2000/svg">
<path fill-rule="evenodd" clip-rule="evenodd" d="M24.4263 1.0157C24.6001 0.430218 24.4263 0 23.5992 0H20.8642C20.1688 0 19.8482 0.371645 19.6743 0.781459C19.6743 0.781459 18.2835 4.2065 16.3132 6.43129C15.6757 7.0753 15.3859 7.2802 15.0382 7.2802C14.8644 7.2802 14.6036 7.0753 14.6036 6.48986V1.0157C14.6036 0.313121 14.4109 0 13.8313 0H9.53347C9.09889 0 8.83753 0.326083 8.83753 0.635125C8.83753 1.30116 9.82264 1.45475 9.92419 3.3283V7.39735C9.92419 8.28947 9.76472 8.45122 9.417 8.45122C8.48982 8.45122 6.23445 5.01088 4.8968 1.07423C4.63466 0.309077 4.37173 0 3.67274 0H0.937727C0.156296 0 0 0.371645 0 0.781459C0 1.51333 0.927231 5.14327 4.31733 9.94414C6.57738 13.2228 9.76165 15 12.6592 15C14.3977 15 14.6128 14.6053 14.6128 13.9253V11.4474C14.6128 10.6579 14.7775 10.5003 15.328 10.5003C15.7336 10.5003 16.4291 10.7052 18.0517 12.286C19.9061 14.1595 20.2119 15 21.2549 15H23.99C24.7714 15 25.1621 14.6053 24.9367 13.8263C24.69 13.0499 23.8047 11.9234 22.6298 10.5881C21.9924 9.82704 21.0362 9.00742 20.7464 8.5975C20.3408 8.07064 20.4567 7.8364 20.7464 7.36806C20.7464 7.36806 24.0786 2.62572 24.4263 1.0157Z" fill="white"/>
</svg>
