<svg width="25" height="14" viewBox="0 0 25 14" fill="none" xmlns="http://www.w3.org/2000/svg">
<path d="M20.0116 3.48226C19.9077 3.50253 19.6846 3.62419 19.34 3.84468L18.1437 4.68103L16.6484 5.78602C16.1289 6.18392 15.6524 6.57929 15.2165 6.96705C14.7806 7.35735 14.3954 7.69949 14.0659 7.99602C13.7339 8.29254 13.521 8.52064 13.4272 8.68284C13.4069 8.76647 13.3968 9.00217 13.3968 9.38993C13.3968 9.7777 13.4019 10.2035 13.4146 10.6622C13.4272 11.1235 13.4348 11.5568 13.445 11.9649C13.4576 12.3729 13.4703 12.6466 13.4931 12.7784C13.5793 12.7987 13.7896 12.8088 14.1369 12.8088H15.219C15.6068 12.8088 15.9743 12.8139 16.319 12.8266C16.6662 12.8392 16.8993 12.8545 17.0261 12.8773L16.9957 13.9696C16.8715 13.9696 16.5902 13.9645 16.1517 13.9544C15.7132 13.9417 15.2038 13.9392 14.6209 13.9392H12.8418H11.1691C10.9308 13.9392 10.5811 13.9442 10.1148 13.9544C9.65351 13.9645 9.1593 13.9747 8.62961 13.9848C8.09993 13.9949 7.60319 14 7.13179 14H6.07748L6.26756 12.966H6.9189C7.2357 12.966 7.55503 12.9609 7.8845 12.9533C8.21397 12.9457 8.52571 12.9153 8.82223 12.8646C9.12129 12.8114 9.33671 12.7176 9.4761 12.5833C9.53693 12.5199 9.58001 12.3096 9.60029 11.9497C9.62056 11.5898 9.62817 11.1767 9.62817 10.7129C9.62817 10.2491 9.63324 9.80558 9.64084 9.3874C9.64591 8.96416 9.65604 8.68284 9.66872 8.54345C9.69406 8.45728 9.56481 8.24439 9.28349 7.91238C8.99964 7.57784 8.65242 7.16727 8.23932 6.68067L6.90116 5.10174L5.51484 3.46452L4.24258 2.16437C3.85735 1.77915 3.55322 1.5181 3.33526 1.37871H0V0H11.0018V0.10391H11.0322L11.0018 0.339609V1.37618H7.64374L8.90586 2.95764L10.1984 4.57458L11.3465 6.00652L12.2411 7.12925L16.7194 3.33526H13.9949L13.6452 1.95655H23.3545L23.2759 2.04779H23.324L22.6068 2.97031H22.5713L22.2824 3.3378H20.5894C20.4855 3.38088 20.3867 3.40876 20.2853 3.42397C20.1865 3.44171 20.0927 3.45945 20.0116 3.48226ZM24.8371 5.12708C24.7737 5.12708 24.5811 5.11694 24.2567 5.09667C23.9323 5.07639 23.5749 5.05105 23.1846 5.0181C22.7918 4.98769 22.4193 4.95728 22.0695 4.92433C21.7172 4.89392 21.4967 4.86857 21.403 4.8483V11.2679L23.0985 11.4073L24.8371 5.12708ZM23.1618 12.4185L22.3204 12.3856L21.403 12.2944V13.9012L22.143 13.962L22.9084 13.9949L23.1618 12.4185Z" fill="white"/>
</svg>
