<svg width="33" height="12" viewBox="0 0 33 12" fill="none" xmlns="http://www.w3.org/2000/svg">
<path fill-rule="evenodd" clip-rule="evenodd" d="M2.57791 11.8946V8.0353L0 1.1156H1.29654L3.19603 6.45236L5.382 0H6.57299L3.76891 8.08053V11.8946H2.57791Z" fill="#DA3332"/>
<path fill-rule="evenodd" clip-rule="evenodd" d="M32.3673 4.29633L30.9502 7.85423L32.533 11.8944H31.3119L30.1361 8.75883L28.9903 11.8944H27.8295L29.4124 7.95978L27.9802 4.29633H29.2013L30.1812 7.05518L31.2215 4.29633H32.3673ZM24.1058 7.40198H26.0506C26.0506 6.10544 25.8395 5.1557 25.1612 5.1557C24.4375 5.1557 24.1813 6.04512 24.1058 7.40198ZM25.4023 12C23.8345 12 22.8697 10.7488 22.8697 8.41203C22.8697 5.96983 23.5481 4.19088 25.1612 4.19088C26.4275 4.19088 27.2567 5.14062 27.2567 7.71862V8.3668H24.0907C24.0907 10.0854 24.5731 10.99 25.5078 10.99C26.1711 10.99 26.6536 10.6885 26.955 10.4774L27.2265 11.3819C26.7441 11.7588 26.1561 12 25.4023 12ZM20.5178 5.51748C20.2767 5.27632 20.0204 5.1557 19.6284 5.1557C18.6787 5.1557 18.2264 6.58785 18.2264 8.14062C18.2264 9.91957 18.558 11.0051 19.4173 11.0051C20.0054 11.0051 20.3219 10.7185 20.5178 10.4171V5.51748ZM16.9752 8.38188C16.9752 5.56271 18.0304 4.19088 19.553 4.19088C19.9148 4.19088 20.2917 4.31141 20.5178 4.47727V1.11548H21.6937V11.8944H20.8194L20.7289 11.2915H20.6535C20.3219 11.7136 19.8997 12 19.2817 12C17.7891 12 16.9752 10.7336 16.9752 8.38188ZM12.7238 11.8944H11.5479V4.28135H12.7238V4.9446H12.7992C13.0102 4.65821 13.583 4.19088 14.2916 4.19088C15.2866 4.19088 15.8143 4.74868 15.8143 5.90942V11.8944H14.6233V6.01497C14.6233 5.44209 14.367 5.24616 13.9148 5.24616C13.4172 5.24616 12.9952 5.62303 12.7238 5.99989V11.8944ZM8.92471 7.92971H8.7891C7.3267 7.92971 7.01015 8.57789 7.01015 9.55779C7.01015 10.4321 7.29654 11.0051 7.89958 11.0051C8.3066 11.0051 8.71371 10.7336 8.92471 10.402V7.92971ZM10.2213 11.8944H9.22619C9.18104 11.7287 9.13581 11.4875 9.12073 11.2915H9.04534C8.71371 11.7136 8.29152 12 7.62826 12C6.54282 12 5.80408 11.1859 5.80408 9.69349C5.80408 8.06532 6.63329 7.0401 8.75885 7.0401H8.92471V6.58785C8.92471 5.59287 8.59309 5.17077 7.92974 5.17077C7.3267 5.17077 6.81413 5.48732 6.42219 5.83403L6.19602 4.79382C6.54282 4.50743 7.23623 4.19088 8.00513 4.19088C9.34681 4.19088 10.0856 4.76375 10.0856 6.60292V10.1759C10.0856 10.8995 10.1609 11.5327 10.2213 11.8944Z" fill="#000105"/>
</svg>
