<svg width="20" height="20" viewBox="0 0 20 20" fill="none" xmlns="http://www.w3.org/2000/svg">
<path fill-rule="evenodd" clip-rule="evenodd" d="M9.0556 4.27776C9.0556 3.75615 9.47844 3.33331 10 3.33331C10.5216 3.33331 10.9445 3.75616 10.9445 4.27776V4.95287C13.1326 5.40975 14.7917 7.4445 14.7917 9.84157V12.8044C14.7917 13.7919 15.7144 13.8537 15.7144 13.8537L15.9248 13.9099C16.3623 14.0268 16.6667 14.4231 16.6667 14.876V15.3981C16.6667 15.619 16.4876 15.7981 16.2667 15.7981H3.73337C3.51246 15.7981 3.33337 15.619 3.33337 15.3981V14.876C3.33337 14.4231 3.63774 14.0268 4.07529 13.9099L4.28567 13.8537C5.23817 13.8537 5.20837 12.8044 5.20837 12.8044L5.239 9.74889C5.239 7.48016 6.88296 5.43595 9.0556 4.96074V4.27776ZM12.0239 16.358C12.0239 17.4383 11.1188 18.3333 10 18.3333C8.88132 18.3333 7.9762 17.4383 7.9762 16.358H12.0239Z" fill="white" fill-opacity="0.6"/>
</svg>
