<svg width="32" height="32" viewBox="0 0 32 32" fill="none" xmlns="http://www.w3.org/2000/svg">
<path d="M8.33047 16.1206C10.9292 15.5848 10.5814 12.607 10.504 11.9439L10.5035 11.9392C10.3751 10.9312 9.14051 9.171 7.46531 9.31164C5.35619 9.49195 5.04831 12.4157 5.04831 12.4157C4.76261 13.7695 5.72995 16.659 8.33047 16.1206Z" fill="#A0ABB8"/>
<path d="M13.1678 11.107C14.6058 11.107 15.768 9.51679 15.768 7.55238C15.768 5.58765 14.6058 4 13.1678 4C11.7293 4 10.564 5.58765 10.564 7.55238C10.564 9.51679 11.7289 11.107 13.1678 11.107Z" fill="#A0ABB8"/>
<path d="M19.3672 11.3409C21.2914 11.5828 22.5253 9.61227 22.772 8.11913C23.0241 6.62792 21.7805 4.8935 20.4209 4.59577C19.0552 4.2945 17.3505 6.39245 17.1969 7.76108C17.0096 9.43518 17.4446 11.1044 19.3672 11.3409Z" fill="#A0ABB8"/>
<path d="M26.9899 13.8495C26.9899 13.1353 26.3738 10.9825 24.0792 10.9825C21.7805 10.9825 21.476 13.014 21.476 14.4494C21.476 15.8197 21.5953 17.7302 24.4499 17.6709C27.0875 17.6148 27.019 15.0094 26.9937 14.049C26.9917 13.9709 26.9899 13.9035 26.9899 13.8495Z" fill="#A0ABB8"/>
<path d="M13.6028 23.6291H12.2391C12.2391 23.6291 11.2889 23.5813 10.9995 22.5317C10.8503 22.0662 11.0217 21.5292 11.097 21.3179C11.1659 21.1063 11.4849 20.6173 12.1427 20.4292H13.6028V23.6291Z" fill="#A0ABB8"/>
<path fill-rule="evenodd" clip-rule="evenodd" d="M24.0792 20.1185C24.0792 20.1185 21.1039 17.9099 19.3672 15.5213C17.0096 11.9996 13.6633 13.434 12.5447 15.2223C11.7077 16.5678 10.5224 17.5412 9.87816 18.0702C9.66398 18.2461 9.50961 18.3729 9.44772 18.4479C9.41008 18.4922 9.30253 18.569 9.14947 18.6783C8.28439 19.2961 5.96549 20.952 6.59578 23.6415C7.33927 26.8049 9.94652 26.7452 9.94652 26.7452C9.94652 26.7452 11.8681 26.9252 14.0965 26.4471C16.3297 25.9701 18.2509 26.5646 18.2509 26.5646C18.2509 26.5646 23.46 28.2409 24.8835 25.0153C26.309 21.7926 24.0792 20.1185 24.0792 20.1185ZM13.6303 17.0391V19.1641H11.8261C11.8261 19.1641 10.0228 19.3077 9.39157 21.2692C9.18573 22.4933 9.53462 23.2474 9.63993 23.475C9.64726 23.4909 9.65341 23.5041 9.65811 23.5149C9.73104 23.6794 10.3139 24.6374 11.7773 24.918H15.163V17.0623L13.6303 17.0391ZM15.9926 23.4913V19.3548L17.5757 19.3306V23.0475C17.6722 23.4436 18.1851 23.5149 18.1851 23.5149H19.7904V19.3548H21.472V24.8958H17.5757C16.0632 24.5213 15.9926 23.4913 15.9926 23.4913Z" fill="#A0ABB8"/>
</svg>
