<svg width="32" height="32" viewBox="0 0 32 32" fill="none" xmlns="http://www.w3.org/2000/svg">
<path d="M13.7975 14.1564C13.0749 14.1564 12.5044 14.7616 12.5044 15.5001C12.5044 16.2385 13.0875 16.8437 13.7975 16.8437C14.5201 16.8437 15.0905 16.2385 15.0905 15.5001C15.1032 14.7616 14.5201 14.1564 13.7975 14.1564ZM18.4246 14.1564C17.702 14.1564 17.1315 14.7616 17.1315 15.5001C17.1315 16.2385 17.7147 16.8437 18.4246 16.8437C19.1472 16.8437 19.7177 16.2385 19.7177 15.5001C19.7177 14.7616 19.1472 14.1564 18.4246 14.1564Z" fill="#A0ABB8"/>
<path d="M24.4229 4H7.57714C6.15657 4 5 5.104 5 6.472V22.696C5 24.064 6.15657 25.168 7.57714 25.168H21.8331L21.1669 22.948L22.776 24.376L24.2971 25.72L27 28V6.472C27 5.104 25.8434 4 24.4229 4ZM19.5703 19.672C19.5703 19.672 19.1177 19.156 18.7406 18.7C20.3874 18.256 21.016 17.272 21.016 17.272C20.5006 17.596 20.0103 17.824 19.5703 17.98C18.9417 18.232 18.3383 18.4 17.7474 18.496C16.5406 18.712 15.4343 18.652 14.4914 18.484C13.7749 18.352 13.1589 18.16 12.6434 17.968C12.3543 17.86 12.04 17.728 11.7257 17.56C11.688 17.536 11.6503 17.524 11.6126 17.5C11.5874 17.488 11.5749 17.476 11.5623 17.464C11.336 17.344 11.2103 17.26 11.2103 17.26C11.2103 17.26 11.8137 18.22 13.4103 18.676C13.0331 19.132 12.568 19.672 12.568 19.672C9.78971 19.588 8.73371 17.848 8.73371 17.848C8.73371 13.984 10.544 10.852 10.544 10.852C12.3543 9.55599 14.0766 9.59199 14.0766 9.59199L14.2023 9.73599C11.9394 10.36 10.896 11.308 10.896 11.308C10.896 11.308 11.1726 11.164 11.6377 10.96C12.9829 10.396 14.0514 10.24 14.4914 10.204C14.5669 10.192 14.6297 10.18 14.7051 10.18C15.472 10.084 16.3394 10.06 17.2446 10.156C18.4389 10.288 19.7211 10.624 21.0286 11.308C21.0286 11.308 20.0354 10.408 17.8983 9.78399L18.0743 9.59199C18.0743 9.59199 19.7966 9.55599 21.6069 10.852C21.6069 10.852 23.4171 13.984 23.4171 17.848C23.4171 17.848 22.3486 19.588 19.5703 19.672Z" fill="#A0ABB8"/>
</svg>
