<svg width="32" height="32" viewBox="0 0 32 32" fill="none" xmlns="http://www.w3.org/2000/svg">
<path fill-rule="evenodd" clip-rule="evenodd" d="M15.9989 4C9.37327 4 4 9.50851 4 16.3041C4 21.7401 7.43804 26.3512 12.2065 27.9782C12.8069 28.0915 13.0257 27.7116 13.0257 27.3853C13.0257 27.0937 13.0154 26.3195 13.0095 25.2931C9.67163 26.0363 8.96737 23.6434 8.96737 23.6434C8.4215 22.2219 7.63473 21.8435 7.63473 21.8435C6.54519 21.0807 7.71723 21.0958 7.71723 21.0958C8.92169 21.1826 9.55522 22.3639 9.55522 22.3639C10.6256 24.2439 12.3642 23.7009 13.0478 23.3859C13.1568 22.5913 13.467 22.049 13.8095 21.7416C11.145 21.4311 8.34341 20.3752 8.34341 15.6605C8.34341 14.3176 8.8112 13.2186 9.57881 12.3591C9.45505 12.0479 9.04324 10.7963 9.69667 9.1029C9.69667 9.1029 10.7037 8.77207 12.9962 10.3643C13.9532 10.0909 14.9801 9.9549 16.0004 9.94961C17.0199 9.9549 18.0461 10.0909 19.0045 10.3643C21.2956 8.77207 22.3011 9.1029 22.3011 9.1029C22.956 10.7963 22.5442 12.0479 22.4212 12.3591C23.1903 13.2186 23.6544 14.3176 23.6544 15.6605C23.6544 20.3873 20.8484 21.4274 18.1758 21.7318C18.606 22.1117 18.9898 22.8625 18.9898 24.0105C18.9898 25.6549 18.975 26.9819 18.975 27.3853C18.975 27.7146 19.1916 28.0975 19.8001 27.9774C24.5649 26.3467 28 21.7386 28 16.3041C28 9.50851 22.6267 4 15.9989 4Z" fill="#A0ABB8"/>
</svg>
