<svg width="32" height="32" viewBox="0 0 32 32" fill="none" xmlns="http://www.w3.org/2000/svg">
<path d="M12.245 4.65668C9.24868 5.6715 6.76197 7.8051 5.306 10.6104C4.81421 11.563 4.45549 12.5786 4.23986 13.6285C3.70156 16.2603 4.0754 18.9967 5.29998 21.3883C6.1053 22.9476 7.23907 24.3143 8.6234 25.3945C9.94179 26.4228 11.4565 27.1714 13.0747 27.5946C15.1151 28.13 17.2866 28.118 19.3406 27.6593C21.1973 27.2397 22.9546 26.369 24.3581 25.1043C25.8289 23.7596 26.9014 22.0372 27.4586 20.1251C28.07 18.0664 28.1498 15.8678 27.7673 13.7519H16.2476V18.4348H22.923C22.7871 19.1863 22.4999 19.9025 22.0788 20.5399C21.6576 21.1773 21.1114 21.7228 20.473 22.1432C19.655 22.6732 18.7364 23.029 17.7745 23.1884C16.8076 23.3606 15.8177 23.3586 14.8516 23.1824C13.8738 22.9868 12.9463 22.5938 12.126 22.0275C10.8226 21.1285 9.8404 19.8378 9.32212 18.3431C8.80109 16.8407 8.79507 15.17 9.32212 13.6737C9.69277 12.6079 10.3003 11.6398 11.099 10.8419C12.099 9.83676 13.3705 9.14435 14.7583 8.84937C15.9504 8.60192 17.1852 8.65046 18.3542 8.99073C19.3406 9.28097 20.2501 9.81784 20.994 10.5126L23.2453 8.30649C23.6398 7.91398 24.0539 7.53352 24.4364 7.12598C23.2893 6.08127 21.9499 5.26918 20.4926 4.73488C17.8303 3.78407 14.9249 3.75652 12.245 4.65668Z" fill="#A0ABB8"/>
<path d="M12.2452 4.65678C14.9247 3.75747 17.829 3.78236 20.4927 4.72746C21.9534 5.25531 23.2906 6.08091 24.4366 7.12006C24.0541 7.5261 23.64 7.90657 23.2455 8.30057L20.9942 10.5067C20.2427 9.80334 19.3388 9.28255 18.3529 8.98481C17.185 8.64116 15.95 8.59207 14.7584 8.84195C13.5142 9.11382 12.3609 9.70041 11.4089 10.5454C10.457 11.3905 9.7385 12.4656 9.32231 13.6677C7.9836 12.6481 6.64791 11.6361 5.30469 10.6165C6.7588 7.80785 9.24662 5.6716 12.2452 4.65678Z" fill="#A0ABB8"/>
<path d="M4.24605 13.6228C4.4644 12.5777 4.81828 11.5581 5.3137 10.6031C6.6494 11.6227 7.98509 12.6363 9.32831 13.6559C8.80126 15.1583 8.80126 16.829 9.32831 18.3253C7.99262 19.3449 6.65542 20.3645 5.31973 21.3766C4.0841 18.9908 3.70513 16.254 4.24605 13.6228Z" fill="#A0ABB8"/>
<path d="M16.2478 13.746H27.7676C28.1597 15.8656 28.054 18.0472 27.4589 20.1192C26.9012 22.0314 25.8281 23.7539 24.3568 25.0984L20.4672 22.1374C21.1053 21.7168 21.6513 21.1712 22.0721 20.5338C22.493 19.8964 22.78 19.1803 22.9157 18.4289H16.2402C16.2478 16.8679 16.2478 15.3069 16.2478 13.746Z" fill="#A0ABB8"/>
<path d="M5.30566 21.3826C6.64286 20.3705 7.97856 19.3524 9.31425 18.3313C9.83526 19.825 10.8175 21.1151 12.1197 22.0157C12.9358 22.5766 13.871 22.9766 14.8453 23.1706C15.806 23.3631 16.7999 23.3376 17.7666 23.1766C18.729 23.0174 19.6482 22.6616 20.4666 22.1315L24.3577 25.0925C22.9543 26.3633 21.197 27.228 19.3402 27.646C17.2863 28.1047 15.1148 28.1182 13.0744 27.5829C11.4551 27.1624 9.9399 26.4135 8.62306 25.3828C7.24099 24.3042 6.10924 22.9396 5.30566 21.3826Z" fill="#A0ABB8"/>
</svg>
