<svg width="32" height="32" viewBox="0 0 32 32" fill="none" xmlns="http://www.w3.org/2000/svg">
<path d="M15.9994 5C13.0119 5 12.6378 5.01375 11.4645 5.06602C10.2954 5.11966 9.49492 5.30535 8.7962 5.57768C8.06203 5.85361 7.3969 6.28639 6.84721 6.84583C6.28727 7.39539 5.85402 8.06053 5.57768 8.79482C5.30535 9.49492 5.11966 10.294 5.06602 11.4645C5.01375 12.6378 5 13.0133 5 16.0007C5 18.9882 5.01375 19.3623 5.06602 20.5355C5.11966 21.706 5.30535 22.5052 5.57768 23.2053C5.85827 23.9287 6.23514 24.5422 6.84583 25.1542C7.4579 25.7649 8.06997 26.1418 8.79482 26.4224C9.49492 26.6947 10.294 26.8804 11.4645 26.9341C12.6378 26.9877 13.0119 27.0001 15.9994 27.0001C18.9868 27.0001 19.3623 26.9863 20.5355 26.9341C21.706 26.8804 22.5052 26.6947 23.2053 26.4224C23.9394 26.1465 24.6046 25.7137 25.1542 25.1542C25.7137 24.6046 26.1465 23.9394 26.4224 23.2053C26.6947 22.5052 26.8804 21.706 26.9341 20.5355C26.9877 19.3623 27.0001 18.9882 27.0001 16.0007C27.0001 13.0133 26.9863 12.6378 26.9341 11.4645C26.8804 10.294 26.6947 9.49492 26.4224 8.79482C26.1465 8.06066 25.7137 7.39553 25.1542 6.84583C24.6046 6.28639 23.9394 5.85361 23.2053 5.57768C22.5052 5.30535 21.706 5.11966 20.5355 5.06602C19.3623 5.01238 18.9868 5 15.9994 5ZM15.9994 6.982C18.9373 6.982 19.2853 6.99301 20.4448 7.04665C21.5176 7.09479 22.0994 7.27497 22.4873 7.42489C23.0003 7.62433 23.3676 7.86228 23.7527 8.2474C24.1378 8.63252 24.3758 8.99976 24.5752 9.5128C24.7265 9.90067 24.9053 10.4825 24.9534 11.5553C25.0071 12.7148 25.0181 13.0628 25.0181 16.0007C25.0181 18.9373 25.0071 19.2853 24.9534 20.4448C24.9053 21.5176 24.7251 22.0994 24.5752 22.4873C24.3758 23.0017 24.1378 23.3676 23.7527 23.7527C23.3676 24.1378 23.0003 24.3758 22.4873 24.5752C22.0994 24.7265 21.5176 24.9053 20.4448 24.9534C19.2853 25.0071 18.9373 25.0181 15.9994 25.0181C13.0628 25.0181 12.7148 25.0071 11.5553 24.9534C10.4825 24.9053 9.90067 24.7265 9.5128 24.5752C9.03484 24.399 8.60244 24.118 8.2474 23.7527C7.88212 23.3976 7.60106 22.9652 7.42489 22.4873C7.27359 22.0994 7.09479 21.5176 7.04665 20.4448C6.99301 19.2853 6.982 18.9373 6.982 16.0007C6.982 13.0628 6.99301 12.7148 7.04665 11.5553C7.09479 10.4825 7.27359 9.90067 7.42489 9.5128C7.62433 8.99976 7.86228 8.63252 8.2474 8.2474C8.63252 7.86228 8.99839 7.62433 9.5128 7.42489C9.90067 7.27359 10.4825 7.09479 11.5553 7.04665C12.7148 6.99301 13.0628 6.982 15.9994 6.982Z" fill="#A0ABB8"/>
<path d="M15.9912 19.5894C15.5246 19.5985 15.061 19.5139 14.6273 19.3404C14.1937 19.1669 13.7987 18.9081 13.4656 18.5792C13.1324 18.2502 12.8678 17.8577 12.6872 17.4245C12.5065 16.9913 12.4134 16.5262 12.4134 16.0564C12.4134 15.5866 12.5065 15.1215 12.6872 14.6884C12.8678 14.2552 13.1324 13.8627 13.4656 13.5337C13.7987 13.2047 14.1937 12.9459 14.6273 12.7725C15.061 12.599 15.5246 12.5144 15.9912 12.5234C16.9101 12.5414 17.7853 12.9215 18.4289 13.5821C19.0724 14.2427 19.4329 15.1311 19.4329 16.0564C19.4329 16.9818 19.0724 17.8702 18.4289 18.5308C17.7853 19.1914 16.9101 19.5715 15.9912 19.5894ZM15.9912 10.6135C15.2741 10.6022 14.562 10.7347 13.8963 11.0032C13.2306 11.2716 12.6246 11.6708 12.1136 12.1773C11.6025 12.6838 11.1967 13.2877 10.9197 13.9536C10.6427 14.6196 10.5 15.3344 10.5 16.0564C10.5 16.7784 10.6427 17.4932 10.9197 18.1592C11.1967 18.8252 11.6025 19.429 12.1136 19.9356C12.6246 20.4421 13.2306 20.8412 13.8963 21.1097C14.562 21.3782 15.2741 21.5107 15.9912 21.4994C17.4103 21.4771 18.7639 20.8938 19.7597 19.8755C20.7555 18.8572 21.3136 17.4855 21.3136 16.0564C21.3136 14.6274 20.7555 13.2557 19.7597 12.2374C18.7639 11.219 17.4103 10.6358 15.9912 10.6135ZM22.875 10.3974C22.875 10.7349 22.7419 11.0585 22.5049 11.2972C22.2679 11.5358 21.9464 11.6699 21.6112 11.6699C21.276 11.6699 20.9546 11.5358 20.7176 11.2972C20.4806 11.0585 20.3474 10.7349 20.3474 10.3974C20.3474 10.06 20.4806 9.73631 20.7176 9.49769C20.9546 9.25906 21.276 9.125 21.6112 9.125C21.9464 9.125 22.2679 9.25906 22.5049 9.49769C22.7419 9.73631 22.875 10.06 22.875 10.3974Z" fill="#A0ABB8"/>
</svg>
