<svg width="32" height="32" viewBox="0 0 32 32" fill="none" xmlns="http://www.w3.org/2000/svg">
<path fill-rule="evenodd" clip-rule="evenodd" d="M7 25.1255C7 27.1201 8.14217 28 9.48223 28C14.0263 28 17.627 19.6769 17.627 12.4576C17.627 5.74843 14.0253 4 12.5061 4C10.6175 4 8.52583 5.86663 8.52583 10.0125C8.52583 14.4487 10.6435 18.4456 13.9576 20.6393C12.2897 20.0157 10.6819 19.0467 10.6819 19.0467C9.53275 19.7081 7 22.0464 7 25.1255ZM16.1581 27.1683C15.624 27.1683 15.2747 26.7586 15.2747 25.7123C15.2747 24.8919 15.5548 23.8538 15.8532 22.9968C17.1305 19.5798 18.0927 17.0901 19.1213 14.9073C20.1878 12.8003 21.8693 10.6785 23.0461 10.6785C23.8157 10.6785 23.9999 11.2505 23.9999 11.9299C23.9999 14.7365 21.5703 18.2406 19.5435 20.4775C19.6243 23.9043 17.4948 27.1683 16.1581 27.1683Z" fill="#A0ABB8"/>
</svg>
