<svg width="32" height="32" viewBox="0 0 32 32" fill="none" xmlns="http://www.w3.org/2000/svg">
<path d="M16.0015 5.95585C17.4947 5.95585 18.711 7.20866 18.711 8.75C18.711 10.2898 17.4947 11.5442 16.0015 11.5442C15.2833 11.5429 14.5948 11.2482 14.0869 10.7244C13.579 10.2007 13.2932 9.49068 13.292 8.75C13.292 7.20866 14.5084 5.95585 16.0015 5.95585ZM16.0015 15.4985C17.7366 15.4969 19.4002 14.7854 20.6271 13.5201C21.854 12.2549 22.5439 10.5393 22.5455 8.75C22.5436 6.96067 21.8535 5.24518 20.6267 3.97978C19.4 2.71439 17.7366 2.00241 16.0015 2C14.2659 2.00161 12.6018 2.71323 11.3744 3.97871C10.147 5.24419 9.45654 6.96014 9.45459 8.75C9.45615 10.54 10.1465 12.2562 11.374 13.5217C12.6014 14.7873 14.2658 15.4988 16.0015 15.5V15.4985Z" fill="#A0ABB8"/>
<path d="M18.8847 21.2345C20.3473 20.8918 21.7459 20.2955 23.0233 19.47C23.9997 18.8383 24.2935 17.5111 23.6786 16.5089C23.3763 16.0233 22.9064 15.681 22.3688 15.5545C21.8311 15.4281 21.2678 15.5275 20.7985 15.8317C19.3519 16.7581 17.692 17.2479 15.9996 17.2479C14.3072 17.2479 12.6472 16.7581 11.2007 15.8317C10.7316 15.527 10.1684 15.4271 9.63061 15.5533C9.09283 15.6795 8.62289 16.0217 8.32061 16.5074C8.17472 16.7459 8.07578 17.0128 8.02968 17.2924C7.98358 17.5719 7.99125 17.8584 8.05224 18.1348C8.11323 18.4111 8.22629 18.6718 8.38471 18.9011C8.54312 19.1305 8.74365 19.324 8.97438 19.47C10.2524 20.2954 11.6514 20.8916 13.1145 21.2345L9.12991 25.3344C8.93654 25.5312 8.78275 25.7671 8.67772 26.028C8.57268 26.2889 8.51855 26.5694 8.51855 26.8529C8.51855 27.1363 8.57268 27.4168 8.67772 27.6777C8.78275 27.9386 8.93654 28.1745 9.12991 28.3713C9.53888 28.7889 10.0717 29 10.6059 29C11.1416 29 11.6759 28.7889 12.0849 28.3698L15.9989 24.3428L19.9158 28.3698C20.3119 28.7739 20.8414 28.9997 21.3925 28.9997C21.9436 28.9997 22.4732 28.7739 22.8693 28.3698C23.0628 28.1731 23.2168 27.9372 23.3219 27.6763C23.4271 27.4154 23.4813 27.1348 23.4813 26.8513C23.4813 26.5679 23.4271 26.2873 23.3219 26.0264C23.2168 25.7655 23.0628 25.5296 22.8693 25.3329L18.8847 21.233" fill="#A0ABB8"/>
</svg>
