<svg width="32" height="32" viewBox="0 0 32 32" fill="none" xmlns="http://www.w3.org/2000/svg">
<path opacity="0.68" d="M24.8258 10.0977C25.1425 8.23052 24.8237 6.96034 23.7314 5.80945C22.5288 4.54269 20.3564 4 17.5769 4H9.50861C8.94065 4 8.45677 4.38208 8.36846 4.90106L5.00856 24.5972C4.94246 24.9859 5.26742 25.3372 5.6926 25.3372H10.6736L10.3299 27.3527C10.272 27.6927 10.5559 28 10.9282 28H15.1268C15.6237 28 16.0467 27.6658 16.1242 27.2119L16.1655 27.0144L16.9563 22.3776L17.0074 22.1214C17.0848 21.6677 17.5079 21.333 18.0047 21.333H18.6327C22.7002 21.333 25.885 19.8054 26.8155 15.3872C27.2044 13.541 27.0032 12 25.9749 10.9166C25.6642 10.5895 25.2771 10.3186 24.8258 10.0977Z" fill="#A0ABB8"/>
<path opacity="0.7" d="M24.8258 10.0977C25.1425 8.23052 24.8237 6.96034 23.7314 5.80945C22.5288 4.54269 20.3564 4 17.5769 4H9.50861C8.94065 4 8.45677 4.38208 8.36846 4.90106L5.00856 24.5972C4.94246 24.9859 5.26742 25.3372 5.6926 25.3372H10.6736L11.9248 18.0018L11.8859 18.2319C11.9745 17.7131 12.4539 17.3308 13.0221 17.3308H15.3897C20.0391 17.3308 23.6798 15.5844 24.7433 10.534C24.775 10.3849 24.8017 10.2399 24.8258 10.0977Z" fill="#A0ABB8"/>
<path d="M13.2691 10.1223C13.3222 9.81043 13.539 9.55473 13.8307 9.42566C13.9632 9.36699 14.1115 9.33423 14.2667 9.33423H20.5912C21.3405 9.33423 22.0391 9.3797 22.6777 9.47479C22.8601 9.50192 23.0378 9.53322 23.2105 9.56866C23.3829 9.60411 23.5505 9.64346 23.7126 9.68747C23.7938 9.70922 23.8734 9.73245 23.9519 9.7564C24.2655 9.85272 24.5577 9.96614 24.8263 10.0979C25.1431 8.23076 24.8242 6.96058 23.7319 5.80969C22.5288 4.54269 20.3564 4 17.5769 4H9.50861C8.94065 4 8.45677 4.38208 8.36846 4.90106L5.00856 24.5972C4.94246 24.9859 5.26742 25.3372 5.6926 25.3372H10.6736L11.9248 18.0018L13.2691 10.1223Z" fill="#A0ABB8"/>
</svg>
