<svg width="32" height="32" viewBox="0 0 32 32" fill="none" xmlns="http://www.w3.org/2000/svg">
<path d="M12.117 11.5576C12.117 11.5576 15.4215 4.54066 15.5837 4.24521C15.7458 3.94976 16.2941 3.88821 16.4656 4.24521C16.6371 4.60222 19.8343 11.7054 19.8343 11.7054C19.8343 11.7054 27.2085 12.3824 27.6005 12.4317C27.939 12.4742 28.1027 12.9733 27.9312 13.2442C27.7606 13.4288 22.2964 18.5254 22.2964 18.5254C22.2964 18.5254 22.3822 19.3009 22.4189 19.621C21.5002 19.7324 18.1438 19.6579 14.3954 19.264C14.9589 18.8208 21.9534 13.9828 22.0759 13.8843C17.5436 12.4686 9.37311 13.8843 9.37311 13.8843C9.37311 13.8843 16.2819 14.1182 18.3276 14.5491C18.0458 14.7953 10.6593 20.1996 10.6593 20.1996C10.6593 20.1996 20.0425 21.1968 24.0849 19.621C23.7541 20.0642 22.6027 20.6182 22.6027 20.6182C22.6027 20.6182 23.5214 25.8378 23.6194 26.441C23.7174 27.0442 23.0804 27.0935 22.7497 26.8965C22.4189 26.6995 16.0614 22.9695 16.0614 22.9695C16.0614 22.9695 9.39761 26.7991 9.16487 26.8965C8.93213 26.9939 8.31019 27.0565 8.41764 26.441C8.5251 25.8255 9.82635 18.5254 9.82635 18.5254C9.82635 18.5254 4.38752 13.4781 4.14254 13.2319C3.89756 12.9857 3.94655 12.4932 4.46103 12.4317C4.97551 12.3701 12.117 11.5576 12.117 11.5576Z" fill="#A0ABB8"/>
</svg>
