<svg width="32" height="32" viewBox="0 0 32 32" fill="none" xmlns="http://www.w3.org/2000/svg">
<path fill-rule="evenodd" clip-rule="evenodd" d="M22.5307 15.11C22.1646 15.0009 21.9134 14.926 22.1052 14.4469C22.5203 13.4052 22.5633 12.5066 22.1131 11.8657C21.2693 10.6637 18.96 10.7284 16.3128 11.8334C16.3128 11.832 15.4817 12.1961 15.6942 11.5384C16.1013 10.2333 16.0401 9.14039 15.4064 8.50908C13.9705 7.07619 10.1517 8.56334 6.87638 11.8276C4.42412 14.2732 3 16.8652 3 19.1066C3 23.3937 8.51354 26 13.9076 26C20.9783 26 25.6819 21.9035 25.6819 18.6513C25.6819 16.6864 24.0222 15.5714 22.5307 15.11ZM13.9219 24.4635C9.6181 24.8867 5.90266 22.9473 5.62285 20.1294C5.34343 17.3121 8.60713 14.6846 12.9106 14.2605C17.2149 13.8356 20.9304 15.7759 21.2098 18.5925C21.4887 21.4109 18.2263 24.0393 13.9219 24.4635Z" fill="#A0ABB8"/>
<path fill-rule="evenodd" clip-rule="evenodd" d="M27.2266 7.26467C25.5194 5.3771 23.0006 4.65786 20.6755 5.15063H20.6747C20.1373 5.26492 19.794 5.7929 19.9096 6.32839C20.0238 6.86406 20.553 7.20675 21.0908 7.09188C22.7447 6.74188 24.5343 7.25447 25.7489 8.59501C26.9615 9.93554 27.2907 11.7646 26.7714 13.3676L26.7716 13.3682C26.6022 13.8908 26.8886 14.4494 27.4131 14.6181C27.9356 14.7868 28.4968 14.5013 28.6662 13.9806C28.6662 13.9799 28.6662 13.9779 28.6664 13.9768C29.3954 11.7209 28.9352 9.15031 27.2266 7.26467Z" fill="#A0ABB8"/>
<path fill-rule="evenodd" clip-rule="evenodd" d="M24.6037 9.62424C23.7728 8.70528 22.5458 8.35586 21.4129 8.59599C20.9498 8.69431 20.6547 9.14879 20.7541 9.61096C20.8533 10.0708 21.3085 10.3668 21.7703 10.2663V10.2673C22.3239 10.1503 22.9243 10.3204 23.331 10.7687C23.7376 11.2186 23.8472 11.8312 23.6722 12.3686H23.6728C23.5277 12.8169 23.7739 13.2989 24.2243 13.4448C24.6751 13.5885 25.1579 13.3434 25.3032 12.8943C25.6592 11.7948 25.4367 10.5434 24.6037 9.62405" fill="#A0ABB8"/>
<path fill-rule="evenodd" clip-rule="evenodd" d="M14.3518 16.4285C12.3036 15.8969 9.98855 16.9148 9.09896 18.7144C8.19296 20.5496 9.06905 22.5869 11.1381 23.253C13.2818 23.9421 15.8079 22.8859 16.6867 20.9052C17.553 18.9686 16.4712 16.9746 14.3518 16.4285ZM12.7876 21.1155C12.3713 21.7776 11.4798 22.0678 10.8081 21.7622C10.1464 21.4621 9.95131 20.6924 10.3677 20.0467C10.779 19.4038 11.6404 19.1169 12.3071 19.3957C12.9811 19.6822 13.1967 20.4463 12.7876 21.1155ZM14.159 19.3601C14.0085 19.6172 13.6756 19.7404 13.4151 19.6334C13.1585 19.5283 13.0782 19.2412 13.2239 18.9888C13.374 18.7379 13.694 18.6155 13.9496 18.7163C14.2096 18.8114 14.3028 19.1019 14.159 19.3601Z" fill="#A0ABB8"/>
</svg>
