<svg width="32" height="32" viewBox="0 0 32 32" fill="none" xmlns="http://www.w3.org/2000/svg">
<path d="M23.9486 11.731C23.8398 11.7527 23.6063 11.8831 23.2455 12.1193L21.9933 13.0154L20.428 14.1993C19.8841 14.6256 19.3853 15.0492 18.929 15.4647C18.4727 15.8829 18.0694 16.2495 17.7245 16.5672C17.3769 16.8849 17.1541 17.1293 17.0559 17.303C17.0347 17.3927 17.0241 17.6452 17.0241 18.0606C17.0241 18.4761 17.0294 18.9323 17.0427 19.4238C17.0559 19.918 17.0639 20.3823 17.0745 20.8195C17.0878 21.2567 17.101 21.55 17.1249 21.6912C17.2151 21.7129 17.4353 21.7238 17.7988 21.7238H18.9316C19.3376 21.7238 19.7222 21.7292 20.0831 21.7428C20.4465 21.7563 20.6906 21.7726 20.8233 21.7971L20.7914 22.9674C20.6614 22.9674 20.3669 22.962 19.908 22.9511C19.449 22.9375 18.9157 22.9348 18.3055 22.9348H16.4431H14.692C14.4427 22.9348 14.0765 22.9403 13.5884 22.9511C13.1055 22.962 12.5882 22.9728 12.0337 22.9837C11.4792 22.9946 10.9592 23 10.4657 23H9.36204L9.56102 21.8921H10.2429C10.5745 21.8921 10.9088 21.8867 11.2537 21.8785C11.5986 21.8704 11.9249 21.8378 12.2353 21.7835C12.5484 21.7265 12.7739 21.626 12.9198 21.4821C12.9835 21.4142 13.0286 21.1888 13.0498 20.8032C13.071 20.4176 13.079 19.975 13.079 19.4781C13.079 18.9812 13.0843 18.506 13.0922 18.0579C13.0976 17.6045 13.1082 17.303 13.1214 17.1537C13.148 17.0614 13.0127 16.8333 12.7182 16.4776C12.421 16.1191 12.0576 15.6792 11.6251 15.1579L10.2243 13.4661L8.77306 11.712L7.44122 10.319C7.03796 9.90623 6.71959 9.62654 6.49143 9.47719H3V8H14.5169V8.11133H14.5488L14.5169 8.36387V9.47448H11.0016L12.3229 11.1689L13.6759 12.9013L14.8778 14.4356L15.8143 15.6385L20.5022 11.5735H17.6502L17.2841 10.0963H27.448L27.3657 10.1941H27.4161L26.6653 11.1825H26.6282L26.3257 11.5762H24.5535C24.4447 11.6224 24.3412 11.6522 24.2351 11.6685C24.1316 11.6875 24.0335 11.7066 23.9486 11.731ZM29 13.4933C28.9337 13.4933 28.732 13.4824 28.3924 13.4607C28.0529 13.439 27.6788 13.4118 27.2702 13.3765C26.859 13.344 26.469 13.3114 26.1029 13.2761C25.7341 13.2435 25.5033 13.2163 25.4051 13.1946V20.0728L27.18 20.2221L29 13.4933ZM27.2463 21.3056L26.3655 21.2703L25.4051 21.1725V22.8941L26.1798 22.9593L26.981 22.9946L27.2463 21.3056Z" fill="#A0ABB8"/>
</svg>
