<svg width="32" height="32" viewBox="0 0 32 32" fill="none" xmlns="http://www.w3.org/2000/svg">
<path fill-rule="evenodd" clip-rule="evenodd" d="M4.19625 21V17.7554L2 11.9379H3.10459L4.72285 16.4246L6.58519 11H7.59985L5.21091 17.7935V21H4.19625Z" fill="#A0ABB8"/>
<path fill-rule="evenodd" clip-rule="evenodd" d="M29.8606 14.9334L28.673 17.7352L29.9995 20.9168H28.9761L27.9908 18.4475L27.0306 20.9168H26.0578L27.3843 17.8183L26.1842 14.9334H27.2074L28.0286 17.1059L28.9004 14.9334H29.8606ZM22.9373 17.379H24.5671C24.5671 16.358 24.3902 15.6101 23.8217 15.6101C23.2153 15.6101 23.0006 16.3105 22.9373 17.379ZM24.0238 20.9999C22.7099 20.9999 21.9014 20.0146 21.9014 18.1744C21.9014 16.2512 22.4699 14.8503 23.8217 14.8503C24.8829 14.8503 25.5778 15.5982 25.5778 17.6284V18.1388H22.9247C22.9247 19.4922 23.3289 20.2046 24.1122 20.2046C24.6681 20.2046 25.0724 19.9671 25.325 19.8009L25.5525 20.5131C25.1483 20.81 24.6555 20.9999 24.0238 20.9999ZM19.9305 15.895C19.7284 15.7051 19.5137 15.6101 19.1852 15.6101C18.3892 15.6101 18.0103 16.7379 18.0103 17.9607C18.0103 19.3616 18.2882 20.2164 19.0082 20.2164C19.501 20.2164 19.7663 19.9908 19.9305 19.7534V15.895ZM16.9617 18.1507C16.9617 15.9306 17.846 14.8503 19.122 14.8503C19.4252 14.8503 19.7411 14.9452 19.9305 15.0758V12.4285H20.916V20.9168H20.1832L20.1074 20.442H20.0442C19.7663 20.7744 19.4125 20.9999 18.8946 20.9999C17.6438 20.9999 16.9617 20.0026 16.9617 18.1507ZM13.3989 20.9168H12.4135V14.9215H13.3989V15.4439H13.4621C13.6389 15.2183 14.119 14.8503 14.7128 14.8503C15.5466 14.8503 15.9888 15.2896 15.9888 16.2036V20.9168H14.9907V16.2868C14.9907 15.8356 14.776 15.6813 14.397 15.6813C13.98 15.6813 13.6264 15.9781 13.3989 16.2749V20.9168ZM10.2153 17.7946H10.1016C8.87609 17.7946 8.61081 18.305 8.61081 19.0767C8.61081 19.7652 8.85081 20.2164 9.35617 20.2164C9.69726 20.2164 10.0384 20.0026 10.2153 19.7415V17.7946ZM11.3018 20.9168H10.4679C10.4301 20.7862 10.3922 20.5963 10.3795 20.442H10.3163C10.0384 20.7744 9.68462 20.9999 9.1288 20.9999C8.21918 20.9999 7.6001 20.3588 7.6001 19.1836C7.6001 17.9014 8.29499 17.094 10.0763 17.094H10.2153V16.7379C10.2153 15.9544 9.93734 15.622 9.38144 15.622C8.87609 15.622 8.44654 15.8712 8.11809 16.1443L7.92855 15.3251C8.21918 15.0996 8.80027 14.8503 9.44462 14.8503C10.569 14.8503 11.1881 15.3014 11.1881 16.7498V19.5634C11.1881 20.1332 11.2512 20.6319 11.3018 20.9168Z" fill="#A0ABB8"/>
</svg>
