<svg width="32" height="32" viewBox="0 0 32 32" fill="none" xmlns="http://www.w3.org/2000/svg">
<path fill-rule="evenodd" clip-rule="evenodd" d="M28.4582 9.80983C29 11.8159 29 15.9992 29 15.9992C29 15.9992 29 20.1841 28.4566 22.1886C28.3086 22.7335 28.0185 23.2304 27.6152 23.6295C27.2119 24.0286 26.7097 24.3159 26.1588 24.4626C24.1303 25 16 25 16 25C16 25 7.8697 25 5.84283 24.4626C5.29145 24.316 4.78874 24.0285 4.38515 23.6291C3.98156 23.2297 3.69128 22.7323 3.54343 22.1869C3 20.1857 3 15.9992 3 15.9992C3 15.9992 3 11.8159 3.54343 9.80983C3.69178 9.26502 3.98228 8.76833 4.38584 8.36951C4.7894 7.9707 5.29184 7.68376 5.84283 7.53743C7.8697 7 16 7 16 7C16 7 24.1303 7 26.1588 7.53743C26.7095 7.684 27.2116 7.97105 27.6149 8.36985C28.0181 8.76865 28.3084 9.26521 28.4566 9.80983H28.4582ZM13.2714 20.0049L20.0276 16.1477L13.2714 12.2904V20.0049Z" fill="#A0ABB8"/>
</svg>
