<svg width="24" height="24" viewBox="0 0 24 24" fill="none" xmlns="http://www.w3.org/2000/svg">
<rect width="24" height="24" fill="black" fill-opacity="0"/>
<path fill-rule="evenodd" clip-rule="evenodd" d="M6.06308 23.9062L13.2757 18.9034H21.3154C22.7981 18.9034 24 17.6779 24 16.1662V2.73724C24 1.2255 22.7981 0 21.3154 0H2.68458C1.20193 0 0 1.2255 0 2.73724V16.1876C0.00386402 17.6965 1.20466 18.9177 2.68458 18.9177H5.22196V23.4488C5.22164 23.6524 5.33154 23.8395 5.5077 23.9353C5.68385 24.031 5.89747 24.0199 6.06308 23.9062ZM14.5064 6.00001C15.334 6.00354 16.0023 6.67666 16 7.50425C15.9976 8.33184 15.3255 9.00117 14.4979 9C13.6703 8.99883 13 8.32761 13 7.50001C13 7.10108 13.1589 6.71858 13.4416 6.43709C13.7243 6.1556 14.1075 5.99832 14.5064 6.00001ZM9.50638 6C10.334 6.00352 11.0023 6.67665 11 7.50424C10.9976 8.33184 10.3255 9.00117 9.49788 9C8.67029 8.99883 8.00001 8.32761 8 7.50001C8 7.10218 8.15804 6.72065 8.43934 6.43934C8.72064 6.15804 9.10217 6 9.5 6H9.50638ZM7.06367 11.018C7.65761 10.8487 8.70063 11.9289 11.9818 11.9289C15.2629 11.9289 16.3277 10.8487 16.8999 11.018C17.4721 11.1873 15.5599 15 11.9818 15C8.40366 15 6.49871 11.147 7.11438 11.018H7.06367Z" fill="white" fill-opacity="0.6"/>
</svg>
