<svg width="14" height="16" viewBox="0 0 14 16" fill="none" xmlns="http://www.w3.org/2000/svg">
<rect width="14" height="16" fill="black" fill-opacity="0"/>
<rect width="14" height="16" fill="black" fill-opacity="0"/>
<rect width="14" height="16" fill="black" fill-opacity="0"/>
<rect width="14" height="16" fill="black" fill-opacity="0"/>
<path fill-rule="evenodd" clip-rule="evenodd" d="M9.33333 0H4.66667V1.52381H9.33333V0ZM6.22222 9.90476H7.77778V5.33333H6.22222V9.90476ZM12.4444 4.87619L13.6111 3.80952C13.2222 3.42857 12.8333 3.04762 12.4444 2.74286L11.3556 3.80952C10.1889 2.89524 8.63333 2.28571 7 2.28571C3.11111 2.28571 0 5.33333 0 9.14286C0 12.9524 3.11111 16 7 16C10.8889 16 14 12.9524 14 9.14286C14 7.54286 13.4556 6.01905 12.4444 4.87619ZM7 14.4762C3.96667 14.4762 1.55556 12.1143 1.55556 9.14286C1.55556 6.17143 3.96667 3.80952 7 3.80952C10.0333 3.80952 12.4444 6.17143 12.4444 9.14286C12.4444 12.1143 10.0333 14.4762 7 14.4762Z" fill="#F3B61F"/>
</svg>
