<svg width="20" height="20" viewBox="0 0 20 20" fill="none" xmlns="http://www.w3.org/2000/svg">
<path fill-rule="evenodd" clip-rule="evenodd" d="M9.74805 16.2476C11.2622 14.7334 11.4995 12.4258 10.4585 10.6636L13.5044 7.61694L14.0156 8.12842C14.4063 8.51904 15.0396 8.51904 15.4302 8.12842L16.3521 7.2063C16.7427 6.81567 16.7427 6.18262 16.3521 5.79199L15.8408 5.28052L16.3525 4.76904C16.7432 4.37842 16.7432 3.74536 16.3525 3.35474L16.1421 3.14429C16.0049 3.00684 15.8374 2.91772 15.6611 2.87695C15.3364 2.802 14.9814 2.89111 14.728 3.14429L8.8335 9.03857C7.07129 7.99756 4.76318 8.23438 3.24902 9.74854C1.45459 11.5432 1.45459 14.4529 3.24902 16.2476C5.04395 18.0422 7.95361 18.0422 9.74805 16.2476ZM8.12354 14.6228C9.02051 13.7256 9.02051 12.2705 8.12354 11.3733C7.22607 10.4758 5.771 10.4758 4.87402 11.3733C3.97656 12.2705 3.97656 13.7256 4.87402 14.6228C5.771 15.5203 7.22607 15.5203 8.12354 14.6228Z" fill="white"/>
</svg>
